SplineFontDB: 3.2
FontName: OpenTTDMono
FullName: OpenTTD Mono
FamilyName: OpenTTD Mono
Weight: Bold
Copyright: Richard Wheeler (Zephyris)
UComments: "2023-12-11: Created with FontForge (http://fontforge.org)"
Version: 001.000
ItalicAngle: 0
UnderlinePosition: -120
UnderlineWidth: 60
Ascent: 1000
Descent: 200
InvalidEm: 0
LayerCount: 2
Layer: 0 0 "Back" 1
Layer: 1 0 "Fore" 0
XUID: [1021 686 -1269612197 6434]
StyleMap: 0x0000
FSType: 0
OS2Version: 4
OS2_WeightWidthSlopeOnly: 0
OS2_UseTypoMetrics: 1
CreationTime: 1702291130
ModificationTime: 1705484356
PfmFamily: 33
TTFWeight: 500
TTFWidth: 5
LineGap: 0
VLineGap: 0
OS2TypoAscent: 0
OS2TypoAOffset: 1
OS2TypoDescent: 0
OS2TypoDOffset: 1
OS2TypoLinegap: 0
OS2WinAscent: 0
OS2WinAOffset: 1
OS2WinDescent: 0
OS2WinDOffset: 1
HheadAscent: 0
HheadAOffset: 1
HheadDescent: 0
HheadDOffset: 1
OS2CapHeight: 800
OS2XHeight: 600
OS2Vendor: 'PfEd'
MarkAttachClasses: 1
DEI: 91125

StartChar: a
Encoding: 97 97 0
Width: 800
VWidth: 1000
Flags: W
HStem: 0 100<222.43 384.668> 300 100<229.347 400> 500 100<50.0729 361.072>
VStem: 0 200<125.907 274.093> 400 200<119.281 300> 500 100<0 100>
LayerCount: 2
Fore
SplineSet
600 350 m 2xf4
 600 0 l 1
 500 0 l 1
 500 100 l 1
 500 50 404.645507812 0 300 0 c 0
 125 0 0 75 0 175 c 2
 0 225 l 2
 0 325 125 400 300 400 c 2
 425 400 l 1
 425 450 345.715820312 500.899414062 250 500 c 0
 150.004882812 499.060546875 50 475 50 475 c 1
 50 575 l 1
 50 575 150 600 250 600 c 0
 350 600 600 600 600 350 c 2xf4
400 150 m 2xf8
 400 300 l 1
 300 300 200 300 200 225 c 2
 200 175 l 2
 200 125 250 100 300 100 c 0
 347.8984375 100 400 125 400 150 c 2xf8
EndSplineSet
EndChar

StartChar: y
Encoding: 121 121 1
Width: 800
VWidth: 1000
Flags: W
HStem: 580 20G<0 160 440 600>
LayerCount: 2
Fore
SplineSet
50 -200 m 1
 200 100 l 1
 0 500 l 1
 0 600 l 1
 150 600 l 1
 300 300 l 1
 450 600 l 1
 600 600 l 1
 600 500 l 1
 250 -200 l 1
 50 -200 l 1
EndSplineSet
EndChar

StartChar: d
Encoding: 100 100 2
Width: 800
VWidth: 1000
Flags: W
HStem: 0 100<241.87 400> 500 100<241.87 400> 780 20G<400 600>
VStem: 0 200<142.832 456.989> 400 200<100 500 600 800>
LayerCount: 2
Fore
SplineSet
400 600 m 1
 400 800 l 1
 600 800 l 1
 600 0 l 1
 250 0 l 2
 75 0 0 125 0 225 c 2
 0 375 l 2
 0 475 75 599.815429688 250 600 c 2
 400 600 l 1
400 500 m 1
 300 500 l 2
 251.715820312 500 200 450 200 375 c 2
 200 225 l 2
 200 150 250 100 300 100 c 2
 400 100 l 1
 400 500 l 1
EndSplineSet
EndChar

StartChar: b
Encoding: 98 98 3
Width: 800
Flags: W
HStem: 0 100<200 358.13> 500 100<200 358.13> 780 20G<0 200>
VStem: 0 200<100 500 600 800> 400 200<142.832 456.989>
LayerCount: 2
Fore
SplineSet
200 600 m 1
 350 600 l 2
 525 599.815429688 600 475 600 375 c 2
 600 225 l 2
 600 125 525 0 350 0 c 2
 0 0 l 1
 0 800 l 1
 200 800 l 1
 200 600 l 1
200 500 m 1
 200 100 l 1
 300 100 l 2
 350 100 400 150 400 225 c 2
 400 375 l 2
 400 450 348.284179688 500 300 500 c 2
 200 500 l 1
EndSplineSet
EndChar

StartChar: c
Encoding: 99 99 4
Width: 800
Flags: W
HStem: 0 100<243.43 365.409> 500 100<243.43 370.215>
VStem: 0 200<142.832 457.168> 400 200<132.931 200 400 470.102>
LayerCount: 2
Fore
SplineSet
600 400 m 1
 400 400 l 1
 400 475 344.08203125 500 300 500 c 0
 250 500 200 450 200 375 c 2
 200 225 l 2
 200 150 250 100 300 100 c 0
 340.265625 100 400 125.385742188 400 200 c 1
 600 200 l 1
 600 125 500 0 300 0 c 0
 100 0 0 125 0 225 c 2
 0 375 l 2
 0 475 100 600 300 600 c 0
 500 600 600 475 600 400 c 1
EndSplineSet
EndChar

StartChar: e
Encoding: 101 101 5
Width: 800
Flags: W
HStem: 0 100<242.472 371.252> 300 100<200 400> 500 100<228.578 371.252>
VStem: 0 200<142.832 300 400 457.168> 400 200<128.747 200 400 471.253>
LayerCount: 2
Fore
SplineSet
300 600 m 0
 500 600 600 475 600 400 c 2
 600 300 l 1
 200 300 l 1
 200 225 l 2
 200 150 250 100 300 100 c 0
 350 100 400 125.385742188 400 200 c 1
 600 200 l 1
 600 125 500 0 300 0 c 0
 125 0 0 125 0 225 c 2
 0 375 l 2
 0 475 125 600 300 600 c 0
300 500 m 0
 250 500 200 475 200 400 c 1
 400 400 l 1
 400 475 350 500 300 500 c 0
EndSplineSet
EndChar

StartChar: f
Encoding: 102 102 6
Width: 800
Flags: W
HStem: 0 21G<200 400> 0 21G<200 400> 500 100<100 200 400 500> 700 100<418.353 599.957>
VStem: 200 200<0 500 600 682.15>
LayerCount: 2
Fore
SplineSet
450 800 m 0xb8
 549.556640625 800 600 775 600 775 c 1
 600 675 l 1
 600 675 541.663085938 702.543945312 475 700 c 0
 425.036132812 698.092773438 400 675 400 600 c 1
 500 600 l 1
 500 500 l 1
 400 500 l 1
 400 0 l 1
 200 0 l 1
 200 500 l 1
 100 500 l 1
 100 600 l 1
 200 600 l 1
 200 700 275 800 450 800 c 0xb8
EndSplineSet
EndChar

StartChar: g
Encoding: 103 103 7
Width: 800
Flags: W
HStem: -200 100<75.0738 350.878> 0 100<241.87 400> 500 100<241.87 400>
VStem: 0 200<143.011 457.168> 400 200<0 0 100 500>
LayerCount: 2
Fore
SplineSet
250 600 m 2
 600 600 l 1
 600 0 l 1
 600.298828125 0 l 1
 584.002929688 -198.97265625 342.780273438 -200 250 -200 c 0
 177.987304688 -200 75 -175 75 -175 c 1
 75 -75 l 1
 75 -75 175 -100 250 -100 c 0
 345.719726562 -100 400 -50 400 0 c 1
 250 0 l 2
 75.0009765625 0.1845703125 0 125 0 225 c 2
 0 375 l 2
 0 475 75.0009765625 600 250 600 c 2
300 500 m 2
 250 500 200 450 200 375 c 2
 200 225 l 2
 200 150 251.715820312 100 300 100 c 2
 400 100 l 1
 400 500 l 1
 300 500 l 2
EndSplineSet
EndChar

StartChar: h
Encoding: 104 104 8
Width: 800
Flags: W
HStem: 0 21G<0 200 400 600> 0 21G<0 200 400 600> 500 100<200 358.13> 780 20G<0 200>
VStem: 0 200<0 500 600 800> 400 200<0 456.989>
LayerCount: 2
Fore
SplineSet
0 800 m 1xbc
 200 800 l 1
 200 600 l 1
 300 600 l 1
 300 600.052734375 l 1
 350 600 l 2
 525 599.815429688 600 475 600 375 c 2
 600 0 l 1
 400 0 l 1
 400 375 l 2
 400 450 348.284179688 500 300 500 c 2
 200 500 l 1
 200 0 l 1
 0 0 l 1
 0 800 l 1xbc
EndSplineSet
EndChar

StartChar: i
Encoding: 105 105 9
Width: 800
Flags: W
HStem: 0 100<0 200 400 600> 500 100<100 200> 675 125<224.385 375.616>
VStem: 200 200<100 500 699.572 797.02>
LayerCount: 2
Fore
SplineSet
100 600 m 1
 400 600 l 1
 400 100 l 1
 600 100 l 1
 600 0 l 1
 0 0 l 1
 0 100 l 1
 200 100 l 1
 200 500 l 1
 100 500 l 1
 100 600 l 1
250 800 m 2
 350 800 l 2
 375 800 399.99609375 795.439453125 400 750 c 0
 400.00390625 708.579101562 355.228515625 675 300 675 c 0
 244.771484375 675 200 708.579101562 200 750 c 0
 200 800 225 800 250 800 c 2
EndSplineSet
EndChar

StartChar: j
Encoding: 106 106 10
Width: 800
Flags: W
HStem: -200 100<0.0425365 181.647> 500 100<100 200> 675 125<224.385 375.616>
VStem: 200 200<-82.1503 500 699.572 797.02>
LayerCount: 2
Fore
SplineSet
100 600 m 1
 400 600 l 1
 400 0 l 2
 400 -100 325 -200 150 -200 c 0
 50.443359375 -200 0 -175 0 -175 c 1
 0 -75 l 1
 0 -75 58.3369140625 -102.543945312 125 -100 c 0
 174.963867188 -98.0927734375 200 -75 200 0 c 2
 200 500 l 1
 100 500 l 1
 100 600 l 1
250 800 m 2
 350 800 l 2
 375 800 399.99609375 795.439453125 400 750 c 0
 400.00390625 708.579101562 355.228515625 675 300 675 c 0
 244.771484375 675 200 708.579101562 200 750 c 0
 200 800 225 800 250 800 c 2
EndSplineSet
EndChar

StartChar: k
Encoding: 107 107 11
Width: 800
Flags: W
HStem: 0 21G<0 200 405 600> 0 21G<0 200 405 600> 580 20G<330 575> 780 20G<0 200>
VStem: 0 200<0 225 450 800>
LayerCount: 2
Fore
SplineSet
350 600 m 1xb8
 575 600 l 1
 312.5 337.5 l 1
 600 50 l 1
 600 0 l 1
 425 0 l 1
 200 225 l 1
 200 0 l 1
 0 0 l 1
 0 800 l 1
 200 800 l 1
 200 450 l 1
 350 600 l 1xb8
EndSplineSet
EndChar

StartChar: l
Encoding: 108 108 12
Width: 800
Flags: W
HStem: 0 100<0 200 400 600> 700 100<100 200>
VStem: 200 200<100 700>
LayerCount: 2
Fore
SplineSet
600 0 m 1
 0 0 l 1
 0 100 l 1
 200 100 l 1
 200 700 l 1
 100 700 l 1
 100 800 l 1
 400 800 l 1
 400 100 l 1
 600 100 l 1
 600 0 l 1
EndSplineSet
EndChar

StartChar: n
Encoding: 110 110 13
Width: 800
Flags: W
HStem: 0 21G<0 200 400 600> 0 21G<0 200 400 600> 500 100<200 358.13>
VStem: -0 200<0 500> 400 200<0 456.989>
LayerCount: 2
Fore
SplineSet
0 600 m 1xb8
 300 600 l 1
 350 600 l 2
 525 599.815429688 600 475 600 375 c 2
 600 0 l 1
 400 0 l 1
 400 375 l 2
 400 450 348.284179688 500 300 500 c 2
 200 500 l 1
 200 0 l 1
 -0 0 l 1
 0 600 l 1xb8
EndSplineSet
EndChar

StartChar: m
Encoding: 109 109 14
Width: 800
Flags: W
HStem: 0 20.9746G<0 175 275 425 525 700> 0 20.9746G<0 175 275 425 525 700> 500 100.053<175 231.248 409.524 488.364>
VStem: 0 175<0 500> 275 150<0 454.696> 525 175<-0.0253906 461.914>
CounterMasks: 1 1c
LayerCount: 2
Fore
SplineSet
175 600.052734375 m 1xbc
 218.75 600 l 2
 275.30859375 599.931640625 319.895507812 582.829101562 353.681640625 556.28515625 c 1
 389.89453125 581.766601562 428.017578125 598.786132812 481.25 599.974609375 c 0
 634.375 599.790039062 700 474.974609375 700 374.974609375 c 2
 700 -0.025390625 l 1
 525 -0.025390625 l 1
 525 374.974609375 l 2
 525 449.974609375 481.25 499.948242188 437.5 499.974609375 c 0
 428.672851562 499.979492188 418.950195312 495.793945312 409.060546875 489.298828125 c 1
 428.384765625 452.899414062 425 412.233398438 425 375 c 2
 425 0 l 1
 275 0 l 1
 275 375 l 2
 275 450 217.249023438 500 175 500 c 1
 175 0 l 1
 0 0 l 1
 0 600 l 1
 175 600.052734375 l 1xbc
EndSplineSet
EndChar

StartChar: o
Encoding: 111 111 15
Width: 800
Flags: W
HStem: 0 100<242.472 357.528> 500 100<244.471 355.529>
VStem: 0 200<142.832 457.154> 400 200<142.832 457.182>
LayerCount: 2
Fore
SplineSet
600 375 m 2
 600 225 l 2
 600 125 475 0 300 0 c 0
 125 0 0 125 0 225 c 2
 0 375 l 2
 0 475 125 599.908203125 300 600 c 0
 475 600.091796875 600 475 600 375 c 2
200 375 m 2
 200 225 l 2
 200 150 250 100 300 100 c 0
 350 100 400 150.385742188 400 225 c 2
 400 375 l 2
 400 450 350 500 300 500 c 0
 250 500 200 450 200 375 c 2
EndSplineSet
EndChar

StartChar: p
Encoding: 112 112 16
Width: 800
Flags: W
HStem: 0 100<200 358.13> 500 100<200 358.13>
VStem: 0 200<-200 0 100 500> 400 200<143.011 457.168>
LayerCount: 2
Fore
SplineSet
200 0 m 1
 200 -200 l 1
 0 -200 l 1
 0 600 l 1
 350 600 l 2
 525 600 600 475 600 375 c 2
 600 225 l 2
 600 125 525 0.1845703125 350 0 c 2
 200 0 l 1
200 100 m 1
 300 100 l 2
 348.284179688 100 400 150 400 225 c 2
 400 375 l 2
 400 450 350 500 300 500 c 2
 200 500 l 1
 200 100 l 1
EndSplineSet
EndChar

StartChar: q
Encoding: 113 113 17
Width: 800
Flags: W
HStem: 0 100<241.87 400> 500 100<241.87 400>
VStem: 0 200<143.011 457.168> 400 200<-200 0 100 500>
LayerCount: 2
Fore
SplineSet
400 0 m 1
 250 0 l 2
 75 0.1845703125 0 125 0 225 c 2
 0 375 l 2
 0 475 75 600 250 600 c 2
 600 600 l 1
 600 -200 l 1
 400 -200 l 1
 400 0 l 1
400 100 m 1
 400 500 l 1
 300 500 l 2
 250 500 200 450 200 375 c 2
 200 225 l 2
 200 150 251.715820312 100 300 100 c 2
 400 100 l 1
EndSplineSet
EndChar

StartChar: r
Encoding: 114 114 18
Width: 800
Flags: W
HStem: 0 21G<100 300> 0 21G<100 300> 500 100<329.347 599.903>
VStem: 100 200<0 469.025>
LayerCount: 2
Fore
SplineSet
100 0 m 1xb0
 100 400 l 2
 100 500 225 600 400 600 c 0
 499.556640625 600 600 575 600 575 c 1
 600 475 l 1
 600 475 466.663085938 502.543945312 400 500 c 0
 350.036132812 498.092773438 300 475 300 400 c 2
 300 0 l 1
 100 0 l 1xb0
EndSplineSet
EndChar

StartChar: t
Encoding: 116 116 19
Width: 800
Flags: W
HStem: 0 100<418.353 599.957> 500 100<100 200 400 500>
VStem: 200 200<117.85 500 600 700>
LayerCount: 2
Fore
SplineSet
200 700 m 1
 400 700 l 1
 400 600 l 1
 500 600 l 1
 500 500 l 1
 400 500 l 1
 400 200 l 2
 400 125 425.036132812 101.907226562 475 100 c 0
 541.663085938 97.4560546875 600 125 600 125 c 1
 600 25 l 1
 600 25 549.556640625 0 450 0 c 0
 275 0 200 100 200 200 c 2
 200 500 l 1
 100 500 l 1
 100 600 l 1
 200 600 l 1
 200 700 l 1
EndSplineSet
EndChar

StartChar: s
Encoding: 115 115 20
Width: 800
Flags: W
HStem: 0 100<227.058 364.895> 500 100<235.105 372.942>
VStem: 0 225<409.692 488.41> 375 225<111.59 190.308>
LayerCount: 2
Fore
SplineSet
300 0 m 0
 125 0 0 100 0 175 c 1
 200 175 l 1
 200 125 255.91796875 100 300 100 c 0
 350 100 375 125 375 150 c 0
 375 250 0 275 0 450 c 0
 0 525 150 600 300 600 c 0
 475 600 600 500 600 425 c 1
 400 425 l 1
 400 475 344.08203125 500 300 500 c 0
 250 500 225 475 225 450 c 0
 225 350 600 325 600 150 c 0
 600 75 450 0 300 0 c 0
EndSplineSet
EndChar

StartChar: u
Encoding: 117 117 21
Width: 800
Flags: W
HStem: 0 100<243.43 356.261> 580 20G<0 200 400 575>
VStem: 0 200<142.832 600> 400 175<142.832 600>
LayerCount: 2
Fore
SplineSet
400 600 m 1
 575 600 l 1
 575 225 l 2
 575 125 500 0 300 0 c 0
 100 0 0 125 0 225 c 2
 0 600 l 1
 200 600 l 1
 200 225 l 2
 200 150 250 100 300 100 c 0
 350 100 400 150.385742188 400 225 c 2
 400 600 l 1
EndSplineSet
EndChar

StartChar: v
Encoding: 118 118 22
Width: 800
Flags: W
HStem: 0 21G<265 335> 0 21G<265 335> 580 20G<0 160 440 600>
LayerCount: 2
Fore
SplineSet
600 550 m 1xa0
 325 0 l 1
 275 0 l 1
 0 550 l 1
 0 600 l 1
 150 600 l 1
 300 300 l 1
 450 600 l 1
 600 600 l 1
 600 550 l 1xa0
EndSplineSet
EndChar

StartChar: w
Encoding: 119 119 23
Width: 800
Flags: W
HStem: 0 21G<120 280 420 580> 0 21G<120 280 420 580> 580 20G<0 155.833 275 392.5 544.167 700>
LayerCount: 2
Fore
SplineSet
275 600 m 1xa0
 387.5 600 l 1
 406.25 525 l 1
 462.5 300 l 1
 550 600 l 1
 700 600 l 1
 700 500 l 1
 575 0 l 1
 425 0 l 1
 350 300 l 1
 275 0 l 1
 125 0 l 1
 0 500 l 1
 0 600 l 1
 150 600 l 1
 237.5 300 l 1
 293.75 525 l 1
 275 600 l 1xa0
EndSplineSet
EndChar

StartChar: x
Encoding: 120 120 24
Width: 800
Flags: W
HStem: 0 21G<0 145 455 600> 0 21G<0 145 455 600> 580 20G<0 145 455 600>
LayerCount: 2
Fore
SplineSet
0 600 m 1xa0
 125 600 l 1
 300 425 l 1
 475 600 l 1
 600 600 l 1
 600 525 l 1
 375 300 l 1
 600 75 l 1
 600 0 l 1
 475 0 l 1
 300 175 l 1
 125 0 l 1
 0 0 l 1
 0 75 l 1
 225 300 l 1
 0 525 l 1
 0 600 l 1xa0
EndSplineSet
EndChar

StartChar: z
Encoding: 122 122 25
Width: 800
Flags: W
HStem: 0 125<225 600> 475 125<0 400>
LayerCount: 2
Fore
SplineSet
0 600 m 1
 600 600 l 1
 600 500 l 1
 225 125 l 1
 600 125 l 1
 600 0 l 1
 0 0 l 1
 0 75 l 1
 400 475 l 1
 0 475 l 1
 0 600 l 1
EndSplineSet
EndChar

StartChar: grave
Encoding: 96 96 30
Width: 800
Flags: W
HStem: 625 175
VStem: 200 200
LayerCount: 2
Fore
SplineSet
300 625 m 1
 200 725 l 1
 200 800 l 1
 275 800 l 1
 400 675 l 1
 400 625 l 1
 300 625 l 1
EndSplineSet
EndChar

StartChar: asciicircum
Encoding: 94 94 34
Width: 800
Flags: W
HStem: 500 300
LayerCount: 2
Fore
SplineSet
325 800 m 1
 375 800 l 1
 600 575 l 1
 600 500 l 1
 525 500 l 1
 350 675 l 1
 175 500 l 1
 100 500 l 1
 100 575 l 1
 325 800 l 1
EndSplineSet
EndChar

StartChar: dotlessi
Encoding: 305 305 40
Width: 800
Flags: W
HStem: 0 100<0 200 400 600> 500 100<100 200>
VStem: 200 200<100 500>
LayerCount: 2
Fore
SplineSet
200 100 m 1
 200 500 l 1
 100 500 l 1
 100 600 l 1
 400 600 l 1
 400 100 l 1
 600 100 l 1
 600 0 l 1
 0 0 l 1
 0 100 l 1
 200 100 l 1
EndSplineSet
EndChar

StartChar: A
Encoding: 65 65 44
Width: 800
Flags: W
HStem: 0 21G<0 200 400 600> 0 21G<0 200 400 600> 200 100<200 400> 780 20G<175 425>
VStem: 0 200<0 200 300 550.391> 400 200<0 200 300 546.675>
LayerCount: 2
Fore
SplineSet
200 300 m 1x3c
 400 300 l 1
 400 425 l 2
 400 550 350 650 300 700 c 1
 250 650 200 542.810546875 200 425 c 2
 200 300 l 1x3c
0 0 m 1xbc
 0 425 l 2
 0 600 150 750 200 800 c 1
 400 800 l 1
 450 750 600 591.193359375 600 425 c 2
 600 0 l 1
 400 0 l 1
 400 200 l 1
 200 200 l 1
 200 0 l 1
 0 0 l 1xbc
EndSplineSet
EndChar

StartChar: B
Encoding: 66 66 45
Width: 800
Flags: W
HStem: 0 100<200 358.13> 400 100<200 346.69> 700 100<200 346.59>
VStem: 0 200<100 400 500 700> 375 200<527.099 670.423> 400 200<142.832 356.989>
LayerCount: 2
Fore
SplineSet
0 800 m 1xf4
 200 800 l 1
 350 800 l 2
 525 800 575 700 575 600 c 0xf8
 575 543.763671875 559.186523438 487.52734375 514.22265625 449.076171875 c 1
 573.16796875 403.47265625 600 334.780273438 600 275 c 2
 600 225 l 2
 600 125 525 0 350 0 c 2
 200 0 l 1
 0 0 l 1
 0 800 l 1xf4
200 700 m 1
 200 500 l 1
 275 500 l 2
 325 500 375 525 375 600 c 0
 375 675 323.28515625 700 275 700 c 2
 200 700 l 1
200 400 m 1
 200 100 l 1
 300 100 l 2
 350 100 400 150 400 225 c 2
 400 275 l 2xf4
 400 350 348.28515625 400 300 400 c 2
 200 400 l 1
EndSplineSet
EndChar

StartChar: P
Encoding: 80 80 46
Width: 800
Flags: W
HStem: 0 21G<0 200> 0 21G<0 200> 200 100<200 324.272> 700 100<200 324.272>
VStem: 0 200<0 200 300 700> 400 200<370.898 629.102>
LayerCount: 2
Fore
SplineSet
0 800 m 1xbc
 200 800 l 1
 300 800 l 2
 475 800 600 650 600 550 c 2
 600 450 l 2
 600 350 475 200 300 200 c 2
 200 200 l 1
 200 0 l 1
 0 0 l 1
 0 800 l 1xbc
250 700 m 2
 200 700 l 1
 200 300 l 1
 250 300 l 2
 300 300 400 350 400 450 c 2
 400 550 l 2
 400 650 300 700 250 700 c 2
EndSplineSet
EndChar

StartChar: O
Encoding: 79 79 47
Width: 800
Flags: W
HStem: 0 100<246.082 353.918> 700 100<246.082 353.918>
VStem: 0 200<199.402 600.598> 400 200<199.402 600.598>
LayerCount: 2
Fore
SplineSet
400 375 m 2
 400 425 l 2
 400 550 400 700 300 700 c 0
 200 700 200 550 200 425 c 2
 200 375 l 2
 200 250 200 100 300 100 c 0
 400 100 400 250 400 375 c 2
0 375 m 2
 0 425 l 2
 0 625 75 800 300 800 c 0
 525 800 600 625 600 425 c 2
 600 375 l 2
 600 175 525 0 300 0 c 0
 75 0 0 175 0 375 c 2
EndSplineSet
EndChar

StartChar: T
Encoding: 84 84 48
Width: 800
Flags: W
HStem: 0 21G<200 400> 0 21G<200 400> 700 100<0 200 400 600>
VStem: 200 200<0 700>
LayerCount: 2
Fore
SplineSet
0 800 m 1xb0
 600 800 l 1
 600 700 l 1
 400 700 l 1
 400 0 l 1
 200 0 l 1
 200 700 l 1
 0 700 l 1
 0 800 l 1xb0
EndSplineSet
EndChar

StartChar: D
Encoding: 68 68 49
Width: 800
Flags: W
HStem: 0 100<200 324.689> 700 100<200 324.689>
VStem: 0 200<100 700> 400 200<187.074 612.926>
LayerCount: 2
Fore
SplineSet
0 800 m 1
 200 800 l 1
 225 800 l 2
 450 800 600 700 600 475 c 2
 600 325 l 2
 600 100 450 0 225 0 c 2
 200 0 l 1
 0 0 l 1
 0 800 l 1
200 700 m 1
 200 100 l 1
 225 100 l 2
 349.993164062 101.276367188 400 175 400 300 c 2
 400 500 l 2
 400 625 350 700 225 700 c 2
 200 700 l 1
EndSplineSet
EndChar

StartChar: C
Encoding: 67 67 50
Width: 800
Flags: W
HStem: 0 100<246.082 364.827> 700 100<246.082 364.827>
VStem: 0 200<199.402 600.598> 400 200<131.836 225 575 668.164>
LayerCount: 2
Fore
SplineSet
400 225 m 1
 600 225 l 1
 600 175 575 0 300 0 c 0
 75 0 0 175 0 375 c 2
 0 425 l 2
 0 625 75 800 300 800 c 0
 575 800 600 625 600 575 c 1
 400 575 l 1
 400 600 400 700 300 700 c 0
 200 700 200 550 200 425 c 2
 200 375 l 2
 200 250 200 100 300 100 c 0
 400 100 400 200 400 225 c 1
EndSplineSet
EndChar

StartChar: E
Encoding: 69 69 51
Width: 800
Flags: W
HStem: 0 100<200 600> 400 100<200 500> 700 100<200 600>
VStem: 0 200<100 400 500 700>
LayerCount: 2
Fore
SplineSet
0 800 m 1
 600 800 l 1
 600 700 l 1
 200 700 l 1
 200 500 l 1
 500 500 l 1
 500 400 l 1
 200 400 l 1
 200 100 l 1
 600 100 l 1
 600 0 l 1
 0 0 l 1
 0 800 l 1
EndSplineSet
EndChar

StartChar: F
Encoding: 70 70 52
Width: 800
Flags: W
HStem: 0 21G<0 200> 0 21G<0 200> 400 100<200 500> 700 100<200 600>
VStem: 0 200<0 400 500 700>
LayerCount: 2
Fore
SplineSet
0 800 m 1xb8
 600 800 l 1
 600 700 l 1
 200 700 l 1
 200 500 l 1
 500 500 l 1
 500 400 l 1
 200 400 l 1
 200 0 l 1
 0 0 l 1
 0 800 l 1xb8
EndSplineSet
EndChar

StartChar: G
Encoding: 71 71 53
Width: 800
Flags: W
HStem: 0 100<246.082 361.426> 300 100<300 400> 700 100<246.082 361.415>
VStem: 0 200<199.402 600.598> 400 200<154.918 300 525 660.851>
LayerCount: 2
Fore
SplineSet
600 400 m 1
 600 300 l 2
 600 200 575 0 300 0 c 0
 75 0 0 175 0 375 c 2
 0 425 l 2
 0 625 75 800 300 800 c 0
 575 800 598.727539062 623.341796875 600 525 c 1
 400 525 l 1
 400 575 400 700 300 700 c 0
 200 700 200 550 200 425 c 2
 200 375 l 2
 200 250 200 100 300 100 c 0
 400 100 400 225 400 275 c 2
 400 300 l 1
 300 300 l 1
 300 400 l 1
 600 400 l 1
EndSplineSet
EndChar

StartChar: H
Encoding: 72 72 54
Width: 800
Flags: W
HStem: 0 21G<0 200 400 600> 0 21G<0 200 400 600> 400 100<200 400> 780 20G<0 200 400 600>
VStem: 0 200<0 400 500 800> 400 200<0 400 500 800>
LayerCount: 2
Fore
SplineSet
0 800 m 1xbc
 200 800 l 1
 200 500 l 1
 400 500 l 1
 400 800 l 1
 600 800 l 1
 600 0 l 1
 400 0 l 1
 400 400 l 1
 200 400 l 1
 200 0 l 1
 0 0 l 1
 0 800 l 1xbc
EndSplineSet
EndChar

StartChar: I
Encoding: 73 73 55
Width: 800
Flags: W
HStem: 0 100<0 200 400 600> 700 100<0 200 400 600>
VStem: 200 200<100 700>
LayerCount: 2
Fore
SplineSet
0 800 m 1
 600 800 l 1
 600 700 l 1
 400 700 l 1
 400 100 l 1
 600 100 l 1
 600 0 l 1
 0 0 l 1
 0 100 l 1
 200 100 l 1
 200 700 l 1
 0 700 l 1
 0 800 l 1
EndSplineSet
EndChar

StartChar: J
Encoding: 74 74 56
Width: 800
Flags: W
HStem: 0 100<231.323 368.677> 700 100<200 400>
VStem: 400 200<126.562 700>
LayerCount: 2
Fore
SplineSet
200 800 m 1
 600 800 l 1
 600 200 l 2
 600 100 550 0 300 0 c 0
 50 0 0 100 0 200 c 1
 200 200 l 1
 200 125 250 100 300 100 c 0
 350 100 400 125 400 200 c 2
 400 700 l 1
 200 700 l 1
 200 800 l 1
EndSplineSet
EndChar

StartChar: K
Encoding: 75 75 57
Width: 800
Flags: W
HStem: 0 21G<0 200 505 600> 0 21G<0 200 505 600> 780 20G<0 200 431.818 600>
VStem: 0 200<0 325 525 800>
LayerCount: 2
Fore
SplineSet
200 325 m 1xb0
 200 0 l 1
 0 0 l 1
 0 800 l 1
 200 800 l 1
 200 525 l 1
 450 800 l 1
 600 800 l 1
 600 725 l 1
 300 425 l 1
 600 125 l 1
 600 0 l 1
 525 0 l 1
 200 325 l 1xb0
EndSplineSet
EndChar

StartChar: L
Encoding: 76 76 58
Width: 800
Flags: W
HStem: 0 100<200 600> 780 20G<0 200>
VStem: 0 200<100 800>
LayerCount: 2
Fore
SplineSet
0 800 m 1
 200 800 l 1
 200 100 l 1
 600 100 l 1
 600 0 l 1
 0 0 l 1
 0 800 l 1
EndSplineSet
EndChar

StartChar: M
Encoding: 77 77 59
Width: 800
Flags: W
HStem: 0 21G<0 200 400 600> 0 21G<0 200 400 600> 780 20G<0 113.333 486.667 600>
VStem: 0 200<0 400> 400 200<0 400>
LayerCount: 2
Fore
SplineSet
100 800 m 1xb8
 300 500 l 1
 500 800 l 1
 600 800 l 1
 600 0 l 1
 400 0 l 1
 400 400 l 1
 300 250 l 1
 200 400 l 1
 200 0 l 1
 0 0 l 1
 0 800 l 1
 100 800 l 1xb8
EndSplineSet
EndChar

StartChar: N
Encoding: 78 78 60
Width: 800
Flags: W
HStem: 0 21G<0 200 400 600> 0 21G<0 200 400 600> 780 20G<0 117.143 400 600>
VStem: 0 200<0 450> 400 200<0 200 450 800>
LayerCount: 2
Fore
SplineSet
100 800 m 1xb8
 400 450 l 1
 400 800 l 1
 600 800 l 1
 600 0 l 1
 400 0 l 1
 400 200 l 1
 200 450 l 1
 200 0 l 1
 0 0 l 1
 0 800 l 1
 100 800 l 1xb8
EndSplineSet
EndChar

StartChar: Q
Encoding: 81 81 61
Width: 800
Flags: W
HStem: 0 100<249.976 300> 700 100<246.082 353.918>
VStem: 0 200<199.402 600.598> 400 200<202.433 600.598>
LayerCount: 2
Fore
SplineSet
300 800 m 0
 525 800 600 625 600 425 c 2
 600 375 l 2
 600 261.529296875 575.814453125 156.1484375 513.833984375 86.166015625 c 1
 600 0 l 1
 600 -100 l 1
 500 -100 l 1
 389.16015625 10.83984375 l 1
 362.456054688 3.8359375 332.874023438 0 300 0 c 0
 75 0 -0 175 0 375 c 2
 0 425 l 2
 0 625 75 800 300 800 c 0
300 700 m 0
 200 700 200 550 200 425 c 2
 200 375 l 2
 200 250 200 100 300 100 c 1
 300 200 l 1
 389.376953125 200 l 1
 399.86328125 251.713867188 400 316.053710938 400 375 c 2
 400 425 l 2
 400 550 400 700 300 700 c 0
EndSplineSet
EndChar

StartChar: R
Encoding: 82 82 62
Width: 800
Flags: W
HStem: 0 21G<0 200 455 600> 0 21G<0 200 455 600> 200 100<200 275> 700 100<200 324.272>
VStem: 0 200<0 200 300 700> 400 200<371.548 629.102>
LayerCount: 2
Fore
SplineSet
0 800 m 1xbc
 200 800 l 1
 300 800 l 2
 475 800 600 650 600 550 c 2
 600 450 l 2
 600 379.668945312 538.1171875 284.670898438 440.546875 234.453125 c 1
 600 75 l 1
 600 0 l 1
 475 0 l 1
 275 200 l 1
 200 200 l 1
 200 0 l 1
 0 0 l 1
 0 800 l 1xbc
200 700 m 1
 200 300 l 1
 250 300 l 2
 300 300 400 350 400 450 c 2
 400 550 l 2
 400 650 300 700 250 700 c 2
 200 700 l 1
EndSplineSet
EndChar

StartChar: S
Encoding: 83 83 63
Width: 800
Flags: W
HStem: 0 100<200.544 367.742> 700 100<229.302 394.69>
VStem: 0 200<525.574 671.363> 0 75<205.113 275> 400 200<129.223 274.426> 525 75<525 594.531>
LayerCount: 2
Fore
SplineSet
300 800 m 0xe8
 405.255859375 800 517.275390625 743.352539062 600 675 c 1
 600 525 l 1
 525 525 l 1
 525 625 375 700 300 700 c 0
 224.571289062 700 200 650 200 600 c 0xe4
 200 400 600 500 600 200 c 0
 600 50 425 0 300 0 c 0
 194.655273438 0 82.68359375 55.6943359375 0 125 c 1
 0 275 l 1
 75 275 l 1xd8
 75 175 225.04296875 97.4697265625 300 100 c 0
 375.385742188 102.543945312 400 150 400 200 c 0
 400 400 0 300 0 600 c 0
 0 750.385742188 175 800 300 800 c 0xe8
EndSplineSet
EndChar

StartChar: U
Encoding: 85 85 64
Width: 800
Flags: W
HStem: 0 100<245.789 354.211> 780 20G<0 200 400 600>
VStem: 0 200<171.454 800> 400 200<171.454 800>
LayerCount: 2
Fore
SplineSet
0 800 m 1
 200 800 l 1
 200 300 l 2
 200 212.5 212.5 100 300 100 c 0
 387.5 100 400 212.5 400 300 c 2
 400 800 l 1
 600 800 l 1
 600 325 l 2
 600 225 574.999023438 0 300 0 c 0
 25.0009765625 0 0 225 0 325 c 2
 0 800 l 1
EndSplineSet
EndChar

StartChar: V
Encoding: 86 86 65
Width: 800
Flags: W
HStem: 0 21G<250 350> 0 21G<250 350> 780 20G<0 200 400 600>
VStem: 0 200<464.516 800> 400 200<464.516 800>
LayerCount: 2
Fore
SplineSet
0 800 m 1xb8
 200 800 l 1
 200 600 l 2
 200 450 300 300 300 300 c 1
 300 300 400 450 400 600 c 2
 400 800 l 1
 600 800 l 1
 600 800 600 850 600 600 c 0
 600 350 350 0 350 0 c 1
 250 0 l 1
 250 0 0 350 0 600 c 0
 0 850 0 800 0 800 c 1xb8
EndSplineSet
EndChar

StartChar: W
Encoding: 87 87 66
Width: 800
Flags: W
HStem: 0 21G<125 280 420 575> 0 21G<125 280 420 575> 580 20G<275 392.5> 780 20G<0 150 550 700>
VStem: 0 150<467.366 800> 550 150<467.366 800>
LayerCount: 2
Fore
SplineSet
700 800 m 1xbc
 700 800 700 600 700 500 c 0
 700 328.204101562 575 0 575 0 c 1
 425 0 l 1
 350 300 l 1
 275 0 l 1
 125 0 l 1
 125 0 0 328.204101562 0 500 c 0
 0 600 0 800 0 800 c 1
 150 800 l 1
 150 800 150 666.666992188 150 600 c 0
 150 500 237.5 300 237.5 300 c 1
 293.75 525 l 1
 275 600 l 1
 387.5 600 l 1
 406.25 525 l 1
 462.5 300 l 1
 462.5 300 550 500 550 600 c 0
 550 666.666992188 550 800 550 800 c 1
 700 800 l 1xbc
EndSplineSet
EndChar

StartChar: X
Encoding: 88 88 67
Width: 800
Flags: W
HStem: 0 21G<0 185 415 600> 0 21G<0 185 415 600> 780 20G<0 185 415 600>
LayerCount: 2
Fore
SplineSet
0 800 m 1xa0
 175 800 l 1
 300 550 l 1
 425 800 l 1
 600 800 l 1
 400 400 l 1
 600 0 l 1
 425 0 l 1
 300 250 l 1
 175 0 l 1
 0 0 l 1
 200 400 l 1
 0 800 l 1xa0
EndSplineSet
EndChar

StartChar: Y
Encoding: 89 89 68
Width: 800
Flags: W
HStem: 0 21G<200 400> 0 21G<200 400> 780 20G<0 200 400 600>
VStem: 0 200<617.778 800> 200 200<0 325> 400 200<617.778 800>
LayerCount: 2
Fore
SplineSet
200 325 m 1xa8
 200 325 0 550 0 750 c 2
 0 800 l 1
 200 800 l 1
 200 700 l 2
 200 605.71875 300 500 300 500 c 1
 300 500 400 605.71875 400 700 c 2
 400 800 l 1
 600 800 l 1
 600 750 l 2xb4
 600 550 400 325 400 325 c 1
 400 0 l 1
 200 0 l 1
 200 325 l 1xa8
EndSplineSet
EndChar

StartChar: Z
Encoding: 90 90 69
Width: 800
InSpiro: 1
Flags: W
HStem: 0 125<150 600> 675 125<0 475>
LayerCount: 2
Fore
SplineSet
0 800 m 1
 600 800 l 1
 600 575 l 1
 150 125 l 1
 600 125 l 1
 600 0 l 1
 0 0 l 1
 0 200 l 1
 475 675 l 1
 0 675 l 1
 0 800 l 1
EndSplineSet
EndChar

StartChar: exclam
Encoding: 33 33 70
Width: 800
Flags: W
HStem: 0 200<232.762 367.238> 780 20G<275 325>
VStem: 200 200<32.7622 167.238 420.189 763.314>
LayerCount: 2
Fore
SplineSet
300 800 m 0
 350 800 400.908203125 749.9921875 400 700 c 0
 396.401367188 502.024414062 350 275 350 275 c 1
 250 275 l 1
 250 275 200 500 200 700 c 0
 200 750 250 800 300 800 c 0
EndSplineSet
Refer: 83 46 N 1 0 0 1 0 0 2
EndChar

StartChar: dollar
Encoding: 36 36 72
Width: 800
Flags: W
HStem: 13.2637 96.5098<130.323 200 400 456.264> 591.289 99.791<143.793 200 400 463.87> 780 20G<200 400>
VStem: 0 125<465.396 571.113> 0 75<159.423 225> 200 200<-100 13.8785 109.773 266.934 433.066 589.549 686.19 800> 475 125<131.193 234.604> 525 75<475 540.283>
LayerCount: 2
Fore
SplineSet
200 800 m 5xf4
 400 800 l 5
 400 686.5546875 l 5
 472.692382812 667.86328125 543.2421875 631.66015625 600 590.625 c 5
 600 475 l 5
 525 475 l 5xf5
 525 537.258789062 474.237304688 573.30859375 400 589.548828125 c 5
 400 371.8359375 l 5
 504.995117188 339.659179688 600 292.361328125 600 175 c 4
 600 76.689453125 501.8125 27.4814453125 400 8.96875 c 5
 400 -100 l 5
 200 -100 l 5
 200 13.263671875 l 5
 127.279296875 31.76171875 56.7412109375 67.7587890625 0 109.375 c 5
 0 225 l 5
 75 225 l 5xee
 75 162.739257812 125.758789062 125.907226562 200 109.7734375 c 5
 200 328.1640625 l 5
 95.0048828125 360.340820312 0 407.638671875 0 525 c 4
 0 623.563476562 98.1865234375 672.647460938 200 691.080078125 c 5
 200 800 l 5xf4
200 591.2890625 m 5
 147.03125 578.901367188 125 554.454101562 125 525 c 4
 125 481.00390625 155.05078125 453.612304688 200 433.06640625 c 5
 200 591.2890625 l 5
400 266.93359375 m 5
 400 109.59765625 l 5
 452.401367188 122.048828125 475 145.689453125 475 175 c 4xe6
 475 218.99609375 444.94921875 246.387695312 400 266.93359375 c 5
EndSplineSet
EndChar

StartChar: numbersign
Encoding: 35 35 73
Width: 800
Flags: W
HStem: 0 21G<100 205.714 300 405.714> 0 21G<100 205.714 300 405.714> 200 100<50 128.572 285.715 328.572 485.715 600> 500 100<100 214.285 371.428 414.285 571.428 650> 780 20G<294.286 400 494.286 600>
VStem: 300 100<0 29.4001 770.6 800>
LayerCount: 2
Fore
SplineSet
300 800 m 1xbc
 400 800 l 1
 400 700 l 1
 371.427734375 600 l 1
 442.857421875 600 l 1
 500 800 l 1
 600 800 l 1
 600 700 l 1
 571.427734375 600 l 1
 650 600 l 1
 650 500 l 1
 542.857421875 500 l 1
 485.71484375 300 l 1
 600 300 l 1
 600 200 l 1
 457.142578125 200 l 1
 400 0 l 1
 300 0 l 1
 300 100 l 1
 328.572265625 200 l 1
 257.142578125 200 l 1
 200 0 l 1
 100 0 l 1
 100 100 l 1
 128.572265625 200 l 1
 50 200 l 1
 50 300 l 1
 157.142578125 300 l 1
 214.28515625 500 l 1
 100 500 l 1
 100 600 l 1
 242.857421875 600 l 1
 300 800 l 1xbc
342.857421875 500 m 1
 285.71484375 300 l 1
 357.142578125 300 l 1
 414.28515625 500 l 1
 342.857421875 500 l 1
EndSplineSet
EndChar

StartChar: ampersand
Encoding: 38 38 75
Width: 800
Flags: W
HStem: 0 100<141.355 241.05> 700 100<241.479 358.521>
VStem: 0 125<117.858 273.453> 100 125<499.239 684.373> 375 125<502.284 683.477>
LayerCount: 2
Fore
SplineSet
300 800 m 0xd8
 475 800.091796875 500 700 500 600 c 0
 500 533.227539062 444.229492188 421.939453125 362.537109375 355.30859375 c 1
 392.1875 317.1875 l 1
 525 450 l 1
 600 450 l 1
 600 325 l 1
 479.6875 204.6875 l 1
 600 50 l 1
 600 0 l 1
 450 0 l 1
 378.1875 101.734375 l 1
 323.260742188 39.875 309.60546875 0 200 0 c 0
 0 0 -1.919921875 100.018554688 0 200 c 0xe8
 1.6611328125 286.512695312 49.97265625 383.721679688 168.978515625 398.11328125 c 1
 150 425 l 2
 98.0185546875 498.640625 100 525 100 625 c 0
 100 700 125 799.907226562 300 800 c 0xd8
300 700 m 0
 250 700 225 675 225 600 c 0xd8
 225 575 228.293945312 527.908203125 250 500 c 2
 298.2890625 437.9140625 l 1
 341.236328125 471.907226562 375 527.515625 375 600.193359375 c 0
 375 675 350 700 300 700 c 0
237.861328125 300.529296875 m 2
 233.594726562 300.206054688 229.310546875 300 225 300 c 0xd8
 175 300 125 275 125 200 c 0xe8
 125 125 150 100 200 100 c 0
 240.094726562 100 264.13671875 164.271484375 297.861328125 215.53125 c 1
 237.861328125 300.529296875 l 2
EndSplineSet
EndChar

StartChar: quotesingle
Encoding: 39 39 76
Width: 800
Flags: W
HStem: 780 20G<275 325>
VStem: 250 150<534.991 626.376>
LayerCount: 2
Fore
SplineSet
275 400 m 1
 200 450 l 1
 225 475 250.899414062 502.158203125 250 575 c 0
 249.3828125 624.99609375 198.727539062 620.33984375 200 700 c 0
 200.798828125 749.993164062 250 800 300 800 c 0
 350 800 401.306640625 749.983398438 400 700 c 0
 393.703125 459.182617188 300 425 275 400 c 1
EndSplineSet
EndChar

StartChar: parenleft
Encoding: 40 40 77
Width: 800
Flags: W
HStem: -100.5 0.5<300 500> -25 0.5<489.157 500> 724.5 0.5<492.593 500> 800 0.5<499.5 500>
VStem: 99.5 0.5<166.888 533.112> 300 0.5<166.924 533.075> 500 0.5<-100 -25 725 800>
LayerCount: 2
Fore
SplineSet
100.5 525 m 2
 100.5 699.750976562 200.2578125 749.569335938 250.22265625 774.552734375 c 2
 300.118164062 799.5 l 1
 499.5 799.5 l 1
 499.5 725.48828125 l 1
 421.518554688 723.6015625 299.5 700.0078125 299.5 525 c 2
 299.5 175 l 2
 299.5 0.013671875 424.352539062 -25.3876953125 499.5 -25.5 c 1
 499.5 -99.5 l 1
 300.118164062 -99.5 l 1
 250.22265625 -74.552734375 l 2
 200.2578125 -49.5693359375 100.5 0.2490234375 100.5 175 c 2
 100.5 525 l 2
99.5 525 m 2
 99.5 175 l 2
 99.5 -0.2490234375 199.7421875 -50.4306640625 249.77734375 -75.447265625 c 2
 299.77734375 -100.447265625 l 1
 299.881835938 -100.5 l 1
 300 -100.5 l 1
 500 -100.5 l 1
 500.5 -100.5 l 1
 500.5 -100 l 1
 500.5 -25 l 1
 500.5 -24.5 l 1
 500 -24.5 l 2
 425.092773438 -24.5 300.5 0.375 300.5 175 c 2
 300.5 525 l 2
 300.5 699.626953125 422.200195312 722.703125 500.01171875 724.5 c 2
 500.5 724.51171875 l 1
 500.5 725 l 1
 500.5 800 l 1
 500.5 800.5 l 1
 500 800.5 l 1
 300 800.5 l 1
 299.881835938 800.5 l 1
 299.77734375 800.447265625 l 1
 249.77734375 775.447265625 l 2
 199.7421875 750.430664062 99.5 700.249023438 99.5 525 c 2
100 525 m 2
 100 700 200 750 250 775 c 2
 300 800 l 1
 500 800 l 1
 500 725 l 1
 422.114257812 723.201171875 300 700 300 525 c 2
 300 175 l 2
 300 0 425 -25 500 -25 c 1
 500 -100 l 1
 300 -100 l 1
 250 -75 l 2
 200 -50 100 0 100 175 c 2
 100 525 l 2
EndSplineSet
EndChar

StartChar: parenright
Encoding: 41 41 78
Width: 800
Flags: W
HStem: -100.5 0.5<100 300> -25 0.5<100 110.843> 724.5 0.5<100 107.407> 800 0.5<100 100.5>
VStem: 99.5 0.5<-100 -25 725 800> 299.5 0.5<166.924 533.075> 500 0.5<166.888 533.112>
LayerCount: 2
Fore
SplineSet
499.5 525 m 2
 499.5 175 l 2
 499.5 0.2490234375 399.7421875 -49.5693359375 349.77734375 -74.552734375 c 2
 299.881835938 -99.5 l 1
 100.5 -99.5 l 1
 100.5 -25.5 l 1
 175.647460938 -25.3876953125 300.5 0.013671875 300.5 175 c 2
 300.5 525 l 2
 300.5 700.0078125 178.481445312 723.6015625 100.5 725.48828125 c 1
 100.5 799.5 l 1
 299.881835938 799.5 l 1
 349.77734375 774.552734375 l 2
 399.7421875 749.569335938 499.5 699.750976562 499.5 525 c 2
500.5 525 m 2
 500.5 700.249023438 400.2578125 750.430664062 350.22265625 775.447265625 c 2
 300.22265625 800.447265625 l 1
 300.118164062 800.5 l 1
 300 800.5 l 1
 100 800.5 l 1
 99.5 800.5 l 1
 99.5 800 l 1
 99.5 725 l 1
 99.5 724.51171875 l 1
 99.98828125 724.5 l 2
 177.799804688 722.703125 299.5 699.626953125 299.5 525 c 2
 299.5 175 l 2
 299.5 0.375 174.907226562 -24.5 100 -24.5 c 2
 99.5 -24.5 l 1
 99.5 -25 l 1
 99.5 -100 l 1
 99.5 -100.5 l 1
 100 -100.5 l 1
 300 -100.5 l 1
 300.118164062 -100.5 l 1
 300.22265625 -100.447265625 l 1
 350.22265625 -75.447265625 l 2
 400.2578125 -50.4306640625 500.5 -0.2490234375 500.5 175 c 2
 500.5 525 l 2
500 525 m 2
 500 175 l 2
 500 0 400 -50 350 -75 c 2
 300 -100 l 1
 100 -100 l 1
 100 -25 l 1
 175 -25 300 0 300 175 c 2
 300 525 l 2
 300 700 177.885742188 723.201171875 100 725 c 1
 100 800 l 1
 300 800 l 1
 350 775 l 2
 400 750 500 700 500 525 c 2
EndSplineSet
EndChar

StartChar: asterisk
Encoding: 42 42 79
Width: 800
Flags: W
HStem: 780 20G<300 500>
VStem: 300 200<300 425 675 800>
LayerCount: 2
Fore
SplineSet
300 800 m 1
 500 800 l 1
 500 675 l 1
 575 750 l 1
 675 750 l 1
 675 675 l 1
 550 550 l 1
 675 425 l 1
 675 350 l 1
 575 350 l 1
 500 425 l 1
 500 300 l 1
 300 300 l 1
 300 425 l 1
 225 350 l 1
 125 350 l 1
 125 425 l 1
 250 550 l 1
 125 675 l 1
 125 750 l 1
 225 750 l 1
 300 675 l 1
 300 800 l 1
EndSplineSet
EndChar

StartChar: plus
Encoding: 43 43 80
Width: 800
Flags: W
HStem: 300 100<0 200 400 600> 580 20G<200 400>
VStem: 200 200<100 300 400 600>
LayerCount: 2
Fore
SplineSet
200 600 m 5
 400 600 l 5
 400 400 l 5
 600 400 l 5
 600 300 l 5
 400 300 l 5
 400 100 l 5
 200 100 l 5
 200 300 l 5
 0 300 l 5
 0 400 l 5
 200 400 l 5
 200 600 l 5
EndSplineSet
EndChar

StartChar: hyphen
Encoding: 45 45 82
Width: 800
Flags: W
HStem: 300 100<0 500>
LayerCount: 2
Fore
SplineSet
0 400 m 1
 500 400 l 1
 500 300 l 1
 0 300 l 1
 0 400 l 1
EndSplineSet
EndChar

StartChar: period
Encoding: 46 46 83
Width: 800
Flags: W
HStem: 0 200<232.762 367.238>
VStem: 200 200<32.7622 167.238>
LayerCount: 2
Fore
SplineSet
200 100 m 0
 200 155.228515625 244.771484375 200 300 200 c 0
 355.228515625 200 400 155.228515625 400 100 c 0
 400 44.771484375 355.228515625 0 300 0 c 0
 244.771484375 0 200 44.771484375 200 100 c 0
EndSplineSet
EndChar

StartChar: slash
Encoding: 47 47 84
Width: 800
Flags: W
HStem: 0 21G<100 260> 0 21G<100 260> 780 20G<440 600>
LayerCount: 2
Fore
SplineSet
100 0 m 1xa0
 100 100 l 1
 450 800 l 1
 600 800 l 1
 600 700 l 1
 250 0 l 1
 100 0 l 1xa0
EndSplineSet
EndChar

StartChar: zero
Encoding: 48 48 85
Width: 800
Flags: W
HStem: 0 100<246 353.918> 700 100<246.082 354>
VStem: 0 200<375 600.598> 400 200<199.402 425>
LayerCount: 2
Fore
SplineSet
300 800 m 0
 525 800 600 625 600 425 c 2
 600 375 l 2
 600 175 525 0 300 0 c 0
 75 0 0 175 0 375 c 2
 0 425 l 2
 0 625 75 800 300 800 c 0
300 700 m 0
 200 700 200 550 200 425 c 2
 200 375 l 1
 394.380859375 569.380859375 l 1
 385.36328125 642.65625 361.801757812 700 300 700 c 0
400 425 m 1
 205.619140625 230.619140625 l 1
 214.63671875 157.34375 238.198242188 100 300 100 c 0
 400 100 400 250 400 375 c 2
 400 425 l 1
EndSplineSet
EndChar

StartChar: one
Encoding: 49 49 86
Width: 800
Flags: W
HStem: 0 100<0 200 400 600> 780 20G<230 400>
VStem: 200 200<100 500>
LayerCount: 2
Fore
SplineSet
250 800 m 1
 400 800 l 1
 400 100 l 1
 600 100 l 1
 600 0 l 1
 0 0 l 1
 0 100 l 1
 200 100 l 1
 200 500 l 1
 0 500 l 1
 0 550 l 1
 250 800 l 1
EndSplineSet
EndChar

StartChar: two
Encoding: 50 50 87
Width: 800
Flags: W
HStem: 0 100<175 600> 700 100<236.819 368.647>
VStem: 0 200<550 662.891> 400 200<507.476 667.666>
LayerCount: 2
Fore
SplineSet
600 575 m 0
 599.993164062 526.092773438 550 475 500 425 c 2
 175 100 l 1
 600 100 l 1
 600 0 l 1
 0 0 l 1
 0 125 l 1
 325 450 l 2
 357.813476562 482.813476562 400 523.309570312 400 575 c 0
 400 675 350 700 300 700 c 0
 250 700 200 675 200 550 c 1
 0 550 l 1
 0 725 75 800 300 800 c 0
 525 800 600.01953125 723.923828125 600 575 c 0
EndSplineSet
EndChar

StartChar: three
Encoding: 51 51 88
Width: 800
Flags: W
HStem: 0 100<236.819 370.367> 675 125<0 450>
VStem: 0 200<137.109 250> 400 200<128.373 277.976>
LayerCount: 2
Fore
SplineSet
0 800 m 1
 600 800 l 1
 600 625 l 1
 425 450 l 1
 500 375 l 2
 550 325 600 273.388671875 600 200 c 0
 600 75 525 0 300 0 c 0
 75 0 0 75 0 250 c 1
 200 250 l 1
 200 125 250 100 300 100 c 0
 350 100 400 125 400 200 c 0
 400 250 350 325 300 375 c 2
 250 425 l 1
 250 475 l 1
 450 675 l 1
 0 675 l 1
 0 800 l 1
EndSplineSet
EndChar

StartChar: four
Encoding: 52 52 89
Width: 800
Flags: W
HStem: 0 21G<300 500> 0 21G<300 500> 200 100<200 300 500 600> 780 20G<0 200>
VStem: 0 200<300 800> 300 200<0 200 300 500>
LayerCount: 2
Fore
SplineSet
0 800 m 5xbc
 200 800 l 5
 200 300 l 5
 300 300 l 5
 300 500 l 5
 500 500 l 5
 500 300 l 5
 600 300 l 5
 600 200 l 5
 500 200 l 5
 500 0 l 5
 300 0 l 5
 300 200 l 5
 0 200 l 5
 0 800 l 5xbc
EndSplineSet
EndChar

StartChar: five
Encoding: 53 53 90
Width: 800
Flags: W
HStem: 0 100<236.85 363.212> 400 100<200 359.388> 700 100<200 600>
VStem: 0 200<137.109 250 500 700> 400.031 200<137.109 362.891>
LayerCount: 2
Fore
SplineSet
600 700 m 5
 200 700 l 5
 200 500 l 5
 300 500 l 6
 525 500 600 425 600 250 c 5
 600.03125 250 l 5
 600.03125 75 525.03125 0 300.03125 0 c 4
 75.03125 0 0.03125 75 0.03125 250 c 5
 200.03125 250 l 5
 200.03125 125 250.03125 100 300.03125 100 c 4
 350.03125 100 400.03125 125 400.03125 250 c 5
 400 250 l 5
 400 375 350 400 300 400 c 6
 0 400 l 5
 0 800 l 5
 600 800 l 5
 600 700 l 5
EndSplineSet
EndChar

StartChar: six
Encoding: 54 54 91
Width: 800
Flags: W
HStem: 0 100<236.85 363.212> 400 100<200 359.388> 700 100<236.819 495.488>
VStem: 0.03125 199.969<137.109 400 500 662.891> 400.031 200<137.109 362.891>
LayerCount: 2
Fore
SplineSet
0.03125 250 m 2
 0 550 l 2
 0 725 75 800 300 800 c 0
 350 800 400 800 500 775 c 1
 500 675 l 1
 406.109375 700 350 700 300 700 c 0
 250 700 200 675 200 550 c 2
 200 500 l 1
 300 500 l 2
 525 500 600 425 600 250 c 1
 600.03125 250 l 1
 600.03125 75 525.03125 0 300.03125 0 c 0
 75.03125 0 0.03125 75 0.03125 250 c 2
200 400 m 1
 200 250 l 1
 200.03125 250 l 1
 200.03125 125 250.03125 100 300.03125 100 c 0
 350.03125 100 400.03125 125 400.03125 250 c 1
 400 250 l 1
 400 375 350 400 300 400 c 2
 200 400 l 1
EndSplineSet
EndChar

StartChar: seven
Encoding: 55 55 92
Width: 800
Flags: W
HStem: 0 21G<100 235.714> 0 21G<100 235.714> 700 100<0 425>
LayerCount: 2
Fore
SplineSet
0 800 m 1xa0
 600 800 l 1
 600 700 l 1
 225 0 l 1
 100 0 l 1
 100 100 l 1
 425 700 l 1
 0 700 l 1
 0 800 l 1xa0
EndSplineSet
EndChar

StartChar: eight
Encoding: 56 56 93
Width: 800
Flags: W
HStem: 0 100<230.677 368.435> 400 100<229.898 370.102> 700 100<227.839 372.161>
VStem: 0 200<132.088 369.616> 25 175<525.234 673.354> 400 200<132.458 369.616> 400 175<525.234 673.354>
LayerCount: 2
Fore
SplineSet
300 800 m 4xe8
 500 800 575 750 575 625 c 6
 575 575 l 6xea
 575 515.569335938 558.564453125 473.733398438 519.609375 445.873046875 c 5
 577.291015625 404.727539062 600 343.658203125 600 275 c 6
 600 225 l 6
 600 100 525 0 300 0 c 4
 75 0 0 100 0 225 c 6
 0 275 l 6xf4
 0 343.30078125 22.4775390625 404.088867188 79.49609375 445.2265625 c 5
 41.45703125 473.783203125 25 516.458007812 25 575 c 6
 25 625 l 6
 25 750 100 800 300 800 c 4xe8
300 700 m 4
 225 700 200 650 200 625 c 6
 200 575 l 6
 200 550 225 500 300 500 c 4
 375 500 400 550 400 575 c 6
 400 625 l 6
 400 650 375 700 300 700 c 4
300 400 m 4
 225 400 200 350 200 275 c 6
 200 225 l 6
 200 150 225 100 300 100 c 4
 375 100 400 155.921875 400 225 c 6
 400 275 l 6xf4
 400 350 375 400 300 400 c 4
EndSplineSet
EndChar

StartChar: nine
Encoding: 57 57 94
Width: 800
Flags: W
HStem: 0 21G<100 245> 0 21G<100 245> 300 100<231.457 322.848> 700 100<230.677 369.323>
VStem: 0 200<432.088 667.912> 400 200<432.808 667.912>
LayerCount: 2
Fore
SplineSet
300 800 m 0xbc
 525 800 600 700 600 575 c 2
 600 525 l 2
 600 520.864257812 599.905273438 516.76171875 599.73828125 512.68359375 c 0
 597.005859375 372.428710938 548.573242188 323.573242188 500 275 c 2
 225 0 l 1
 100 0 l 1
 100 75 l 1
 325.501953125 300.501953125 l 1
 317.19921875 300.204101562 308.752929688 300 300 300 c 0
 75 300 0 400 0 525 c 2
 0 575 l 2
 0 700 75 800 300 800 c 0xbc
300 700 m 0
 225 700 200 650 200 575 c 2
 200 525 l 2
 200 450 225 400 300 400 c 0
 375 400 400 455.921875 400 525 c 2
 400 575 l 2
 400 650 375 700 300 700 c 0
EndSplineSet
EndChar

StartChar: less
Encoding: 60 60 97
Width: 800
Flags: W
HStem: 580 20G<360 500>
LayerCount: 2
Fore
SplineSet
500 500 m 1
 200 350 l 1
 500 200 l 1
 500 100 l 1
 400 100 l 1
 0 300 l 1
 0 400 l 1
 400 600 l 1
 500 600 l 1
 500 500 l 1
EndSplineSet
EndChar

StartChar: equal
Encoding: 61 61 98
Width: 800
Flags: W
HStem: 200 100<0 500> 400 100<0 500>
LayerCount: 2
Fore
SplineSet
0 500 m 5
 500 500 l 5
 500 400 l 5
 0 400 l 5
 0 500 l 5
0 300 m 5
 500 300 l 5
 500 200 l 5
 0 200 l 5
 0 300 l 5
EndSplineSet
EndChar

StartChar: greater
Encoding: 62 62 99
Width: 800
Flags: W
HStem: 580 20G<0 140>
LayerCount: 2
Fore
SplineSet
0 500 m 1
 0 600 l 1
 100 600 l 1
 500 400 l 1
 500 300 l 1
 100 100 l 1
 0 100 l 1
 0 200 l 1
 300 350 l 1
 0 500 l 1
EndSplineSet
EndChar

StartChar: question
Encoding: 63 63 100
Width: 800
Flags: W
HStem: 0 200<232.762 367.238> 700 100<229.74 367.836>
VStem: 0 200<550 672.738> 200 200<32.7622 167.238> 400 200<508.885 668.87>
LayerCount: 2
Fore
SplineSet
400 300 m 1xe8
 200 300 l 1xd0
 200 525 400 400 400 600 c 0
 400 650 375.385742188 697.456054688 300 700 c 0
 225.04296875 702.530273438 200 650 200 600 c 2
 200 550 l 1
 0 550 l 1
 0 600 l 2
 1.2724609375 698.341796875 100 800 300 800 c 0
 425 800 601.280273438 750.380859375 600 600 c 0
 598.201171875 388.680664062 400 475.524414062 400 300 c 1xe8
EndSplineSet
Refer: 83 46 S 1 0 0 1 0 0 2
EndChar

StartChar: at
Encoding: 64 64 101
Width: 800
Flags: W
HStem: 0 100<237.616 653.265> 200 100<306.555 394.114 502.031 595.414> 500 100<320.671 400> 700 100<237.616 525.377>
VStem: 0 100<261.641 538.248> 200 100<304.911 480.137> 400 100<303.488 500> 600 100<304.586 659.458>
LayerCount: 2
Fore
SplineSet
500 0 m 2
 325 0 l 2
 150 0 0 175 0 375 c 2
 0 425 l 2
 0 625 150 800 325 800 c 0
 600 800 698.727539062 698.341796875 700 600 c 2
 700 325 l 2
 700 250 650 200 575 200 c 2
 400 200 l 2
 227.930664062 197.456054688 200 275 200 400 c 0
 200 525 275 600 400 600 c 2
 500 600 l 1
 500 350 l 2
 500 326.4296875 500 300 550 300 c 0
 600 300 600 325 600 350 c 2
 600 600 l 2
 600 650 589.30078125 701.272460938 325 700 c 0
 200.000976562 699.3984375 100 550 100 425 c 2
 100 375 l 2
 100 250 200 100 325 100 c 2
 500 100 l 1
 628.892578125 95.962890625 700 150 700 150 c 1
 700 50 l 1
 700 50 650 0 500 0 c 2
400 500 m 1
 325 500 300 475 300 400 c 0
 300 325 300 300 350 300 c 0
 397.8984375 300 400 325 400 400 c 2
 400 500 l 1
EndSplineSet
EndChar

StartChar: bracketleft
Encoding: 91 91 102
Width: 800
Flags: W
HStem: -100 100<400 500> 700 100<400 500>
VStem: 200 300<-100 0 700 800> 200 200<0 700>
LayerCount: 2
Fore
SplineSet
200 800 m 1xe0
 500 800 l 1
 500 700 l 1xe0
 400 700 l 1
 400 0 l 1xd0
 500 0 l 1
 500 -100 l 1
 200 -100 l 1
 200 800 l 1xe0
EndSplineSet
EndChar

StartChar: backslash
Encoding: 92 92 103
Width: 800
Flags: W
HStem: 0 21G<440 600> 0 21G<440 600> 780 20G<100 260>
LayerCount: 2
Fore
SplineSet
600 0 m 1xa0
 450 0 l 1
 100 700 l 1
 100 800 l 1
 250 800 l 1
 600 100 l 1
 600 0 l 1xa0
EndSplineSet
EndChar

StartChar: bracketright
Encoding: 93 93 104
Width: 800
Flags: W
HStem: -100 100<200 300> 700 100<200 300>
VStem: 200 300<-100 0 700 800> 300 200<0 700>
LayerCount: 2
Fore
SplineSet
500 800 m 1xe0
 500 -100 l 1
 200 -100 l 1
 200 0 l 1xe0
 300 0 l 1
 300 700 l 1xd0
 200 700 l 1
 200 800 l 1
 500 800 l 1xe0
EndSplineSet
EndChar

StartChar: underscore
Encoding: 95 95 105
Width: 800
Flags: W
HStem: -100 100<0 600>
LayerCount: 2
Fore
SplineSet
0 -100 m 1
 0 0 l 1
 600 0 l 1
 600 -100 l 1
 0 -100 l 1
EndSplineSet
EndChar

StartChar: braceleft
Encoding: 123 123 106
Width: 800
Flags: W
HStem: -100.5 0.5<400 600> -25 0.5<589.157 600> 724.5 0.5<592.593 600> 800 0.5<599.5 600>
VStem: 199.5 0.5<166.888 249.792 449.309 533.112> 400 0.5<166.924 250 450 533.075> 600 0.5<-100 -25 725 800>
LayerCount: 2
Fore
SplineSet
200.5 525 m 2
 200.5 699.750976562 300.2578125 749.569335938 350.22265625 774.552734375 c 2
 400.118164062 799.5 l 1
 599.5 799.5 l 1
 599.5 725.48828125 l 1
 521.518554688 723.6015625 399.5 700.0078125 399.5 525 c 2
 399.5 450.20703125 l 1
 299.646484375 350.353515625 l 1
 299.29296875 350 l 1
 299.646484375 349.646484375 l 1
 399.5 249.79296875 l 1
 399.5 175 l 2
 399.5 0.013671875 524.352539062 -25.3876953125 599.5 -25.5 c 1
 599.5 -99.5 l 1
 400.118164062 -99.5 l 1
 350.22265625 -74.552734375 l 2
 300.2578125 -49.5693359375 200.5 0.2490234375 200.5 175 c 2
 200.5 250 l 1
 200.5 250.208007812 l 1
 200.352539062 250.354492188 l 1
 100.708984375 349.549804688 l 1
 200.352539062 448.74609375 l 1
 200.5 448.892578125 l 1
 200.5 449.100585938 l 1
 200.5 525 l 2
300.70703125 350 m 1
 400.353515625 449.646484375 l 1
 400.5 449.79296875 l 1
 400.5 450 l 1
 400.5 525 l 2
 400.5 699.626953125 522.200195312 722.703125 600.01171875 724.5 c 2
 600.5 724.51171875 l 1
 600.5 725 l 1
 600.5 800 l 1
 600.5 800.5 l 1
 600 800.5 l 1
 400 800.5 l 1
 399.881835938 800.5 l 1
 399.77734375 800.447265625 l 1
 349.77734375 775.447265625 l 2
 299.7421875 750.430664062 199.5 700.249023438 199.5 525 c 2
 199.5 449.30859375 l 1
 99.6474609375 349.904296875 l 1
 99.291015625 349.549804688 l 1
 99.6474609375 349.1953125 l 1
 199.5 249.791992188 l 1
 199.5 175 l 2
 199.5 -0.2490234375 299.7421875 -50.4306640625 349.77734375 -75.447265625 c 2
 399.77734375 -100.447265625 l 1
 399.881835938 -100.5 l 1
 400 -100.5 l 1
 600 -100.5 l 1
 600.5 -100.5 l 1
 600.5 -100 l 1
 600.5 -25 l 1
 600.5 -24.5 l 1
 600 -24.5 l 2
 525.092773438 -24.5 400.5 0.375 400.5 175 c 2
 400.5 250 l 1
 400.5 250.20703125 l 1
 400.353515625 250.353515625 l 1
 300.70703125 350 l 1
200 525 m 2
 200 700 300 750 350 775 c 2
 400 800 l 1
 600 800 l 1
 600 725 l 1
 522.114257812 723.201171875 400 700 400 525 c 2
 400 450 l 1
 300 350 l 1
 400 250 l 1
 400 175 l 2
 400 0 525 -25 600 -25 c 1
 600 -100 l 1
 400 -100 l 1
 350 -75 l 2
 300 -50 200 0 200 175 c 2
 200 250 l 1
 100 349.549804688 l 1
 200 449.100585938 l 1
 200 525 l 2
EndSplineSet
EndChar

StartChar: bar
Encoding: 124 124 107
Width: 800
Flags: W
HStem: 780 20G<200 400>
VStem: 200 200<-100 800>
LayerCount: 2
Fore
SplineSet
200 -100 m 1
 200 800 l 1
 400 800 l 1
 400 -100 l 1
 200 -100 l 1
EndSplineSet
EndChar

StartChar: braceright
Encoding: 125 125 108
Width: 800
Flags: W
HStem: -100.5 0.5<100 300> -25 0.5<100 110.843> 724.5 0.5<100 107.407> 800 0.5<100 100.5>
VStem: 99.5 0.5<-100 -25 725 800> 299.5 0.5<166.924 250 450 533.075> 500 0.5<166.888 249.792 449.309 533.112>
LayerCount: 2
Fore
SplineSet
499.5 525 m 2
 499.5 449.100585938 l 1
 499.5 448.892578125 l 1
 499.647460938 448.74609375 l 1
 599.291015625 349.549804688 l 1
 499.647460938 250.354492188 l 1
 499.5 250.208007812 l 1
 499.5 250 l 1
 499.5 175 l 2
 499.5 0.2490234375 399.7421875 -49.5693359375 349.77734375 -74.552734375 c 2
 299.881835938 -99.5 l 1
 100.5 -99.5 l 1
 100.5 -25.5 l 1
 175.647460938 -25.3876953125 300.5 0.013671875 300.5 175 c 2
 300.5 249.79296875 l 1
 400.353515625 349.646484375 l 1
 400.70703125 350 l 1
 400.353515625 350.353515625 l 1
 300.5 450.20703125 l 1
 300.5 525 l 2
 300.5 700.0078125 178.481445312 723.6015625 100.5 725.48828125 c 1
 100.5 799.5 l 1
 299.881835938 799.5 l 1
 349.77734375 774.552734375 l 2
 399.7421875 749.569335938 499.5 699.750976562 499.5 525 c 2
500.5 525 m 2
 500.5 700.249023438 400.2578125 750.430664062 350.22265625 775.447265625 c 2
 300.22265625 800.447265625 l 1
 300.118164062 800.5 l 1
 300 800.5 l 1
 100 800.5 l 1
 99.5 800.5 l 1
 99.5 800 l 1
 99.5 725 l 1
 99.5 724.51171875 l 1
 99.98828125 724.5 l 2
 177.799804688 722.703125 299.5 699.626953125 299.5 525 c 2
 299.5 450 l 1
 299.5 449.79296875 l 1
 299.646484375 449.646484375 l 1
 399.29296875 350 l 1
 299.646484375 250.353515625 l 1
 299.5 250.20703125 l 1
 299.5 250 l 1
 299.5 175 l 2
 299.5 0.375 174.907226562 -24.5 100 -24.5 c 2
 99.5 -24.5 l 1
 99.5 -25 l 1
 99.5 -100 l 1
 99.5 -100.5 l 1
 100 -100.5 l 1
 300 -100.5 l 1
 300.118164062 -100.5 l 1
 300.22265625 -100.447265625 l 1
 350.22265625 -75.447265625 l 2
 400.2578125 -50.4306640625 500.5 -0.2490234375 500.5 175 c 2
 500.5 249.791992188 l 1
 600.352539062 349.1953125 l 1
 600.708984375 349.549804688 l 1
 600.352539062 349.904296875 l 1
 500.5 449.30859375 l 1
 500.5 525 l 2
500 525 m 2
 500 449.100585938 l 1
 600 349.549804688 l 1
 500 250 l 1
 500 175 l 2
 500 0 400 -50 350 -75 c 2
 300 -100 l 1
 100 -100 l 1
 100 -25 l 1
 175 -25 300 0 300 175 c 2
 300 250 l 1
 400 350 l 1
 300 450 l 1
 300 525 l 2
 300 700 177.885742188 723.201171875 100 725 c 1
 100 800 l 1
 300 800 l 1
 350 775 l 2
 400 750 500 700 500 525 c 2
EndSplineSet
EndChar

StartChar: asciitilde
Encoding: 126 126 109
Width: 800
Flags: W
HStem: 400 100<376.816 450> 500 100<150 221.264>
LayerCount: 2
Fore
SplineSet
250 600 m 2x40
 400 600 325.624023438 500 450 500 c 1x80
 500 575 l 1
 600 575 l 1
 550 500 l 2x40
 522.264648438 458.397460938 500 400 400 400 c 2
 350 400 l 2x80
 200 400 265.978515625 502.758789062 150 500 c 1
 100 425 l 1
 0 425 l 1
 50 500 l 2
 77.7353515625 541.602539062 97.826171875 599.100585938 200 600 c 2
 250 600 l 2x40
EndSplineSet
EndChar

StartChar: exclamdown
Encoding: 161 161 110
Width: 800
Flags: W
HStem: 400 200<232.762 367.238>
VStem: 200 200<-163.314 179.811 432.762 567.238>
LayerCount: 2
Fore
SplineSet
300 -200 m 4
 250 -200 199.091796875 -149.9921875 200 -100 c 4
 203.598632812 97.9755859375 250 325 250 325 c 5
 350 325 l 5
 350 325 400 100 400 -100 c 4
 400 -150 350 -200 300 -200 c 4
EndSplineSet
Refer: 83 46 N 1 0 0 1 0 400 2
EndChar

StartChar: cent
Encoding: 162 162 111
Width: 800
Flags: W
HStem: 7.98633 104.215<400 448.231> 487.9 102.486<400 445.114>
VStem: 0 125<195.513 407.507> 200 200<-100 12.4736 136.176 463.824 585.653 700> 475 125<140.11 200 400 461.405>
CounterMasks: 1 38
LayerCount: 2
Fore
SplineSet
200 700 m 1
 400 700 l 1
 400 590.38671875 l 1
 547.767578125 559.775390625 600 462.536132812 600 400 c 1
 475 400 l 1
 475 446.635742188 445.975585938 473.918945312 400 487.900390625 c 1
 400 112.201171875 l 1
 445.9765625 126.260742188 475 153.604492188 475 200 c 1
 600 200 l 1
 600 136.323242188 563.884765625 36.6455078125 400 7.986328125 c 1
 400 -100 l 1
 200 -100 l 1
 200 13.43359375 l 1
 52.232421875 56.173828125 0 191.618164062 0 275 c 2
 0 325 l 2
 0 408.5234375 50.8974609375 541.501953125 200 585.412109375 c 1
 200 700 l 1
200 463.82421875 m 1
 154.024414062 427.909179688 125 371.635742188 125 325 c 2
 125 275 l 2
 125 228.364257812 154.024414062 172.090820312 200 136.17578125 c 1
 200 463.82421875 l 1
EndSplineSet
EndChar

StartChar: sterling
Encoding: 163 163 112
Width: 800
Flags: W
HStem: 0 100<0 100 300 600> 300 100<0 100 300 400> 700 100<314.452 380.324>
VStem: 100 200<100 300 400 688.763> 400.031 200<550 685.529>
LayerCount: 2
Fore
SplineSet
300 575 m 2
 300 400 l 1
 400 400 l 1
 400 300 l 1
 300 300 l 1
 300 100 l 1
 600 100 l 1
 600 0 l 1
 0 0 l 1
 0 100 l 1
 100 100 l 1
 100 300 l 1
 0 300 l 1
 0 400 l 1
 100 400 l 1
 100.03125 575 l 2
 100 725 150 800 350 800 c 0
 550 800 600.03125 725 600.03125 550 c 1
 400.03125 550 l 1
 400.03125 675 375 700 350 700 c 0
 325 700 297.456054688 675 300 575 c 2
EndSplineSet
EndChar

StartChar: currency
Encoding: 164 164 113
Width: 800
Flags: W
HStem: 100 100<200 400> 500 100<200 400>
VStem: 100 100<233.608 466.392> 400 100<233.729 466.271>
LayerCount: 2
Fore
SplineSet
600 100 m 1
 500 100 l 1
 375 225 l 1
 475 325 l 1
 600 200 l 1
 600 100 l 1
0 100 m 1
 0 200 l 1
 125 325 l 1
 225 225 l 1
 100 100 l 1
 0 100 l 1
600 600 m 1
 600 500 l 1
 475 375 l 1
 375 475 l 1
 500 600 l 1
 600 600 l 1
0 600 m 1
 100 600 l 1
 225 475 l 1
 125 375 l 1
 0 500 l 1
 0 600 l 1
300 100 m 0
 150 100 100 225 100 350 c 0
 100 475 150 600 300 600 c 0
 450 600 500 475 500 350 c 0
 500 225 450 100 300 100 c 0
200 350 m 0
 200 256.25 250 200 300 200 c 0
 350 200 400 256.491210938 400 350 c 0
 400 443.508789062 350 500 300 500 c 0
 250 500 200 443.75 200 350 c 0
0 600 m 1
 100 600 l 1
 158.69921875 541.30078125 l 1
 190.176757812 577.15625 235.944335938 600 300 600 c 0
 364.055664062 600 409.823242188 577.157226562 441.30078125 541.30078125 c 1
 500 600 l 1
 600 600 l 1
 600 500 l 1
 497.45703125 397.45703125 l 1
 499.1796875 381.80859375 500 365.90625 500 350 c 0
 500 334.09375 499.1796875 318.19140625 497.45703125 302.54296875 c 1
 600 200 l 1
 600 100 l 1
 500 100 l 1
 441.30078125 158.69921875 l 1
 409.823242188 122.842773438 364.055664062 100 300 100 c 0
 235.944335938 100 190.176757812 122.84375 158.69921875 158.69921875 c 1
 100 100 l 1
 0 100 l 1
 0 200 l 1
 102.54296875 302.54296875 l 1
 100.8203125 318.19140625 100 334.09375 100 350 c 0
 100 365.90625 100.8203125 381.80859375 102.54296875 397.45703125 c 1
 0 500 l 1
 0 600 l 1
300 500 m 0
 250 500 200 443.75 200 350 c 0
 200 256.25 250 200 300 200 c 0
 350 200 400 256.491210938 400 350 c 0
 400 443.508789062 350 500 300 500 c 0
EndSplineSet
EndChar

StartChar: yen
Encoding: 165 165 114
Width: 800
Flags: W
HStem: 0 21G<200 400> 0 21G<200 400> 200 100<0 200 400 600> 400 100<0 200 400 600> 780 20G<0 75.7588 505 600>
VStem: 200 200<0 200 300 400>
LayerCount: 2
Fore
SplineSet
0 800 m 1xbc
 75 800 l 1
 75.7587890625 799.325195312 l 1
 300 575 l 1
 525 800 l 1
 600 800 l 1
 600 700 l 1
 400 500 l 1
 600 500 l 1
 600 400 l 1
 400 400 l 1
 400 300 l 1
 600 300 l 1
 600 200 l 1
 400 200 l 1
 400 0 l 1
 200 0 l 1
 200 200 l 1
 0 200 l 1
 0 300 l 1
 200 300 l 1
 200 400 l 1
 0 400 l 1
 0 500 l 1
 200 500 l 1
 0 700 l 1
 0 800 l 1xbc
EndSplineSet
EndChar

StartChar: brokenbar
Encoding: 166 166 115
Width: 800
Flags: W
HStem: 780 20G<200 400>
VStem: 200 200<-100 300 400 800>
LayerCount: 2
Fore
SplineSet
200 400 m 1
 200 800 l 1
 400 800 l 1
 400 400 l 1
 200 400 l 1
200 -100 m 1
 200 300 l 1
 400 300 l 1
 400 -100 l 1
 200 -100 l 1
EndSplineSet
EndChar

StartChar: section
Encoding: 167 167 116
Width: 800
Flags: W
HStem: 0 100<75.0585 363.904> 200 100<228.578 361.709> 500 100<239.348 371.422> 700 100<236.096 524.941>
VStem: 0 200<326.541 469.57> 25 200<597.499 682.783> 375 200<117.217 202.034> 400 200<326.671 473.42>
LayerCount: 2
Fore
SplineSet
350 800 m 0xf4
 450 800 525 775 525 775 c 1
 525 675 l 1
 525 675 439.509765625 700 350 700 c 0
 300 700 225 692.616210938 225 650 c 0
 225 626.68359375 234.012695312 609.072265625 247.001953125 596.74609375 c 1
 264.080078125 598.8203125 281.749023438 599.98046875 300 600 c 0
 475 600 600 500 600 400 c 0xf5
 600 346.802734375 571.693359375 293.609375 515.09375 255.466796875 c 1
 554.202148438 230.666015625 575 195.534179688 575 150 c 0
 575 50 416.66015625 0 250 0 c 0
 150 0 75 25 75 25 c 1
 75 125 l 1
 75 125 160.490234375 100 250 100 c 0
 300 100 375 107.383789062 375 150 c 0
 375 172.881835938 366.325195312 190.276367188 353.7265625 202.568359375 c 1
 336.700195312 200.885742188 318.791992188 200 300 200 c 0
 125 200 0 300 0 400 c 0xfa
 0 451.764648438 33.556640625 503.442382812 90.142578125 541.314453125 c 1
 47.6376953125 566.25390625 25 602.465820312 25 650 c 0
 25 750 183.33984375 800 350 800 c 0xf4
300 500 m 0
 258.80859375 500 200 475 200 400 c 0xf9
 200 325 250 300 300 300 c 0
 350 300 400 325.193359375 400 400 c 0
 400 474.806640625 350 500 300 500 c 0
EndSplineSet
EndChar

StartChar: dieresis
Encoding: 168 168 117
Width: 800
Flags: W
HStem: 675 125<117.128 232.868 367.128 482.868>
VStem: 100 150<691.844 796.232> 350 150<691.844 796.232>
LayerCount: 2
Fore
SplineSet
150 800 m 2
 200 800 l 2
 218.450195312 800 250 795.7109375 250 750 c 0
 250 704.2890625 216.420898438 675 175 675 c 0
 133.579101562 675 100 704.2890625 100 750 c 0
 100 795.7109375 131.538085938 800 150 800 c 2
400 800 m 2
 450 800 l 2
 468.450195312 800 500 795.7109375 500 750 c 0
 500 704.2890625 466.420898438 675 425 675 c 0
 383.579101562 675 350 704.2890625 350 750 c 0
 350 795.7109375 381.538085938 800 400 800 c 2
EndSplineSet
EndChar

StartChar: copyright
Encoding: 169 169 118
Width: 800
Flags: W
HStem: 0 100<234.826 465.174> 200 100<312.62 420.694> 500 100<312.62 419.211> 700 100<252.95 463.012>
VStem: 0 100<252.551 539.17> 175 125<308.307 489.798> 400 100<302.701 325 475 497.486> 600 100<252.551 539.17>
LayerCount: 2
Fore
SplineSet
375 100 m 2
 475 100 600 200 600 325 c 2
 600 475 l 2
 600 600 475 700 375 700 c 2
 350 700 l 2
 250 700 100 600 100 475 c 2
 100 325 l 2
 100 200 225 100 325 100 c 2
 375 100 l 2
0 400 m 0
 0 625 175 800 350 800 c 0
 525 800 700 625 700 400 c 0
 700 175 530.397460938 -1.798828125 350 0 c 0
 169.602539062 1.798828125 0 175 0 400 c 0
500 475 m 1
 400 475 l 1
 400 500 375 500 350 500 c 0
 325 500 300 475 300 425 c 2
 300 375 l 2
 300 325 325 300 350 300 c 0
 375 300 400 300 400 325 c 1
 500 325 l 1
 500 275 450 200 350 200 c 0
 250 200 175 275 175 350 c 2
 175 450 l 2
 175 529.260742188 250 600 350 600 c 0
 450 600 500 517.803710938 500 475 c 1
EndSplineSet
EndChar

StartChar: ordfeminine
Encoding: 170 170 119
Width: 800
Flags: W
HStem: 400 100<305.231 394.114> 700 100<322.51 400>
VStem: 100 200<504.805 680.196> 400 200<503.304 700>
LayerCount: 2
Fore
SplineSet
600 800 m 5
 600 400 l 5
 400 400 l 6
 175 400 100 451.986328125 100 600 c 4
 100 750 175 800 400 800 c 6
 600 800 l 5
400 700 m 5
 325 700 300 675 300 600 c 4
 300 525 300 500 350 500 c 4
 397.8984375 500 400 525 400 600 c 6
 400 700 l 5
EndSplineSet
EndChar

StartChar: guillemotleft
Encoding: 171 171 120
Width: 800
Flags: W
HStem: 580 20G<180 300 480 600>
LayerCount: 2
Fore
SplineSet
300 550 m 5
 100 350 l 5
 300 150 l 5
 300 100 l 5
 200 100 l 5
 -50 350 l 5
 200 600 l 5
 300 600 l 5
 300 550 l 5
600 550 m 5
 400 350 l 5
 600 150 l 5
 600 100 l 5
 500 100 l 5
 250 350 l 5
 500 600 l 5
 600 600 l 5
 600 550 l 5
EndSplineSet
EndChar

StartChar: logicalnot
Encoding: 172 172 121
Width: 800
Flags: W
HStem: 100 300<400 600> 300 100<0 400>
VStem: 400 200<100 300>
LayerCount: 2
Fore
SplineSet
0 400 m 1x60
 600 400 l 1
 600 100 l 1
 400 100 l 1xa0
 400 300 l 1
 0 300 l 1
 0 400 l 1x60
EndSplineSet
EndChar

StartChar: registered
Encoding: 174 174 123
Width: 800
Flags: W
HStem: 0 100<234.826 465.174> 500 100<300 396.526> 700 100<252.95 463.012>
VStem: 0 100<252.551 539.17> 200 100<200.011 300.011 400.011 500> 401.194 98.8057<402.49 495.414> 600 100<252.551 539.17>
LayerCount: 2
Fore
SplineSet
500 250 m 1
 500 200 l 1
 425 200 l 1
 325 300 l 1
 300 300.010742188 l 1
 300 200.010742188 l 1
 200 200.010742188 l 1
 200 600.010742188 l 1
 325 600 l 2
 450 599.989257812 500 550 500 475 c 0
 500 400 475 350 400 350 c 1
 500 250 l 1
300 400.010742188 m 1
 350 400.010742188 l 2
 375 400 402.361328125 399.999023438 401.194335938 449.40625 c 0
 400 500 375 500 350 500 c 2
 300 500 l 1
 300 400.010742188 l 1
375 100 m 2
 475 100 600 200 600 325 c 2
 600 475 l 2
 600 600 475 700 375 700 c 2
 350 700 l 2
 250 700 100 600 100 475 c 2
 100 325 l 2
 100 200 225 100 325 100 c 2
 375 100 l 2
0 400 m 0
 0 625 175 800 350 800 c 0
 525 800 700 625 700 400 c 0
 700 175 530.397460938 -1.798828125 350 0 c 0
 169.602539062 1.798828125 0 175 0 400 c 0
EndSplineSet
EndChar

StartChar: macron
Encoding: 175 175 124
Width: 800
Flags: W
HStem: 700 100<100 500>
LayerCount: 2
Fore
SplineSet
100 700 m 1
 100 800 l 1
 500 800 l 1
 500 700 l 1
 100 700 l 1
EndSplineSet
EndChar

StartChar: degree
Encoding: 176 176 125
Width: 800
Flags: W
HStem: 399.807 100<303.397 394.176> 699.807 100<293.807 406.193>
VStem: 100 175<521.293 683.253> 425 175<525.521 683.276>
LayerCount: 2
Fore
SplineSet
350 399.806640625 m 4
 175 399.806640625 100 499.807617188 100 599.806640625 c 4
 100 699.806640625 175 799.622070312 350 799.806640625 c 4
 525 799.806640625 600 699.806640625 600 599.806640625 c 4
 600 499.806640625 550 399.806640625 350 399.806640625 c 4
275 599.806640625 m 4
 275 524.807617188 316.192382812 500.70703125 350 499.806640625 c 4
 374.991210938 499.142578125 425 525.193359375 425 600 c 4
 425 674.806640625 400 699.806640625 350 699.806640625 c 4
 300 699.806640625 275 674.806640625 275 599.806640625 c 4
EndSplineSet
EndChar

StartChar: plusminus
Encoding: 177 177 126
Width: 800
Flags: W
HStem: 100 100<0 600> 500 100<0 200 400 600> 780 20G<200 400>
VStem: 200 200<300 500 600 800>
LayerCount: 2
Fore
SplineSet
200 800 m 5
 400 800 l 5
 400 600 l 5
 600 600 l 5
 600 500 l 5
 400 500 l 5
 400 300 l 5
 200 300 l 5
 200 500 l 5
 0 500 l 5
 0 600 l 5
 200 600 l 5
 200 800 l 5
0 100 m 5
 0 200 l 5
 600 200 l 5
 600 100 l 5
 0 100 l 5
EndSplineSet
EndChar

StartChar: uni00B2
Encoding: 178 178 127
Width: 800
Flags: W
HStem: 300 100<250 500> 780 20G<262.5 337.5>
VStem: 100 100<625 672.591> 375 125<594.012 690.08>
LayerCount: 2
Fore
SplineSet
100 625 m 5
 100 750 225 800 300 800 c 4
 375 800 500 750 500 650 c 4
 500 571.626953125 394.721679688 508.541015625 350 475 c 6
 250 400 l 5
 500 400 l 5
 500 300 l 5
 100 300 l 5
 100 400 l 5
 300 550 l 6
 366.666992188 600 375 625 375 650 c 4
 375 675 352.1015625 703.81640625 300 700 c 4
 225.200195312 694.520507812 200 650 200 625 c 5
 100 625 l 5
EndSplineSet
EndChar

StartChar: uni00B3
Encoding: 179 179 128
Width: 800
Flags: W
HStem: 300 100<224.62 366.708> 500 100<300 366.925> 700 100<224.739 364.908>
VStem: 100 100<427.955 475 625 673.354> 375 125<414.589 487.933 611.448 688.875>
CounterMasks: 1 e0
LayerCount: 2
Fore
SplineSet
300 500 m 5
 300 600 l 5
 350 600 375 625 375 650 c 4
 375 675 350 700 300 700 c 4
 225 700 200 650 200 625 c 5
 100 625 l 5
 100 750 225 800 300 800 c 4
 375 800 500 750 500 650 c 4
 500 600 475 575 425 550 c 5
 474.8125 533.995117188 501.97265625 503.5234375 500 450 c 4
 496.282226562 349.114257812 375 300 300 300 c 4
 225 300 98.7275390625 354.202148438 100 475 c 5
 200 475 l 5
 200 450 225 400 300 400 c 4
 350 400 375 425 375 450 c 4
 375 475 350 500 300 500 c 5
EndSplineSet
EndChar

StartChar: acute
Encoding: 180 180 129
Width: 800
Flags: W
HStem: 625 175
VStem: 200 200
LayerCount: 2
Fore
SplineSet
325 800 m 1
 400 800 l 1
 400 725 l 1
 300 625 l 1
 200 625 l 1
 200 675 l 1
 325 800 l 1
EndSplineSet
EndChar

StartChar: mu
Encoding: 181 181 130
Width: 800
Flags: W
HStem: 0 100<240.098 356.261> 580 20G<0 200 400 575>
VStem: 0 200<-200 11.7402 140.772 600> 400 175<142.832 600>
LayerCount: 2
Fore
SplineSet
0 600 m 1
 200 600 l 1
 200 225 l 2
 200 150 250 100 300 100 c 0
 350 100 400 150.385742188 400 225 c 2
 400 600 l 1
 575 600 l 1
 575 225 l 2
 575 125 500 0 300 0 c 0
 263.286132812 0 229.974609375 4.244140625 200 11.740234375 c 1
 200 -200 l 1
 0 -200 l 1
 0 225 l 1
 0 600 l 1
EndSplineSet
EndChar

StartChar: paragraph
Encoding: 182 182 131
Width: 800
Flags: W
HStem: 700 100<400 500>
VStem: 0 400<436.415 663.585> 300 100<-200 300> 500 200<-200 700>
LayerCount: 2
Fore
SplineSet
300 800 m 2xb0
 700 800 l 1
 700 -200 l 1
 500 -200 l 1
 500 700 l 1
 400 700 l 1
 400 -200 l 1
 300 -200 l 1
 300 300 l 1xb0
 100 300 0 400 0 550 c 0xd0
 0 700 100 800 300 800 c 2xb0
EndSplineSet
EndChar

StartChar: cedilla
Encoding: 184 184 133
Width: 800
Flags: W
HStem: -200 200<300 400> -200 75<100 200>
VStem: 300 200<-109.46 -33.5107>
LayerCount: 2
Fore
SplineSet
250 -25 m 1x60
 250 0 l 1
 400 0 l 1
 400 0 500 -7.908203125 500 -100 c 0
 500 -200 400 -200 400 -200 c 1xa0
 100 -200 l 1
 100 -125 l 1
 200 -125 l 1
 200 -125 300 -125 300 -75 c 0
 300 -25 250 -25 250 -25 c 1x60
EndSplineSet
EndChar

StartChar: uni00B9
Encoding: 185 185 134
Width: 800
Flags: W
HStem: 300 100<100 200 300 400> 780 20G<230 300>
VStem: 200 100<400 600>
LayerCount: 2
Fore
SplineSet
100 300 m 1
 100 400 l 1
 200 400 l 1
 200 600 l 1
 100 600 l 1
 100 650 l 1
 250 800 l 1
 300 800 l 1
 300 400 l 1
 400 400 l 1
 400 300 l 1
 100 300 l 1
EndSplineSet
EndChar

StartChar: guillemotright
Encoding: 187 187 136
Width: 800
Flags: W
HStem: 580 20G<0 120 300 420>
LayerCount: 2
Fore
SplineSet
300 550 m 5
 300 600 l 5
 400 600 l 5
 650 350 l 5
 400 100 l 5
 300 100 l 5
 300 150 l 5
 500 350 l 5
 300 550 l 5
0 550 m 5
 0 600 l 5
 100 600 l 5
 350 350 l 5
 100 100 l 5
 0 100 l 5
 0 150 l 5
 200 350 l 5
 0 550 l 5
EndSplineSet
EndChar

StartChar: questiondown
Encoding: 191 191 140
Width: 800
Flags: W
HStem: -200 100<232.164 370.26> 400 200<232.762 367.238>
VStem: 0 200<-68.87 91.1601> 200 200<432.762 567.238> 400 200<-72.7379 50>
LayerCount: 2
Fore
SplineSet
200 300 m 1xd0
 400 300 l 1
 401.798828125 83.8076171875 200 200 200 0 c 0
 200 -50 224.614257812 -97.4560546875 300 -100 c 0
 374.95703125 -102.530273438 400 -50 400 0 c 2
 400 50 l 1
 600 50 l 1
 600 0 l 2
 598.727539062 -98.341796875 500 -200 300 -200 c 0
 175 -200 -1.2802734375 -150.380859375 0 0 c 0xe8
 1.798828125 211.319335938 200 125 200 300 c 1xd0
EndSplineSet
Refer: 83 46 N 1 0 0 1 0 400 2
EndChar

StartChar: AE
Encoding: 198 198 147
Width: 800
Flags: W
HStem: 0 100<500 700> 200 100<200 300> 400 100<500 675> 700 100<500 700>
VStem: 0 200<0 200 300 581.399> 300 200<100 200 300 400 500 700>
LayerCount: 2
Fore
SplineSet
200 800 m 1
 300 800 l 1
 400 800 l 1
 700 800 l 1
 700 700 l 1
 500 700 l 1
 500 500 l 1
 675 500 l 1
 675 400 l 1
 500 400 l 1
 500 100 l 1
 700 100 l 1
 700 0 l 1
 500 0 l 1
 300 0 l 1
 300 200 l 1
 200 200 l 1
 200 0 l 1
 0 0 l 1
 0 425 l 2
 0 600 100 775 200 800 c 1
300 700 m 1
 201.272460938 621.569335938 200 542.810546875 200 425 c 2
 200 300 l 1
 300 300 l 1
 300 700 l 1
EndSplineSet
EndChar

StartChar: Eth
Encoding: 208 208 157
Width: 800
Flags: W
HStem: 0 100<300 383.039> 400 100<0 100 300 375> 700 100<300 383.039>
VStem: 100 200<100 400 500 700> 425 175<174.088 625.912>
LayerCount: 2
Fore
SplineSet
100 800 m 1
 225 800 l 1
 250 800 l 2
 475 800 600 700 600 475 c 2
 600 325 l 2
 600 100 475 0 250 0 c 2
 225 0 l 1
 100 0 l 1
 100 400 l 1
 0 400 l 1
 0 500 l 1
 100 500 l 1
 100 800 l 1
300 700 m 1
 300 628 l 0
 300 500 l 1
 375 500 l 1
 375 400 l 1
 300 400 l 1
 300 100 l 1
 325 100 l 2
 400 100 425 175 425 300 c 2
 425 500 l 2
 425 625 406.74609375 700 325 700 c 2
 300 700 l 1
EndSplineSet
EndChar

StartChar: multiply
Encoding: 215 215 164
Width: 800
Flags: W
LayerCount: 2
Fore
SplineSet
125 650 m 1
 300 475 l 1
 475 650 l 1
 600 650 l 1
 600 575 l 1
 375 350 l 1
 600 125 l 1
 600 50 l 1
 475 50 l 1
 300 225 l 1
 125 50 l 1
 0 50 l 1
 0 125 l 1
 225 350 l 1
 0 575 l 1
 0 650 l 1
 125 650 l 1
EndSplineSet
EndChar

StartChar: Oslash
Encoding: 216 216 165
Width: 800
Flags: W
HStem: 0 100<242.054 353.918> 700 100<246.082 357.946>
VStem: 0 200<380 600.598> 400 200<199.402 420>
LayerCount: 2
Fore
SplineSet
300 800 m 0
 369.360351562 800 424.421875 783.325195312 467.470703125 754.458984375 c 1
 500 800 l 1
 600 800 l 1
 600 700 l 1
 559.30078125 643.021484375 l 1
 587.989257812 580.684570312 600 504.856445312 600 425 c 2
 600 375 l 2
 600 175 525 0 300 0 c 0
 230.639648438 0 175.578125 16.6748046875 132.529296875 45.541015625 c 1
 100 0 l 1
 0 0 l 1
 0 100 l 1
 40.69921875 156.978515625 l 1
 12.0107421875 219.315429688 0 295.143554688 0 375 c 2
 0 425 l 2
 0 625 75 800 300 800 c 0
300 700 m 0
 200 700 200 550 200 425 c 2
 200 380 l 1
 380.576171875 632.806640625 l 1
 366.479492188 673.1015625 342.212890625 700 300 700 c 0
400 420 m 1
 219.423828125 167.193359375 l 1
 233.520507812 126.8984375 257.787109375 100 300 100 c 0
 400 100 400 250 400 375 c 2
 400 420 l 1
EndSplineSet
EndChar

StartChar: Thorn
Encoding: 222 222 171
Width: 800
Flags: W
HStem: 0 21G<0 200> 0 21G<0 200> 200 100<200 366.114> 500 100<200 366.114> 780 20G<0 200>
VStem: 0 200<0 200 300 500 600 800> 400 200<326.541 470.423>
LayerCount: 2
Fore
SplineSet
0 0 m 1xbe
 0 800 l 1
 200 800 l 1
 200 600 l 1
 350 600 l 2
 525 600 600 500 600 400 c 0
 600 300 525 200 350 200 c 2
 200 200 l 1
 200 0 l 1
 0 0 l 1xbe
200 500 m 1
 200 300 l 1
 300 300 l 2
 350 300 400 325 400 400 c 0
 400 475 348.28515625 500 300 500 c 2
 200 500 l 1
EndSplineSet
EndChar

StartChar: germandbls
Encoding: 223 223 172
Width: 800
Flags: W
HStem: 0 100<300 368.327> 400 100<300 370.102> 700 100<227.301 372.161>
VStem: 0 200<-100 673.354> 400 200<132.458 369.616> 400 175<525.234 673.354>
LayerCount: 2
Fore
SplineSet
200 625 m 2xf4
 200 -100 l 1
 0 -100 l 1
 0 625 l 2
 0 750 100 800 300 800 c 0
 500 800 575 750 575 625 c 2
 575 575 l 2xf4
 575 515.569335938 558.564453125 473.733398438 519.609375 445.873046875 c 1
 577.291015625 404.727539062 600 343.658203125 600 275 c 2
 600 225 l 2
 600 100 525 0 300 0 c 1
 300 100 l 1
 375 100 400 155.921875 400 225 c 2
 400 275 l 2xf8
 400 350 375 400 300 400 c 1
 300 500 l 1
 375 500 400 550 400 575 c 2
 400 625 l 2
 400 650 375 700 300 700 c 0
 225 700 200 650 200 625 c 2xf4
EndSplineSet
EndChar

StartChar: ae
Encoding: 230 230 176
Width: 800
Flags: W
HStem: 0 100<111.125 194.329> 0 21G<414.384 500> 300 100<115.226 200 400 500> 500 100<25.0364 214.004 414.756 485.626>
VStem: 0 100<109.451 282.424> 200 200<118.707 300> 250 150<400 465.896> 500 100<107.89 200 400 487.96>
LayerCount: 2
Fore
SplineSet
125 600 m 0xbb
 179.010742188 600 250 600 300 550 c 1
 325 575 388.888671875 599.935546875 450 600 c 0
 550 600 600 475 600 400 c 2
 600 300 l 1
 400 300 l 1
 400 225 l 2
 400 150 426.986328125 104.498046875 450 100 c 0xbd
 474.536132812 95.205078125 500 125.385742188 500 200 c 1
 600 200 l 1
 600 125 550 0 450 0 c 0x7d
 378.767578125 0 339.78125 18.6953125 300 50 c 1
 278.842773438 20.3076171875 219.862304688 0 150 0 c 0
 50 0 0 75 0 175 c 2
 0 225 l 2
 0 325 100 400 150 400 c 2
 250 400 l 1
 250 450 220.673828125 497.028320312 125 500 c 0
 73.3466796875 501.604492188 25 475 25 475 c 1
 25 575 l 1
 25 575 75 600 125 600 c 0xbb
450 500 m 0
 425 500 400 475 400 400 c 1x3b
 500 400 l 1
 500 475 475 500 450 500 c 0
200 300 m 1xbd
 125 300 100 275 100 225 c 2
 100 175 l 2
 100 125 125 100 150 100 c 0
 183.505859375 100 200 125 200 150 c 2
 200 225 l 1
 200 300 l 1xbd
EndSplineSet
EndChar

StartChar: eth
Encoding: 240 240 183
Width: 800
Flags: W
HStem: 0 100<242.472 357.528> 400 100<244.471 309.363> 780 20G<80 100 359.999 525>
VStem: 0 200<142.832 357.154> 400 200<142.832 357.638>
LayerCount: 2
Fore
SplineSet
100 800 m 1
 100 800 165.073242188 773.393554688 248.185546875 724.09375 c 1
 400 800 l 1
 525 800 l 1
 525 750 l 1
 345.4765625 660.23828125 l 1
 467.165039062 571.541992188 590.225585938 443.743164062 599.474609375 285.873046875 c 0
 599.793945312 282.22265625 600 278.591796875 600 275 c 2
 600 225 l 2
 600 125 475 0 300 0 c 0
 125 0 0 125 0 225 c 2
 0 275 l 2
 0 375 125 499.907226562 300 500 c 0
 303.58203125 500.001953125 307.109375 499.869140625 310.6484375 499.767578125 c 1
 284.352539062 535.70703125 254.711914062 569.559570312 224.986328125 599.994140625 c 1
 25 500 l 1
 0 500 l 1
 0 600 l 1
 146.71875 673.359375 l 1
 92.0625 720.71484375 50 750 50 750 c 1
 100 800 l 1
300 400 m 0
 250 400 200 350 200 275 c 2
 200 225 l 2
 200 150 250 100 300 100 c 0
 350 100 400 150.385742188 400 225 c 2
 400 275 l 2
 400 350 350 400 300 400 c 0
EndSplineSet
EndChar

StartChar: divide
Encoding: 247 247 187
Width: 800
Flags: W
HStem: 0 200<232.762 367.238> 300 100<0 600> 500 200<232.762 367.238>
VStem: 200 200<32.7622 167.238 532.762 667.238>
CounterMasks: 1 e0
LayerCount: 2
Fore
SplineSet
0 400 m 1
 600 400 l 1
 600 300 l 1
 0 300 l 1
 0 400 l 1
200 100 m 0
 200 155.228515625 244.771484375 200 300 200 c 0
 355.228515625 200 400 155.228515625 400 100 c 0
 400 44.771484375 355.228515625 0 300 0 c 0
 244.771484375 0 200 44.771484375 200 100 c 0
200 600 m 0
 200 655.228515625 244.771484375 700 300 700 c 0
 355.228515625 700 400 655.228515625 400 600 c 0
 400 544.771484375 355.228515625 500 300 500 c 0
 244.771484375 500 200 544.771484375 200 600 c 0
EndSplineSet
EndChar

StartChar: oslash
Encoding: 248 248 188
Width: 800
Flags: W
HStem: 0 100<239.333 357.528> 500 100<244.471 360.404>
VStem: 0 200<300 457.154> 400 200<142.832 300>
LayerCount: 2
Fore
SplineSet
300 600 m 0
 360.776367188 600.032226562 415.499023438 584.943359375 461.072265625 561.072265625 c 1
 500 600 l 1
 600 600 l 1
 600 500 l 1
 568.00390625 468.00390625 l 1
 588.606445312 437.45703125 600 405.098632812 600 375 c 2
 600 225 l 2
 600 125 475 0 300 0 c 0
 239.235351562 0 184.521484375 15.0908203125 138.953125 38.953125 c 1
 100 0 l 1
 0 0 l 1
 0 100 l 1
 32.00390625 132.00390625 l 1
 11.396484375 162.544921875 0 194.8984375 0 225 c 2
 0 375 l 2
 -0 475 125 599.907226562 300 600 c 0
300 500 m 0
 250 500 200 450 200 375 c 2
 200 300 l 1
 367.234375 467.234375 l 1
 348.659179688 488.067382812 324.3515625 500 300 500 c 0
400 300 m 1
 232.765625 132.765625 l 1
 251.340820312 111.932617188 275.6484375 100 300 100 c 0
 350 100 400 150.385742188 400 225 c 2
 400 300 l 1
EndSplineSet
EndChar

StartChar: thorn
Encoding: 254 254 190
Width: 800
Flags: W
HStem: 0 100<200 358.13> 500 100<200 358.13> 780 20G<0 200>
VStem: 0 200<-200 0 100 500 600 800> 400 200<143.011 457.168>
LayerCount: 2
Fore
SplineSet
0 800 m 1
 200 800 l 1
 200 600 l 1
 350 600 l 2
 524.999023438 600 600 475 600 375 c 2
 600 225 l 2
 600 125 524.999023438 0.1845703125 350 0 c 2
 200 0 l 1
 200 -200 l 1
 0 -200 l 1
 0 600 l 1
 0 800 l 1
200 500 m 1
 200 100 l 1
 300 100 l 2
 348.284179688 100 400 150 400 225 c 2
 400 375 l 2
 400 450 350 500 300 500 c 2
 200 500 l 1
EndSplineSet
EndChar

StartChar: uni1D00
Encoding: 7424 7424 192
Width: 800
Flags: W
HStem: 0 21G<0 200 400 600> 0 21G<0 200 400 600> 200 100<200 400> 580 20G<175 425>
VStem: 0 200<0 200 300 372.184> 400 200<0 200 300 371.484>
LayerCount: 2
Fore
SplineSet
200 300 m 1x3c
 400 300 l 1
 400 350 350 450 300 500 c 1
 250 450 200 350 200 300 c 1x3c
0 0 m 1xbc
 0 300 l 2
 0 376.658203125 150 550 200 600 c 1
 400 600 l 1
 450 550 600 375 600 300 c 2
 600 0 l 1
 400 0 l 1
 400 200 l 1
 200 200 l 1
 200 0 l 1
 0 0 l 1xbc
EndSplineSet
EndChar

StartChar: uni0000
Encoding: 0 0 193
Width: 800
Flags: W
HStem: -200 100<100 600> 0 21G<336.193 363.807> 0 21G<336.193 363.807> 700 100<310.347 389.694> 900 100<100 600>
VStem: 0 100<-100 900> 200 100<550 694.168> 300 100<12.0695 187.931> 400 100<484.253 694.23> 600 100<-100 900>
LayerCount: 2
Fore
SplineSet
300 100 m 0xdd40
 300 155.228515625 322.385742188 200 350 200 c 0
 377.614257812 200 400 155.228515625 400 100 c 0
 400 44.771484375 377.614257812 0 350 0 c 0
 322.385742188 0 300 44.771484375 300 100 c 0xdd40
400 300 m 1x9ec0
 300 300 l 1x9d40
 300 525 400 400 400 600 c 0
 400 650 400 700 350 700 c 0
 300 700 300 650 300 600 c 2
 300 550 l 1
 200 550 l 1
 200 600 l 2
 201.272460938 698.341796875 225 800 350 800 c 0
 475 800 501.280273438 750.380859375 500 600 c 0
 498.201171875 388.680664062 400 475 400 300 c 1x9ec0
0 1000 m 1
 700 1000 l 1
 700 -200 l 1
 0 -200 l 1
 0 1000 l 1
100 900 m 1
 100 -100 l 1
 600 -100 l 1
 600 900 l 1
 100 900 l 1
EndSplineSet
EndChar

StartChar: uni1D04
Encoding: 7428 7428 196
Width: 800
Flags: W
HStem: 0 100<237.687 373.262> 500 100<236.554 373.262>
VStem: 0 200<144.751 455.42> 400 200<127.313 200 400 472.687>
LayerCount: 2
Fore
SplineSet
400 200 m 1
 600 200 l 1
 600 150 575 0 300 0 c 0
 75 0 0 125 0 275 c 2
 0 325 l 2
 0 475.385742188 75 600 300 600 c 0
 575 600 600 450 600 400 c 1
 400 400 l 1
 400 425 400 500 300 500 c 0
 200 500 200 400 200 325 c 2
 200 275 l 2
 200 204.703125 200 100 300 100 c 0
 400 100 400 175 400 200 c 1
EndSplineSet
EndChar

StartChar: uni1D05
Encoding: 7429 7429 197
Width: 800
Flags: W
HStem: 0 100<200 324.689> 500 100<200 324.689>
VStem: 0 200<100 500> 400 200<177.052 423.126>
LayerCount: 2
Fore
SplineSet
225 600 m 2
 450 600 600 500 600 300 c 0
 600 100 450 0 225 0 c 2
 200 0 l 1
 0 0 l 1
 0 600 l 1
 200 600 l 1
 225 600 l 2
225 100 m 2
 349.993164062 101.276367188 400 175 400 300 c 0
 400 425 350 500 225 500 c 2
 200 500 l 1
 200 100 l 1
 225 100 l 2
EndSplineSet
EndChar

StartChar: uni1D07
Encoding: 7431 7431 198
Width: 800
Flags: W
HStem: 0 100<200 600> 300 100<200 500> 500 100<200 600>
VStem: 0 200<100 300 400 500>
LayerCount: 2
Fore
SplineSet
0 600 m 1
 600 600 l 1
 600 500 l 1
 200 500 l 1
 200 400 l 1
 500 400 l 1
 500 300 l 1
 200 300 l 1
 200 100 l 1
 600 100 l 1
 600 0 l 1
 0 0 l 1
 0 600 l 1
EndSplineSet
EndChar

StartChar: dcaron
Encoding: 271 271 213
Width: 800
VWidth: 1000
Flags: W
HStem: 0 100<220.304 300> 500 100<220.304 300> 500 300 780 20G<300 450>
VStem: 0 175<147.656 452.344> 300 150<100 500 600 800> 550 150<587.5 725>
LayerCount: 2
Fore
SplineSet
300 600 m 1xde
 300 800 l 1
 450 800 l 1
 450 0 l 1
 225 0 l 2
 103.973632812 0 0 125 0 225 c 2
 0 375 l 2
 0 475 100 600 225 600 c 2
 300 600 l 1xde
300 500 m 1
 225 500 175 450 175 375 c 2
 175 225 l 2
 175 150 225 100 300 100 c 1
 300 500 l 1
EndSplineSet
Refer: 506 700 N 1 0 0 1 500 0 2
EndChar

StartChar: uni026A
Encoding: 618 618 226
Width: 800
Flags: W
HStem: 0 100<0 200 400 600> 500 100<0 200 400 600>
VStem: 200 200<100 500>
LayerCount: 2
Fore
SplineSet
0 600 m 1
 600 600 l 1
 600 500 l 1
 400 500 l 1
 400 100 l 1
 600 100 l 1
 600 0 l 1
 0 0 l 1
 0 100 l 1
 200 100 l 1
 200 500 l 1
 0 500 l 1
 0 600 l 1
EndSplineSet
EndChar

StartChar: uni1D1C
Encoding: 7452 7452 231
Width: 800
Flags: W
HStem: 0 100<245.789 354.211> 580 20G<0 200 400 600>
VStem: 0 200<171.454 600> 400 200<171.454 600>
LayerCount: 2
Fore
SplineSet
0 600 m 1
 200 600 l 1
 200 300 l 2
 200 212.5 212.5 100 300 100 c 0
 387.5 100 400 212.5 400 300 c 2
 400 600 l 1
 600 600 l 1
 600 325 l 2
 600 225 574.999023438 0 300 0 c 0
 25.0009765625 0 0 225 0 325 c 2
 0 600 l 1
EndSplineSet
EndChar

StartChar: uni0274
Encoding: 628 628 237
Width: 800
Flags: W
HStem: 0 21G<0 200 458.077 600> 0 21G<0 200 458.077 600> 580 20G<0 191.364 400 600>
VStem: 0 200<0 325> 400 200<325 600>
LayerCount: 2
Fore
SplineSet
175 600 m 1xb8
 400 325 l 1
 400 600 l 1
 600 600 l 1
 600 0 l 1
 475 0 l 1
 200 325 l 1
 200 0 l 1
 0 0 l 1
 0 600 l 1
 175 600 l 1xb8
EndSplineSet
EndChar

StartChar: uni028F
Encoding: 655 655 238
Width: 800
Flags: W
HStem: 0 21G<200 400> 0 21G<200 400> 580 20G<0 200 400 600>
VStem: 200 200<0 225>
LayerCount: 2
Fore
SplineSet
600 600 m 1xb0
 600 400 400 225 400 225 c 1
 400 0 l 1
 200 0 l 1
 200 225 l 1
 200 225 0 400 0 600 c 1
 200 600 l 1
 200 505.71875 300 400 300 400 c 1
 300 400 400 505.71875 400 600 c 1
 600 600 l 1xb0
EndSplineSet
EndChar

StartChar: uni1D0F
Encoding: 7439 7439 241
Width: 800
Flags: W
HStem: 0 100<236.554 363.446> 500 100<236.554 363.446>
VStem: -0 200<145.144 455.249> 400 200<144.751 455.249>
LayerCount: 2
Fore
SplineSet
400 275 m 2
 400 325 l 2
 400 400 400 500 300 500 c 0
 200 500 200 400 200 325 c 2
 200 275 l 2
 200 200 200 100 300 100 c 0
 400 100 400 200 400 275 c 2
-0 275 m 2
 -0 325 l 2
 -0 475 75 600 300 600 c 0
 525 600 600 475 600 325 c 2
 600 275 l 2
 600 125 525 0 300 0 c 0
 75 0 -0 125.88671875 -0 275 c 2
EndSplineSet
EndChar

StartChar: dcroat
Encoding: 273 273 249
Width: 800
Flags: W
HStem: 0 100<241.87 300> 400 100<241.87 300> 600 100<100 300 500 600> 780 20G<300 500>
VStem: 0 200<142.832 356.989> 300 200<100 400 500 600 700 800>
LayerCount: 2
Fore
SplineSet
300 800 m 1
 500 800 l 1
 500 700 l 1
 600 700 l 1
 600 600 l 1
 500 600 l 1
 500 0 l 1
 250 0 l 2
 75.0009765625 0 0 125 0 225 c 2
 0 275 l 2
 0 375 75.0009765625 499.815429688 250 500 c 2
 300 500 l 1
 300 600 l 1
 100 600 l 1
 100 700 l 1
 300 700 l 1
 300 800 l 1
300 400 m 1
 251.715820312 400 200 350 200 275 c 2
 200 225 l 2
 200 150 250 100 300 100 c 1
 300 400 l 1
EndSplineSet
EndChar

StartChar: fraction
Encoding: 8260 8260 250
Width: 800
Flags: W
HStem: 0 21G<100 144> 0 21G<100 144> 580 20G<556 600>
LayerCount: 2
Fore
SplineSet
125 0 m 1xa0
 100 0 l 1
 100 100 l 1
 575 600 l 1
 600 600 l 1
 600 500 l 1
 125 0 l 1xa0
EndSplineSet
EndChar

StartChar: uni2070
Encoding: 8304 8304 251
Width: 800
Flags: W
HStem: 400 100<229.537 370.463> 700 100<229.537 370.463>
VStem: 100 100<526.541 673.459> 400 100<526.58 673.42>
LayerCount: 2
Fore
SplineSet
300 400 m 4
 150 400 100 500 100 600 c 4
 100 700 150 800 300 800 c 4
 450 800 500 700 500 600 c 4
 500 500 450 400 300 400 c 4
200 600 m 4
 200 525 250 500 300 500 c 4
 350 500 400 525.193359375 400 600 c 4
 400 674.806640625 350 700 300 700 c 4
 250 700 200 675 200 600 c 4
EndSplineSet
EndChar

StartChar: uni2074
Encoding: 8308 8308 256
Width: 800
Flags: W
HStem: 400 100<200 275 425 500> 780 20G<330 425>
VStem: 275 150<300 400> 300 125<500 625>
LayerCount: 2
Fore
SplineSet
300 500 m 5xd0
 300 625 l 5
 201.66796875 526.66796875 l 5
 200 500 l 5
 300 500 l 5xd0
275 300 m 5xe0
 275 400 l 5xe0
 100 400 l 5
 100 550 l 5
 350 800 l 5
 425 800 l 5
 425 500 l 5xd0
 500 500 l 5
 500 400 l 5
 425 400 l 5
 425 300 l 5
 275 300 l 5xe0
EndSplineSet
EndChar

StartChar: OE
Encoding: 338 338 265
Width: 800
Flags: W
HStem: 0 100<245.769 300 500 700> 400 100<500 675> 700 100<245.769 300 500 700>
VStem: 0 200<176.023 623.977> 300 200<100 400 500 700>
LayerCount: 2
Fore
SplineSet
275 800 m 2
 375 800 l 1
 700 800 l 1
 700 700 l 1
 500 700 l 1
 500 500 l 1
 675 500 l 1
 675 400 l 1
 500 400 l 1
 500 100 l 1
 700 100 l 1
 700 0 l 1
 375 0 l 1
 275 0 l 2
 50 0 0 175 0 375 c 2
 0 425 l 2
 0 625 50 800 275 800 c 2
300 100 m 1
 300 700 l 1
 225 700 200 600 200 475 c 2
 200 325 l 2
 200 200 225 100 300 100 c 1
EndSplineSet
EndChar

StartChar: oe
Encoding: 339 339 266
Width: 800
Flags: W
HStem: 0 100<126.646 209.944> 0 21G<414.384 500> 300 100<400 500> 500 100<125.856 211.129 414.756 485.626>
VStem: 0 100<128.503 475.18> 225 175<118.998 300 400 491.042> 500 100<107.89 200 400 487.96>
LayerCount: 2
Fore
SplineSet
175 600 m 0xbe
 237.219726562 600 263.565429688 574.86328125 300 550 c 1
 325 575 388.888671875 599.935546875 450 600 c 0
 550 600 600 475 600 400 c 2
 600 300 l 1
 400 300 l 1
 400 225 l 2
 400 150 426.986328125 104.498046875 450 100 c 0xbe
 474.536132812 95.205078125 500 125.385742188 500 200 c 1
 600 200 l 1
 600 125 550 0 450 0 c 0x7e
 378.767578125 0 339.78125 18.6953125 300 50 c 1
 266.903320312 29.2138671875 239.169921875 0 175 0 c 0
 50 0 0 125 0 225 c 2
 0 375 l 2
 0 475 50 600 175 600 c 0xbe
175 500 m 0
 125 500 100 450 100 375 c 2
 100 225 l 2
 100 150 128.470703125 100.899414062 175 100 c 0
 199.995117188 99.5166015625 225 125.385742188 225 200 c 2
 225 400 l 2
 225 475 200 500 175 500 c 0
450 500 m 0
 425 500 400 475 400 400 c 1
 500 400 l 1
 500 475 475 500 450 500 c 0
EndSplineSet
EndChar

StartChar: Eng
Encoding: 330 330 267
Width: 800
Flags: W
HStem: 0 21G<0 200> 0 21G<0 200> 700 100.027<200 296.143>
VStem: 0 200<0 700> 400 200<-66.0156 581.23>
LayerCount: 2
Fore
SplineSet
600 425 m 2xb8
 600 0 l 2
 600 -200 300 -200 300 -200 c 1
 300 -100 l 1
 300 -100 400 -100 400 0 c 2x78
 400 425 l 2
 400 625 325 700 200 700 c 1
 200 0 l 1
 0 0 l 1
 0 800 l 1
 200 800.02734375 l 2
 475 800.109375 600 725 600 425 c 2xb8
EndSplineSet
EndChar

StartChar: eng
Encoding: 331 331 268
Width: 800
Flags: W
HStem: 0 21G<0 200> 0 21G<0 200> 500 100.027<200 296.143>
VStem: 0 200<0 500> 400 200<-66.0156 381.23>
LayerCount: 2
Fore
SplineSet
600 225 m 2xb8
 600 0 l 2
 600 -200 300 -200 300 -200 c 1
 300 -100 l 1
 300 -100 400 -100 400 0 c 2x78
 400 225 l 2
 400 425 325 500 200 500 c 1
 200 0 l 1
 0 0 l 1
 0 600 l 1
 200 600.02734375 l 2
 475 600.109375 600 525 600 225 c 2xb8
EndSplineSet
EndChar

StartChar: kgreenlandic
Encoding: 312 312 269
Width: 800
Flags: W
HStem: 0 21G<0 200 405 600> 0 21G<0 200 405 600> 580 20G<0 200 330 575>
VStem: 0 200<0 225 450 600>
LayerCount: 2
Fore
SplineSet
350 600 m 1xb0
 575 600 l 1
 312.5 337.5 l 1
 600 50 l 1
 600 0 l 1
 425 0 l 1
 200 225 l 1
 200 0 l 1
 0 0 l 1
 0 600 l 1
 200 600 l 1
 200 450 l 1
 350 600 l 1xb0
EndSplineSet
EndChar

StartChar: Lslash
Encoding: 321 321 270
Width: 800
Flags: W
HStem: 0 100<300 600> 780 20G<100 300>
VStem: 100 200<100 300 500 800>
LayerCount: 2
Fore
SplineSet
600 0 m 1
 100 0 l 1
 100 300 l 1
 50 275 l 1
 0 275 l 1
 0 350 l 1
 100 400 l 1
 100 800 l 1
 300 800 l 1
 300 500 l 1
 450 575 l 1
 500 575 l 1
 500 500 l 1
 300 400 l 1
 300 100 l 1
 600 100 l 1
 600 0 l 1
EndSplineSet
EndChar

StartChar: lslash
Encoding: 322 322 271
Width: 800
Flags: W
HStem: 0 21G<200 400> 0 21G<200 400> 780 20G<200 400>
VStem: 200 200<0 300 500 800>
LayerCount: 2
Fore
SplineSet
200 800 m 1xb0
 400 800 l 1
 400 500 l 1
 550 575 l 1
 600 575 l 1
 600 500 l 1
 400 400 l 1
 400 0 l 1
 200 0 l 1
 200 300 l 1
 50 225 l 1
 0 225 l 1
 0 300 l 1
 200 400 l 1
 200 800 l 1xb0
EndSplineSet
EndChar

StartChar: ij
Encoding: 307 307 272
Width: 800
Flags: W
HStem: -200 100<200.043 381.647> 0 21G<0 200> 0 21G<0 200> 580 20G<0 200 400 600> 675 125<24.3852 175.616 424.385 575.616>
VStem: 0 200<0 600 699.572 797.02> 400 200<-82.1503 600 699.572 797.02>
LayerCount: 2
Fore
SplineSet
400 0 m 2xbe
 400 600 l 1
 600 600 l 1
 600 0 l 2
 600 -100 525 -200 350 -200 c 0
 250.443359375 -200 200 -175 200 -175 c 1
 200 -75 l 1
 200 -75 258.336914062 -102.543945312 325 -100 c 0
 374.963867188 -98.0927734375 400 -75 400 0 c 2xbe
0 0 m 1xde
 0 600 l 1
 200 600 l 1
 200 0 l 1
 0 0 l 1xde
50 800 m 2
 150 800 l 2
 175 800 199.99609375 795.439453125 200 750 c 0
 200.00390625 708.579101562 155.228515625 675 100 675 c 0
 44.771484375 675 0 708.579101562 0 750 c 0
 0 800 25 800 50 800 c 2
450 800 m 2
 550 800 l 2
 575 800 599.99609375 795.439453125 600 750 c 0
 600.00390625 708.579101562 555.228515625 675 500 675 c 0
 444.771484375 675 400 708.579101562 400 750 c 0
 400 800 425 800 450 800 c 2
EndSplineSet
EndChar

StartChar: IJ
Encoding: 306 306 274
Width: 800
Flags: W
HStem: 0 100<232.368 367.632> 780 20G<0 200 400 600>
VStem: 0 200<133.252 225 300 800> 400 200<133.252 800>
LayerCount: 2
Fore
SplineSet
400 225 m 6
 400 800 l 5
 600 800 l 5
 600 225 l 6
 600 125 550 0 300 0 c 4
 50 0 0 125 0 225 c 5
 200 225 l 5
 200 150 225 100 300 100 c 4
 375 100 400 150 400 225 c 6
0 300 m 5
 0 800 l 5
 200 800 l 5
 200 300 l 5
 0 300 l 5
EndSplineSet
EndChar

StartChar: longs
Encoding: 383 383 275
Width: 800
Flags: W
HStem: 0 21G<100 300> 0 21G<100 300> 700 100<318.353 499.957>
VStem: 100 200<0 682.15>
LayerCount: 2
Fore
SplineSet
100 0 m 1xb0
 100 600 l 2
 100 700 175 800 350 800 c 0
 449.556640625 800 500 775 500 775 c 1
 500 675 l 1
 500 675 441.663085938 702.543945312 375 700 c 0
 325.036132812 698.092773438 300 675 300 600 c 2
 300 0 l 1
 100 0 l 1xb0
EndSplineSet
EndChar

StartChar: lacute
Encoding: 314 314 276
Width: 800
Flags: W
HStem: 0 100<0 200 400 600> 500 100<100 200> 625 175
VStem: 200 200<100 500>
LayerCount: 2
Fore
SplineSet
100 600 m 1
 400 600 l 1
 400 100 l 1
 600 100 l 1
 600 0 l 1
 0 0 l 1
 0 100 l 1
 200 100 l 1
 200 500 l 1
 100 500 l 1
 100 600 l 1
EndSplineSet
Refer: 129 180 N 1 0 0 1 0 0 2
EndChar

StartChar: jcircumflex
Encoding: 309 309 277
Width: 800
Flags: W
HStem: -200 100<0.0425365 181.647> 500 100<100 200> 625 175
VStem: 125 350 200 200<-82.1503 500>
LayerCount: 2
Fore
SplineSet
100 600 m 1xe8
 400 600 l 1
 400 0 l 2xe8
 400 -100 325 -200 150 -200 c 0
 50.443359375 -200 0 -175 0 -175 c 1
 0 -75 l 1
 0 -75 58.3369140625 -102.543945312 125 -100 c 0xf0
 174.963867188 -98.0927734375 200 -75 200 0 c 2
 200 500 l 1
 100 500 l 1
 100 600 l 1xe8
EndSplineSet
Refer: 403 710 N 1 0 0 1 0 0 2
EndChar

StartChar: Hbar
Encoding: 294 294 278
Width: 800
Flags: W
HStem: 0 21G<50 225 375 550> 0 21G<50 225 375 550> 400 100<225 375> 600 100<0 50 225 375 550 600> 780 20G<50 225 375 550>
VStem: 50 175<0 400 500 600 700 800> 375 175<0 400 500 600 700 800>
LayerCount: 2
Fore
SplineSet
50 800 m 1xbe
 225 800 l 1
 225 700 l 1
 375 700 l 1
 375 800 l 1
 550 800 l 1
 550 700 l 1
 600 700 l 1
 600 600 l 1
 550 600 l 1
 550 0 l 1
 375 0 l 1
 375 400 l 1
 225 400 l 1
 225 0 l 1
 50 0 l 1
 50 600 l 1
 0 600 l 1
 0 700 l 1
 50 700 l 1
 50 800 l 1xbe
225 600 m 1
 225 500 l 1
 375 500 l 1
 375 600 l 1
 225 600 l 1
EndSplineSet
EndChar

StartChar: hbar
Encoding: 295 295 279
Width: 800
Flags: W
HStem: 0 21G<100 300 400 600> 0 21G<100 300 400 600> 399.947 100.053<300 358.13> 600 100<0 100 300 500> 780 20G<100 300>
VStem: 100 200<0 399.947 500 600 700 800> 400 200<0 356.936>
LayerCount: 2
Fore
SplineSet
100 800 m 1xbe
 300 800 l 1
 300 700 l 1
 500 700 l 1
 500 600 l 1
 300 600 l 1
 300 500 l 1
 350 499.947265625 l 2
 525 499.762695312 600 374.947265625 600 274.947265625 c 2
 600 0 l 1
 400 0 l 1
 400 274.947265625 l 2
 400 349.947265625 348.28515625 399.947265625 300 399.947265625 c 1
 300 0 l 1
 100 0 l 1
 100 600 l 1
 0 600 l 1
 0 700 l 1
 100 700 l 1
 100 800 l 1xbe
EndSplineSet
EndChar

StartChar: Tbar
Encoding: 358 358 280
Width: 800
Flags: W
HStem: 0 21G<200 400> 0 21G<200 400> 300 100<25 200 400 575> 700 100<0 200 400 600>
VStem: 200 200<0 300 400 700>
LayerCount: 2
Fore
SplineSet
0 800 m 1xb8
 600 800 l 1
 600 700 l 1
 400 700 l 1
 400 400 l 1
 575 400 l 1
 575 300 l 1
 400 300 l 1
 400 0 l 1
 200 0 l 1
 200 300 l 1
 25 300 l 1
 25 400 l 1
 200 400 l 1
 200 700 l 1
 0 700 l 1
 0 800 l 1xb8
EndSplineSet
EndChar

StartChar: tbar
Encoding: 359 359 281
Width: 800
Flags: W
HStem: 0 100<418.353 574.976> 300 100<100 200 400 500> 500 100<100 200 400 500>
VStem: 200 200<117.85 300 400 500 600 700>
LayerCount: 2
Fore
SplineSet
200 700 m 1
 400 700 l 1
 400 600 l 1
 500 600 l 1
 500 500 l 1
 400 500 l 1
 400 400 l 1
 500 400 l 1
 500 300 l 1
 400 300 l 1
 400 200 l 2
 400 125 425.036132812 101.907226562 475 100 c 0
 541.662109375 97.4560546875 575 125 575 125 c 1
 575 25 l 1
 575 25 549.556640625 0 450 0 c 0
 275.000976562 0 200 100.000976562 200 200 c 2
 200 300 l 1
 100 300 l 1
 100 400 l 1
 200 400 l 1
 200 500 l 1
 100 500 l 1
 100 600 l 1
 200 600 l 1
 200 700 l 1
EndSplineSet
EndChar

StartChar: uni0326
Encoding: 806 806 285
Width: 800
Flags: W
HStem: -200 50<225 247.956>
VStem: 200 200<-117.399 -43.3415>
LayerCount: 2
Fore
SplineSet
225 -200 m 1
 200 -150 l 1
 250 -150 250 -125 250 -125 c 1
 250 -125 200 -125 200 -75 c 0
 200 -50 250 -25 300 -25 c 0
 350 -25 400 -50 400 -75 c 0
 400 -150 325 -200 225 -200 c 1
EndSplineSet
EndChar

StartChar: lcaron
Encoding: 318 318 292
Width: 800
Flags: W
HStem: 0 100<0 100 300 500> 500 300 700 100<25 100>
VStem: 100 200<100 700> 450 150<587.5 725>
LayerCount: 2
Fore
SplineSet
25 800 m 1xb8
 300 800 l 1
 300 100 l 1
 500 100 l 1
 500 0 l 1
 0 0 l 1
 0 100 l 1
 100 100 l 1
 100 700 l 1
 25 700 l 1
 25 800 l 1xb8
EndSplineSet
Refer: 506 700 N 1 0 0 1 400 0 2
EndChar

StartChar: ldot
Encoding: 320 320 294
Width: 800
Flags: W
HStem: 0 100<0 100 300 500> 350 200<432.762 567.238> 700 100<25 100>
VStem: 100 200<100 700> 400 200<382.762 517.238>
LayerCount: 2
Fore
SplineSet
25 800 m 1
 300 800 l 1
 300 100 l 1
 500 100 l 1
 500 0 l 1
 0 0 l 1
 0 100 l 1
 100 100 l 1
 100 700 l 1
 25 700 l 1
 25 800 l 1
EndSplineSet
Refer: 83 46 N 1 0 0 1 200 350 2
EndChar

StartChar: uni1D22
Encoding: 7458 7458 318
Width: 800
Flags: W
HStem: 0 125<275 600> 475 125<0 400>
LayerCount: 2
Fore
SplineSet
0 600 m 1
 600 600 l 1
 600 450 l 1
 275 125 l 1
 600 125 l 1
 600 0 l 1
 0 0 l 1
 0 75 l 1
 400 475 l 1
 0 475 l 1
 0 600 l 1
EndSplineSet
EndChar

StartChar: uni1D1B
Encoding: 7451 7451 323
Width: 800
Flags: W
HStem: 0 21G<200 400> 0 21G<200 400> 500 100<0 200 400 600>
VStem: 200 200<0 500>
LayerCount: 2
Fore
SplineSet
-0 600 m 1xb0
 600 600 l 1
 600 500 l 1
 400 500 l 1
 400 0 l 1
 200 0 l 1
 200 500 l 1
 -0 500 l 1
 -0 600 l 1xb0
EndSplineSet
EndChar

StartChar: uniA731
Encoding: 42801 42801 327
Width: 800
Flags: W
HStem: 0 100<129.783 388.992> 500 100<213.146 469.966>
VStem: -0 200<394.18 485.429> 0 75<138.745 175> 400 200<114.401 205.82> 525 75<425 459.75>
LayerCount: 2
Fore
SplineSet
300 600 m 0xe8
 458.686523438 600 517.275390625 557.514648438 600 506.25 c 1
 600 425 l 1
 525 425 l 1
 525 475 394.08203125 501.272460938 300 500 c 0
 224.578125 498.98046875 200 475 200 450 c 0xe4
 200 300 600 375 600 150 c 0
 600 37.5 425 0 300 0 c 0
 150 0 82.68359375 41.7705078125 -0 93.75 c 1
 0 175 l 1
 75 175 l 1xd8
 75 125 200 100 300 100 c 0
 375.41015625 100 400 125 400 150 c 0
 400 300 -0 225 -0 450 c 0
 -0 562.7890625 175 600 300 600 c 0xe8
EndSplineSet
EndChar

StartChar: uni0280
Encoding: 640 640 331
Width: 800
Flags: W
HStem: 0 21G<0 200 455 600> 0 21G<0 200 455 600> 200 100<200 275> 500 100<200 363.135>
VStem: 0 200<0 200 300 500> 400 200<332.881 463.933>
LayerCount: 2
Fore
SplineSet
0 600 m 1xbc
 200 600 l 1
 300 600 l 2
 475 600 600 550 600 400 c 0
 600 300.270507812 544.701171875 244.783203125 456.232421875 218.767578125 c 1
 600 75 l 1
 600 0 l 1
 475 0 l 1
 275 200 l 1
 200 200 l 1
 200 0 l 1
 0 0 l 1
 0 600 l 1xbc
200 500 m 1
 200 300 l 1
 250 300 l 2
 300 300 400 300 400 400 c 0
 400 493.638671875 300 500 250 500 c 2
 200 500 l 1
EndSplineSet
EndChar

StartChar: uni0262
Encoding: 610 610 335
Width: 800
Flags: W
HStem: 0 100<230.893 385.628> 200 100<300 400> 500 100<230.893 374.987>
VStem: -0 200<149.551 450.449> 400 200<116.204 200 400 479.069>
LayerCount: 2
Fore
SplineSet
600 300 m 1
 600 200 l 2
 600 125 575 0 300 0 c 0
 75 0 -0 131.25 -0 281.25 c 2
 -0 318.75 l 2
 -0 468.75 75 600 300 600 c 0
 575 600 598.727539062 473.756835938 600 400 c 1
 400 400 l 1
 400 437.5 400 500 300 500 c 0
 200 500 200 412.5 200 318.75 c 2
 200 281.25 l 2
 200 187.5 200 100 300 100 c 0
 400 100 400 137.5 400 175 c 2
 400 200 l 1
 300 200 l 1
 300 300 l 1
 600 300 l 1
EndSplineSet
EndChar

StartChar: uni029C
Encoding: 668 668 340
Width: 800
Flags: W
HStem: 0 21G<0 200 400 600> 0 21G<0 200 400 600> 300 100<200 400> 580 20G<0 200 400 600>
VStem: 0 200<0 300 400 600> 400 200<0 300 400 600>
LayerCount: 2
Fore
SplineSet
0 600 m 1xbc
 200 600 l 1
 200 400 l 1
 400 400 l 1
 400 600 l 1
 600 600 l 1
 600 0 l 1
 400 0 l 1
 400 300 l 1
 200 300 l 1
 200 0 l 1
 0 0 l 1
 0 600 l 1xbc
EndSplineSet
EndChar

StartChar: uni1D0A
Encoding: 7434 7434 342
Width: 800
Flags: W
HStem: 0 100<231.323 368.677> 500 100<200 400>
VStem: 400 200<126.562 500>
LayerCount: 2
Fore
SplineSet
200 600 m 1
 600 600 l 1
 600 200 l 2
 600 100 550 0 300 0 c 0
 50 0 0 100 0 200 c 1
 200 200 l 1
 200 125 250 100 300 100 c 0
 350 100 400 125 400 200 c 2
 400 500 l 1
 200 500 l 1
 200 600 l 1
EndSplineSet
EndChar

StartChar: uni029F
Encoding: 671 671 343
Width: 800
Flags: W
HStem: 0 100<200 600> 580 20G<0 200>
VStem: 0 200<100 600>
LayerCount: 2
Fore
SplineSet
0 600 m 1
 200 600 l 1
 200 100 l 1
 600 100 l 1
 600 0 l 1
 0 0 l 1
 0 600 l 1
EndSplineSet
EndChar

StartChar: uni1D18
Encoding: 7448 7448 345
Width: 800
VWidth: 1100
Flags: W
HStem: 0 21G<0 200> 0 21G<0 200> 200 100<200 363.135> 500 100<200 363.135>
VStem: 0 200<0 200 300 500> 400 200<331.88 463.933>
LayerCount: 2
Fore
SplineSet
0 600 m 1xbc
 200 600 l 1
 300 600 l 2
 475 600 600 550 600 400 c 0
 600 250 475 200 300 200 c 2
 200 200 l 1
 200 0 l 1
 0 0 l 1
 0 600 l 1xbc
250 500 m 2
 200 500 l 1
 200 300 l 1
 250 300 l 2
 300 300 400 300 400 400 c 0
 400 493.639648438 300 500 250 500 c 2
EndSplineSet
EndChar

StartChar: colonmonetary
Encoding: 8353 8353 346
Width: 800
Flags: W
HStem: 0 21G<298.946 437.5> 0 21G<298.946 437.5> 780 20G<316.333 400 516.333 600>
VStem: 400 200<124.163 196.875 511.189 575.787>
LayerCount: 2
Fore
SplineSet
325 800 m 1xb0
 400 800 l 1
 400 700 l 1
 396.69921875 692.45703125 l 1
 424.731445312 687.70703125 448.916992188 680.90234375 469.810546875 672.640625 c 1
 525 800 l 1
 600 800 l 1
 600 700 l 1
 560.443359375 609.583984375 l 1
 594.512695312 568.083007812 600 523.612304688 600 503.125 c 1
 513.8671875 503.125 l 1
 339.771484375 105.189453125 l 1
 399.75390625 122.354492188 400 178.426757812 400 196.875 c 1
 600 196.875 l 1
 600 153.125 574.999023438 0 300 0 c 0
 297.891601562 0 295.888671875 0.1044921875 293.806640625 0.130859375 c 2
 250 -100 l 1
 200 -100 l 1
 200 11.935546875 l 1
 167.362304688 20.4814453125 139.362304688 33.37890625 115.5859375 49.91015625 c 1
 50 -100 l 1
 0 -100 l 1
 0 50 l 1
 38.6796875 139.259765625 l 1
 11.46484375 192.463867188 0 256.806640625 0 325 c 2
 0 375 l 2
 0 545.1015625 70.9013671875 691.541992188 281.498046875 699.609375 c 1
 325 800 l 1xb0
352.0703125 590.4453125 m 1
 201.451171875 246.171875 l 1
 204.123046875 198.254882812 211.831054688 155.185546875 233.98046875 128.416015625 c 1
 399.849609375 511.189453125 l 1
 399.211914062 532.375976562 393.87890625 572.1796875 352.0703125 590.4453125 c 1
EndSplineSet
EndChar

StartChar: uni20A2
Encoding: 8354 8354 347
Width: 800
Flags: W
HStem: 0 21G<187.5 437.5> 0 21G<187.5 437.5> 400 100<417.419 599.957> 700 100<269.631 431.045>
VStem: 0 175<232.031 572.498> 300 100<110.787 382.15> 500 100<168.75 225 575 630.869>
LayerCount: 2
Fore
SplineSet
300 800 m 0xbe
 574.999023438 800 600 625 600 575 c 1
 500 575 l 1
 500 600 450 700 350 700 c 0
 225 700 175 550 175 425 c 2
 175 375 l 2
 175 269.680664062 218.030273438 147.266601562 300 110.787109375 c 1
 300 300 l 2
 300 400 325 500 450 500 c 0
 549.556640625 500 600 475 600 475 c 1
 600 375 l 1
 600 375 541.663085938 402.543945312 475 400 c 0
 425.036132812 398.092773438 400 375 400 300 c 2
 400 108.76171875 l 1
 466.653320312 133.686523438 500 204.58984375 500 225 c 1
 600 225 l 1
 600 175 574.999023438 0 300 0 c 0
 75 0 0 175 0 375 c 2
 0 425 l 2
 0 625 75 800 300 800 c 0xbe
EndSplineSet
EndChar

StartChar: franc
Encoding: 8355 8355 348
Width: 800
Flags: W
HStem: 0 21G<100 300> 0 21G<100 300> 200 100<0 100 300 500> 400 100<300 575> 700 100<300 600>
VStem: 100 200<0 200 300 400 500 700>
LayerCount: 2
Fore
SplineSet
100 800 m 1xbc
 600 800 l 1
 600 700 l 1
 300 700 l 1
 300 500 l 1
 575 500 l 1
 575 400 l 1
 300 400 l 1
 300 300 l 1
 500 300 l 1
 500 200 l 1
 300 200 l 1
 300 0 l 1
 100 0 l 1
 100 200 l 1
 0 200 l 1
 0 300 l 1
 100 300 l 1
 100 800 l 1xbc
EndSplineSet
EndChar

StartChar: lira
Encoding: 8356 8356 349
Width: 800
Flags: W
HStem: 0 100<0 100 300 600> 200 100<0 100 300 500> 400 100<0 100.012 300 500> 700 100<313.752 380.761>
VStem: 100 200<100 200 300 400 500 688.763> 400 200<575 688.763>
LayerCount: 2
Fore
SplineSet
350 800 m 0
 550 800 600 725 600 575 c 1
 400 575 l 1
 400 675 375 700 350 700 c 0
 321.626953125 700 297.456054688 675 300 575 c 2
 300 500 l 1
 500 500 l 1
 500 400 l 1
 300 400 l 1
 300 300 l 1
 500 300 l 1
 500 200 l 1
 300 200 l 1
 300 100 l 1
 600 100 l 1
 600 0 l 1
 0 0 l 1
 0 100 l 1
 100 100 l 1
 100 200 l 1
 0 200 l 1
 0 300 l 1
 100 300 l 1
 100.01171875 400 l 1
 0 400 l 1
 0 500 l 1
 100.0234375 500 l 1
 100.03125 575 l 2
 100 725 149.171875 800 350 800 c 0
EndSplineSet
EndChar

StartChar: uni20A6
Encoding: 8358 8358 350
Width: 800
Flags: W
HStem: 0 21G<50 200 500 650> 0 21G<50 200 500 650> 200 100<0 50 200 350 650 700> 500 100<0 50 375 500 650 700> 780 20G<50 200 500 650>
VStem: 50 150<0 200 300 450 675 800> 500 150<0 150 375 500 600 800>
LayerCount: 2
Fore
SplineSet
50 800 m 1xbe
 200 800 l 1
 200 675 l 1
 275 600 l 1
 500 600 l 1
 500 800 l 1
 650 800 l 1
 650 600 l 1
 700 600 l 1
 700 500 l 1
 650 500 l 1
 650 300 l 1
 700 300 l 1
 700 200 l 1
 650 200 l 1
 650 0 l 1
 500 0 l 1
 500 150 l 1
 450 200 l 1
 200 200 l 1
 200 0 l 1
 50 0 l 1
 50 200 l 1
 0 200 l 1
 0 300 l 1
 50 300 l 1
 50 500 l 1
 0 500 l 1
 0 600 l 1
 50 600 l 1
 50 800 l 1xbe
375 500 m 1
 500 375 l 1
 500 500 l 1
 375 500 l 1
200 450 m 1
 200 300 l 1
 350 300 l 1
 200 450 l 1
EndSplineSet
EndChar

StartChar: uni20A5
Encoding: 8357 8357 351
Width: 800
Flags: W
HStem: -0.078125 21G<275 425 525 700> -0.078125 21G<275 425 525 700> 499.947 100<175 231.248>
VStem: 0 175<100 499.947> 275 150<-0.0527344 100 300 400.406> 525 175<-0.078125 462.165>
CounterMasks: 1 1c
LayerCount: 2
Fore
SplineSet
475 700 m 1xbc
 550 700 l 1
 550 650 l 1
 523.23828125 596.4765625 l 1
 646.438476562 575.7890625 700 465.24609375 700 374.921875 c 2
 700 -0.078125 l 1
 525 -0.078125 l 1
 525 374.921875 l 2
 525 430.78125 500.720703125 472.719726562 470.2578125 490.517578125 c 1
 425.203125 400.40625 l 2
 425.15625 391.818359375 425 383.27734375 425 374.947265625 c 2
 425 -0.052734375 l 1
 275 -0.052734375 l 1
 275 100 l 1
 175 -100 l 1
 100 -100 l 1
 100 -50 l 1
 124.97265625 -0.052734375 l 1
 0 -0.052734375 l 1
 0 599.947265625 l 1
 175 600 l 1
 218.75 599.947265625 l 2
 275.30859375 599.87890625 319.895507812 582.776367188 353.681640625 556.232421875 c 1
 374.325195312 570.7578125 395.696289062 582.387695312 420.025390625 590.048828125 c 1
 475 700 l 1xbc
175 499.947265625 m 1
 175 100 l 1
 275 300 l 1
 275 374.947265625 l 2
 275 449.947265625 217.249023438 499.947265625 175 499.947265625 c 1
EndSplineSet
EndChar

StartChar: peseta
Encoding: 8359 8359 352
Width: 800
Flags: W
HStem: 0 21G<50 200> 0 21G<50 200> 200 100<200 323.953> 500 100<0 50 200 390.795 550 600> 700 100<200 326.013>
VStem: 50 150<0 200 300 500 600 700> 400 150<370.898 500>
LayerCount: 2
Fore
SplineSet
50 800 m 1xbe
 200 800 l 1
 300 800 l 2
 447.565429688 800 523.795898438 693.397460938 544.142578125 600 c 1
 600 600 l 1
 600 500 l 1
 550 500 l 1
 550 450 l 2
 550 350 475 200 300 200 c 2
 200 200 l 1
 200 0 l 1
 50 0 l 1
 50 500 l 1
 0 500 l 1
 0 600 l 1
 50 600 l 1
 50 800 l 1xbe
200 700 m 1
 200 600 l 1
 390.794921875 600 l 1
 364.947265625 666.65625 290.821289062 700 250 700 c 2
 200 700 l 1
200 500 m 1
 200 300 l 1
 250 300 l 2
 300 300 400 350 400 450 c 2
 400 500 l 1
 200 500 l 1
EndSplineSet
EndChar

StartChar: uni20A8
Encoding: 8360 8360 353
Width: 800
Flags: W
HStem: 0 100<511.973 591.015> 500 100<508.904 588.027> 700 100<100 224.802>
VStem: 0 100<0 175 300 700> 300 100<371.637 629.102> 400 100<108.567 175 391.877 492.251> 600 100<107.749 208.123 425 491.433>
LayerCount: 2
Fore
SplineSet
0 800 m 1xf6
 100 800 l 1
 150 800 l 2
 325 800 400 650 400 550 c 2
 400 450 l 2xfa
 400 372.724609375 355.158203125 265.651367188 254.048828125 220.951171875 c 1
 400 75 l 1
 400 0 l 1
 275 0 l 1
 100 175 l 1
 100 0 l 1
 0 0 l 1
 0 800 l 1xf6
400 450 m 0
 400 525 449.475585938 600 550 600 c 0
 675 600 700 500 700 425 c 1
 600 425 l 1
 600 475 575 500 550 500 c 0
 525 500 500 475 500 450 c 0
 500 350 700 325 700 150 c 0
 700 75 650 0 550 0 c 0
 425 0 400 100 400 175 c 1
 500 175 l 1xf6
 500 125 525 100 550 100 c 0
 575 100 600 125 600 150 c 0
 600 250 400 275 400 450 c 0
100 700 m 1
 100 300 l 1
 150 300 l 2
 200 300 300 350 300 450 c 2
 300 550 l 2xfa
 300 650 200 700 150 700 c 2
 100 700 l 1
EndSplineSet
EndChar

StartChar: uni20A9
Encoding: 8361 8361 354
Width: 800
Flags: W
HStem: 0 21G<125 280 420 575> 0 21G<125 280 420 575> 500 100<0 25 166.59 287.5 412.5 533.41 675 700> 780 20G<25 150 550 675>
VStem: 25 125<600 800> 296.428 107.145<600 700> 550 125<600 800>
CounterMasks: 1 0e
LayerCount: 2
Fore
SplineSet
25 800 m 1xbe
 150 800 l 1
 150 600 l 1
 296.427734375 600 l 1
 300 700 l 1
 400 700 l 1
 403.572265625 600 l 1
 550 600 l 1
 550 800 l 1
 675 800 l 1
 675 600 l 1
 700 600 l 1
 700 500 l 1
 675 500 l 1
 675 328.204101562 575 0 575 0 c 1
 425 0 l 1
 350 300 l 1
 275 0 l 1
 125 0 l 1
 125 0 25 328.204101562 25 500 c 1
 0 500 l 1
 0 600 l 1
 25 600 l 1
 25 800 l 1xbe
166.58984375 500 m 1
 191.940429688 404.345703125 237.5 300 237.5 300 c 1
 287.5 500 l 1
 166.58984375 500 l 1
412.5 500 m 1
 462.5 300 l 1
 462.5 300 508.059570312 404.345703125 533.41015625 500 c 1
 412.5 500 l 1
EndSplineSet
EndChar

StartChar: uni20AA
Encoding: 8362 8362 355
Width: 800
Flags: W
HStem: 0 100<300 502.746> 580 20G<600 700> 700 100<100 302.746>
VStem: 0 100<0 700> 200 100<100 550> 400 100<250 587.018> 600 100<213.093 600>
LayerCount: 2
Fore
SplineSet
500 250 m 1
 400 250 l 1
 400 399.974609375 l 1
 400 424.974609375 l 2
 400 624.974609375 325 699.943359375 200 699.974609375 c 2
 100 700 l 1
 100 0 l 1
 0 0 l 1
 0 800 l 1
 100 800 l 1
 200 800.001953125 l 2
 402.135742188 800.07421875 500 650 500 424.974609375 c 2
 500 399.974609375 l 1
 500 250 l 1
700 600 m 1
 700 399.974609375 l 1
 700 374.974609375 l 2
 700 150 602.135742188 0.7744140625 400 -0.052734375 c 2
 300 0 l 1
 200 0 l 1
 200 550 l 1
 300 550 l 1
 300 100 l 1
 400 99.974609375 l 2
 525 99.943359375 600 174.974609375 600 374.974609375 c 2
 600 399.974609375 l 1
 600 600 l 1
 700 600 l 1
EndSplineSet
EndChar

StartChar: dong
Encoding: 8363 8363 356
Width: 800
Flags: W
HStem: -100 100<0 500> 100 100<233.886 300> 400 100<233.886 300> 600 100<100 300 500 600> 780 20G<300 500>
VStem: 0 200<226.541 370.411> 300 200<200 400 500.053 600 700 800>
LayerCount: 2
Fore
SplineSet
300 800 m 1
 500 800 l 1
 500 700 l 1
 600 700 l 1
 600 600 l 1
 500 600 l 1
 500 100 l 1
 250 100 l 2
 75 100 0 200 0 300 c 0
 -0 400 75 499.815429688 250 500 c 2
 300 500.052734375 l 1
 300 600 l 1
 100 600 l 1
 100 700 l 1
 300 700 l 1
 300 800 l 1
300 400 m 1
 251.71484375 400 200 375 200 300 c 0
 200 225 250 200 300 200 c 1
 300 400 l 1
0 0 m 1
 500 0 l 1
 500 -100 l 1
 0 -100 l 1
 0 0 l 1
EndSplineSet
EndChar

StartChar: Euro
Encoding: 8364 8364 357
Width: 800
Flags: W
HStem: 0 100<331.524 435.331> 300 100<0 100 300.73 400> 500 100<0 102.732 308.123 500> 700 100<333.576 449.983>
VStem: 100 200<176.287 300 400 500>
LayerCount: 2
Fore
SplineSet
375 800 m 0
 575 800 600 725 600 675 c 1
 450 675 l 1
 450 700 426.798828125 701.798828125 375 700 c 0
 335.6015625 698.631835938 317.000976562 657.09765625 308.123046875 600 c 1
 500 600 l 1
 500 500 l 1
 300.73828125 500 l 1
 300.165039062 474.946289062 300 449.59375 300 425 c 2
 300 400 l 1
 400 400 l 1
 400 300 l 1
 300.73046875 300 l 1
 303.048828125 197.038085938 314.706054688 100 375 100 c 0
 425 100 450 125 450 150 c 1
 600 150 l 1
 600 100 578.03515625 -0.8994140625 375 0 c 0
 178.727539062 0.869140625 115.65234375 133.4140625 102.73828125 300 c 1
 0 300 l 1
 0 400 l 1
 100 400 l 1
 100 425 l 2
 100 450.517578125 100.844726562 475.607421875 102.732421875 500 c 1
 0 500 l 1
 0 600 l 1
 118.322265625 600 l 1
 148.107421875 716.998046875 220.051757812 800 375 800 c 0
EndSplineSet
EndChar

StartChar: uni20A0
Encoding: 8352 8352 358
Width: 800
Flags: W
HStem: 0 100<400 600> 200 100<168.915 275 400 575> 400 100<400 600> 600 21G<275 400> 700 100<152.35 254.325>
VStem: 0 125<342.832 675.18> 275 125<100 200 300 400 600 679.62>
LayerCount: 2
Fore
SplineSet
600 0 m 1
 275 0 l 1
 275 200 l 1
 200 200 l 2
 25 200 0 325 0 425 c 2
 0 575 l 2
 0 675 25 799.815429688 200 800 c 0
 375 800 400 675 400 600 c 1
 275 600 l 1
 275 675 244.08203125 700 200 700 c 0
 150 700 125 650 125 575 c 2
 125 425 l 2
 125 350 175 300 225 300 c 2
 275 300 l 1
 275 500 l 1
 600 500 l 1
 600 400 l 1
 400 400 l 1
 400 300 l 1
 575 300 l 1
 575 200 l 1
 400 200 l 1
 400 100 l 1
 600 100 l 1
 600 0 l 1
EndSplineSet
EndChar

StartChar: uni20AD
Encoding: 8365 8365 359
Width: 800
Flags: W
HStem: 0 21G<50 200 505 600> 0 21G<50 200 505 600> 400 100<0 50 375 550> 780 20G<50 200 431.818 600>
VStem: 50 150<0 325 525 800>
LayerCount: 2
Fore
SplineSet
50 800 m 1xb8
 200 800 l 1
 200 525 l 1
 450 800 l 1
 600 800 l 1
 600 725 l 1
 375 500 l 1
 550 500 l 1
 550 400 l 1
 325 400 l 1
 600 125 l 1
 600 0 l 1
 525 0 l 1
 200 325 l 1
 200 0 l 1
 50 0 l 1
 50 400 l 1
 0 400 l 1
 0 500 l 1
 50 500 l 1
 50 800 l 1xb8
EndSplineSet
EndChar

StartChar: uni20AE
Encoding: 8366 8366 360
Width: 800
Flags: W
HStem: 0 21G<200 400> 0 21G<200 400> 700 100<0 200 400 600>
VStem: 200 200<0 100 500 700>
LayerCount: 2
Fore
SplineSet
0 800 m 1xb0
 600 800 l 1
 600 700 l 1
 400 700 l 1
 400 500 l 1
 550 575 l 1
 600 575 l 1
 600 500 l 1
 400 400 l 1
 400 300 l 1
 550 375 l 1
 600 375 l 1
 600 300 l 1
 400 200 l 1
 400 0 l 1
 200 0 l 1
 200 100 l 1
 50 25 l 1
 0 25 l 1
 0 100 l 1
 200 200 l 1
 200 300 l 1
 50 225 l 1
 0 225 l 1
 0 300 l 1
 200 400 l 1
 200 700 l 1
 0 700 l 1
 0 800 l 1xb0
EndSplineSet
EndChar

StartChar: uni20AF
Encoding: 8367 8367 361
Width: 800
Flags: W
HStem: 0 100<100 300 519.97 578.285> 500 100<517.937 578.285> 780 20G<125 274.812>
VStem: 400 100<-200 8.63867 115.267 485.537> 600 100<119.106 480.894>
LayerCount: 2
Fore
SplineSet
200 550 m 1
 166.666992188 400 133.333007812 250 100 100 c 1
 166.666992188 100 233.333007812 100 300 100 c 1
 266.666992188 250 233.333007812 400 200 550 c 1
250 800 m 1
 299.625 568.416015625 349.25 336.83203125 398.875976562 105.247070312 c 1
 401.469726562 70.400390625 399.272460938 35.044921875 400 0 c 1
 266.666992188 0 133.333007812 0 0 0 c 1
 0 33.3330078125 0 66.6669921875 0 100 c 1
 50 333.333007812 100 566.666992188 150 800 c 1
 183.333007812 800 216.666992188 800 250 800 c 1
550 600 m 0
 650 600 700 475 700 375 c 2
 700 225 l 2
 700 125 650 0 550 0 c 0
 522.575195312 0 522.609375 3.076171875 500 8.638671875 c 1
 500 -200 l 1
 400 -200 l 1
 400 225 l 1
 400 300 l 1
 400 375 l 2
 400 475 450 600 550 600 c 0
550 500 m 0
 517.091796875 500 500 450 500 375 c 2
 500 300 l 1
 500 225 l 2
 500 150 525 100 550 100 c 0
 575 100 600 150.385742188 600 225 c 2
 600 375 l 2
 600 450 575 500 550 500 c 0
EndSplineSet
EndChar

StartChar: uni20B0
Encoding: 8368 8368 362
Width: 800
Flags: W
HStem: -200 100<350 390.873> 0 21G<0 110 190 300> 0 21G<0 110 190 300> 700 100<307.476 425.017>
VStem: 100 175<441.684 664.238> 425 175<-62.8861 146.107> 450 150<482.331 673.841>
LayerCount: 2
Fore
SplineSet
350 800 m 0xdc
 525 800 600 700 600 625 c 0xda
 600 515.745117188 542.701171875 382.62109375 478.1875 267.3515625 c 1
 543.10546875 214.227539062 598.885742188 153.674804688 600 50 c 0
 601.880859375 -124.989257812 500 -200 350 -200 c 1
 350 -100 l 1
 400 -100 425 -25 425 50 c 0
 425 87.583984375 417.55078125 119.439453125 405.068359375 147.421875 c 1
 347.775390625 59.9970703125 300 0 300 0 c 1
 200 0 l 1
 150 100 l 1
 100 0 l 1
 0 0 l 1
 100 200 l 1
 200 200 l 1
 250 100 l 1
 250 100 287.254882812 160.624023438 329.58203125 245.4609375 c 1
 233.686523438 332.075195312 100 389.620117188 100 550 c 0
 100 725 200 800 350 800 c 0xdc
350 700 m 0
 300 700 275 625 275 550 c 0
 275 456.291015625 320.28515625 397.856445312 377.046875 348.1953125 c 1
 416.5234375 440.930664062 450 543.30859375 450 625 c 0
 450 675 394.08203125 700 350 700 c 0
EndSplineSet
EndChar

StartChar: uni20B1
Encoding: 8369 8369 363
Width: 800
Flags: W
HStem: 0 21G<50 200> 0 21G<50 200> 100 100<200 356.332> 300 100<0 50 200 397.996 550 600> 500 100<0 50 200 397.934 550 600> 700 100<200 356.332>
VStem: 50 150<0 100 200 300 400 500 600 700> 400 150<241.971 300 400 500 600 658.029>
LayerCount: 2
Fore
SplineSet
50 800 m 1xbf
 200 800 l 1
 300 800 l 2
 460.677734375 800 536.860351562 694.650390625 548.28515625 600 c 1
 600 600 l 1
 600 500 l 1
 550 500 l 1
 550 400 l 1
 600 400 l 1
 600 300 l 1
 548.28515625 300 l 1
 536.860351562 205.349609375 460.677734375 100 300 100 c 2
 200 100 l 1
 200 0 l 1
 50 0 l 1
 50 300 l 1
 0 300 l 1
 0 400 l 1
 50 400 l 1
 50 500 l 1
 0 500 l 1
 0 600 l 1
 50 600 l 1
 50 800 l 1xbf
200 700 m 1
 200 600 l 1
 397.93359375 600 l 1
 387.987304688 660.881835938 342.686523438 700 300 700 c 2
 200 700 l 1
200 500 m 1
 200 400 l 1
 400 400 l 1
 400 500 l 1
 200 500 l 1
200 300 m 1
 200 200 l 1
 300 200 l 2
 344.203125 200 388.33984375 239.118164062 397.99609375 300 c 1
 200 300 l 1
EndSplineSet
EndChar

StartChar: uni20B2
Encoding: 8370 8370 364
Width: 800
Flags: W
HStem: 7.27734 104.996<400 446.814> 780 20G<200 400>
VStem: 0 125<186.151 512.775> 200 200<-100 11.8777 126.559 572.863 687.834 800> 450 150<200 300> 475 125<140.499 200 475 544.155>
LayerCount: 2
Fore
SplineSet
200 800 m 1xf8
 400 800 l 1
 400 692.474609375 l 1
 580.967773438 662.55078125 598.903320312 549.166015625 600 475 c 1
 475 475 l 1
 475 505.686523438 458.6953125 554.970703125 400 581.55859375 c 1
 400 112.2734375 l 1
 461.96484375 131.22265625 475 168.748046875 475 200 c 1xf4
 450 200 l 1
 450 300 l 1
 600 300 l 1
 600 221.875 l 2
 600 146.450195312 581.267578125 36.2705078125 400 7.27734375 c 1
 400 -100 l 1
 200 -100 l 1
 200 12.166015625 l 1
 52.232421875 51.5791015625 0 182.206054688 0 328.125 c 2
 0 371.875 l 2
 0 517.793945312 52.232421875 648.420898438 200 687.833984375 c 1
 200 800 l 1xf8
200 572.86328125 m 1
 140.247070312 532.26953125 125 452.200195312 125 375 c 2
 125 331.25 l 2
 125 253.014648438 137.818359375 168.40625 200 126.55859375 c 1
 200 572.86328125 l 1
EndSplineSet
EndChar

StartChar: uni20B3
Encoding: 8371 8371 365
Width: 800
Flags: W
HStem: 0 21G<50 200 400 550> 0 21G<50 200 400 550> 200 100<0 50 200 400 550 600> 400 100<0 50 206.727 393.766 550 600> 780 20G<178.66 421.195>
VStem: 50 150<0 200 300 400 500 570.535> 400 150<0 200 300 400 500 574.54>
LayerCount: 2
Fore
SplineSet
200 800 m 1xbe
 400 800 l 1
 442.390625 757.609375 520.694335938 637.002929688 543.5546875 500 c 1
 600 500 l 1
 600 400 l 1
 550 400 l 1
 550 300 l 1
 600 300 l 1
 600 200 l 1
 550 200 l 1
 550 0 l 1
 400 0 l 1
 400 200 l 1
 200 200 l 1
 200 0 l 1
 50 0 l 1
 50 200 l 1
 0 200 l 1
 0 300 l 1
 50 300 l 1
 50 400 l 1
 0 400 l 1
 0 500 l 1
 56.009765625 500 l 1
 78.259765625 641.756835938 157.3203125 757.3203125 200 800 c 1xbe
300 700 m 1
 260.901367188 660.901367188 221.916992188 586.771484375 206.7265625 500 c 1
 393.765625 500 l 1
 378.934570312 589.645507812 339.51953125 660.48046875 300 700 c 1
200 400 m 1
 200 300 l 1
 400 300 l 1
 400 400 l 1
 200 400 l 1
EndSplineSet
EndChar

StartChar: uni20B4
Encoding: 8372 8372 366
Width: 800
Flags: W
HStem: 0 100<276.556 434.473> 300 100<0 64.6465 462.674 600> 500 100<0 308.279 550 600> 700 100<122.904 323.531>
VStem: 50 200<129.537 282.594>
LayerCount: 2
Fore
SplineSet
300 800 m 0
 425 800 550 750.385742188 550 600 c 1
 600 600 l 1
 600 500 l 1
 535.353515625 500 l 1
 519.876953125 453.95703125 493.455078125 423.188476562 462.673828125 400 c 1
 600 400 l 1
 600 300 l 1
 291.720703125 300 l 1
 266.547851562 277.083007812 250 246.806640625 250 200 c 0
 250 150 275 100 350 100 c 0
 400 100 400 100 425 125 c 1
 500 125 l 1
 500 100 l 1
 450 0 405.34375 0 300 0 c 0
 175 0 50 50 50 200 c 0
 50 239.923828125 55.4345703125 272.594726562 64.646484375 300 c 1
 0 300 l 1
 0 400 l 1
 137.326171875 400 l 1
 193.67578125 442.451171875 264.255859375 459.921875 308.279296875 500 c 1
 0 500 l 1
 0 600 l 1
 350 600 l 1
 350 650 325.428710938 700 250 700 c 0
 150 700 150 700 125 675 c 1
 50 675 l 1
 50 700 l 1
 100 800 194.744140625 800 300 800 c 0
EndSplineSet
EndChar

StartChar: uni20B5
Encoding: 8373 8373 367
Width: 800
Flags: W
HStem: 8.30469 99.4824<400 467.187> 591.777 99.918<400 467.187> 780 20G<200 400>
VStem: 0 100<210.625 489.676> 200 200<-100 12.166 126.975 573.998 687.834 800> 500 100<141.979 200 500 558.021>
CounterMasks: 1 1c
LayerCount: 2
Fore
SplineSet
200 800 m 1
 400 800 l 1
 400 691.6953125 l 1
 581.267578125 658.93359375 600 537.712890625 600 500 c 1
 500 500 l 1
 500 550.477539062 463.84375 579.012695312 400 591.77734375 c 1
 400 107.787109375 l 1
 463.84375 120.037109375 500 147.969726562 500 200 c 1
 600 200 l 1
 600 162.287109375 581.267578125 41.06640625 400 8.3046875 c 1
 400 -100 l 1
 200 -100 l 1
 200 12.166015625 l 1
 52.232421875 51.5791015625 0 182.206054688 0 328.125 c 2
 0 371.875 l 2
 0 517.793945312 52.232421875 648.420898438 200 687.833984375 c 1
 200 800 l 1
200 573.998046875 m 1
 136.135742188 536.391601562 100 461.732421875 100 375 c 2
 100 331.25 l 2
 100 243.001953125 136.135742188 165.921875 200 126.974609375 c 1
 200 573.998046875 l 1
EndSplineSet
EndChar

StartChar: uni20B6
Encoding: 8374 8374 368
Width: 800
Flags: W
HStem: 0 100<468.915 599.994> 500 100<0 50 200 300 450 550> 780 20G<50 200 300 450>
VStem: 50 150<0 500 600 800> 300 150<117.85 500 600 800>
LayerCount: 2
Fore
SplineSet
50 800 m 1
 200 800 l 1
 200 600 l 1
 300 600 l 1
 300 800 l 1
 450 800 l 1
 450 600 l 1
 550 600 l 1
 550 500 l 1
 450 500 l 1
 450 200 l 2
 450 125 475.036132812 101.907226562 525 100 c 0
 591.663085938 97.4560546875 600 125 600 125 c 1
 600 25 l 1
 600 25 599.556640625 0 500 0 c 0
 325 0 300 100 300 200 c 2
 300 500 l 1
 200 500 l 1
 200 0 l 1
 50 0 l 1
 50 500 l 1
 0 500 l 1
 0 600 l 1
 50 600 l 1
 50 800 l 1
EndSplineSet
EndChar

StartChar: uni20B7
Encoding: 8375 8375 369
Width: 800
Flags: W
HStem: 0 100<100 197.934 300 391.865> 200 100<100 159.554 268.028 358.785> 600 21G<400 600> 700 100<217.94 381.011>
VStem: 0 200<533.962 681.272> 0 100<-100 0 100 200> 200 100<-100 0 100 157.855> 400 100<-100 10.7363> 500 100<178.88 307.724>
LayerCount: 2
Fore
SplineSet
300 800 m 0xf2
 500 800 598.727539062 698.341796875 600 600 c 1xf280
 400 600 l 1
 400 650 400 700 300 700 c 0xf3
 200 700 200 650 200 600 c 0
 200 400 600 575 600 250 c 0
 600 150.724609375 557.758789062 88.7255859375 500 51.26953125 c 1xf880
 500 -100 l 1
 400 -100.025390625 l 1
 400 10.736328125 l 1
 365.887695312 3.02734375 331.370117188 0 300 0 c 1
 300 -100 l 1
 200 -100 l 1
 200 0 l 1
 100 0 l 1
 100 -100 l 1
 0 -100 l 1
 0 0 l 1
 0 100 l 1
 0 300 l 1xf7
 50 300 l 2
 114.638671875 299.931640625 165.594726562 282.829101562 204.20703125 256.28515625 c 1
 224.100585938 283.807617188 250 300 275 300 c 0
 374.745117188 300 441.283203125 244.712890625 474.701171875 178.2734375 c 1
 490.280273438 198.390625 500 222.310546875 500 250 c 0
 500 450 0 300 0 600 c 0xf880
 0 750.385742188 175 800 300 800 c 0xf2
100 200 m 1xf4
 100 100 l 1
 197.93359375 100 l 1
 187.987304688 160.881835938 142.686523438 200 100 200 c 1xf4
300 199.974609375 m 0xf2
 289.912109375 199.979492188 278.799804688 195.793945312 267.498046875 189.298828125 c 1
 284.725585938 160.905273438 294.760742188 129.930664062 298.3828125 100 c 1
 300 100 l 2
 326.9765625 99.61328125 361.038085938 106.299804688 393.3828125 119.763671875 c 1
 378.270507812 169.157226562 339.19140625 199.954101562 300 199.974609375 c 0xf2
EndSplineSet
EndChar

StartChar: uni20B8
Encoding: 8376 8376 370
Width: 800
Flags: W
HStem: 0 21G<200 400> 0 21G<200 400> 500 100<0 200 400 600> 700 100<0 600>
VStem: 200 200<0 500>
LayerCount: 2
Fore
SplineSet
0 800 m 1x38
 600 800 l 1
 600 700 l 1
 0 700 l 1
 0 800 l 1x38
0 600 m 1
 600 600 l 1
 600 500 l 1
 400 500 l 1
 400 0 l 1
 200 0 l 1xb8
 200 500 l 1
 0 500 l 1
 0 600 l 1
EndSplineSet
EndChar

StartChar: uni20B9
Encoding: 8377 8377 371
Width: 800
Flags: W
HStem: 0 21G<355 500> 0 21G<355 500> 300 100<0 75> 500 100<0 297.934 493.697 600> 700 100<0 259.554 460.611 600>
VStem: 297.996 199.529<440.555 500 600 660.349>
LayerCount: 2
Fore
SplineSet
0 800 m 1xbc
 250 800 l 1
 600 800 l 1
 600 700 l 1
 460.611328125 700 l 1
 482.0625 668.795898438 494.212890625 633.735351562 498.28515625 600 c 1
 600 600 l 1
 600 500 l 1
 497.525390625 500 l 1
 481.08984375 412.063476562 383.791015625 302.684570312 275 300 c 1
 500 75 l 1
 500 0 l 1
 375 0 l 1
 75 300 l 1
 0 300 l 1
 0 400 l 1
 200 400 l 2
 244.203125 400 288.33984375 439.118164062 297.99609375 500 c 1
 0 500 l 1
 0 600 l 1
 297.93359375 600 l 1
 287.987304688 660.881835938 242.686523438 700 200 700 c 2
 0 700 l 1
 0 800 l 1xbc
EndSplineSet
EndChar

StartChar: uni20BA
Encoding: 8378 8378 372
Width: 800
Flags: W
HStem: 0 100.027<200 325> 780 20G<50 200>
VStem: 0 200<225 300 425 500> 50 150<100.027 225 300 325 400 425 500 525 600 800> 400 200<125 325>
LayerCount: 2
Fore
SplineSet
0 500 m 1xe8
 350 675 l 1
 400 675 l 1
 400 600 l 1
 50 425 l 1xd8
 0 425 l 1
 0 500 l 1xe8
0 300 m 1xe8
 350 475 l 1
 400 475 l 1
 400 400 l 1
 50 225 l 1xd8
 0 225 l 1
 0 300 l 1xe8
600 325 m 1
 600 25 475 -0.072265625 200 0 c 2
 50 0 l 1
 50 800 l 1
 200 800 l 1
 200 100.02734375 l 1
 325 100.02734375 400 125 400 325 c 1
 600 325 l 1
50 800 m 1
 200 800 l 1
 200 600 l 1xd8
 350 675 l 1
 400 675 l 1
 400 600 l 1
 200 500 l 1xe8
 200 400 l 1xd8
 350 475 l 1
 400 475 l 1
 400 400 l 1
 200 300 l 1xe8
 200 100.02734375 l 1
 325 100.02734375 400 125 400 325 c 1
 600 325 l 1
 600 25.0009765625 474.999023438 -0.072265625 200 0 c 2
 50 0 l 1
 50 225 l 1xd8
 0 225 l 1
 0 300 l 1xe8
 50 325 l 1
 50 425 l 1xd8
 0 425 l 1
 0 500 l 1xe8
 50 525 l 1
 50 800 l 1
EndSplineSet
EndChar

StartChar: uni20BF
Encoding: 8383 8383 373
Width: 800
Flags: W
HStem: 0 100<200 300> 300 100<200 346.69> 600 100<200 299.921> 780 20G<100 200 300 400>
VStem: 0 200<100 300 400 600> 100 100<-100 0 700 800> 300 100<-100 0 700 800> 375 200<427.099 570.978> 400 200<117.18 282.212>
LayerCount: 2
Fore
SplineSet
100 800 m 1xf4
 200 800 l 1
 200 700 l 1
 300 700 l 1
 300 800 l 1
 400 800 l 1xf6
 400 696.88671875 l 1xf080
 534.677734375 679.39453125 575 589.723632812 575 500 c 0xf1
 575 443.763671875 559.186523438 387.52734375 514.22265625 349.076171875 c 1
 573.16796875 303.47265625 600 284.780273438 600 179.890625 c 0
 600 85.6083984375 539.3515625 15.51171875 400 2.291015625 c 1xf080
 400 -100 l 1
 300 -100 l 1
 300 0 l 1
 200 0 l 1
 200 -100 l 1
 100 -100 l 1
 100 0 l 1xf6
 0 0 l 1
 0 700 l 1xf8
 100 700 l 1
 100 800 l 1xf4
200 600 m 1xf9
 200 400 l 1
 275 400 l 2
 325 400 375 425 375 500 c 0
 375 575 323.28515625 600 275 600 c 2
 200 600 l 1xf9
200 300 m 1
 200 100 l 1
 300 100 l 2xfa
 350 100 400 100 400 200 c 0xf080
 400 300 348.28515625 300 300 300 c 2xf2
 200 300 l 1
EndSplineSet
EndChar

StartChar: uni20BD
Encoding: 8381 8381 374
Width: 800
Flags: W
HStem: 0 21G<100 250> 0 21G<100 250> 100 100<0 100 250 500> 300 100<0 100 250 373.953> 700 100<250 373.953>
VStem: 100 150<0 100 200 300 400 700> 450 150<469.824 630.176>
LayerCount: 2
Fore
SplineSet
100 800 m 1xbe
 250 800 l 1
 350 800 l 2
 525 800 600 650 600 550 c 0
 600 450 525 300 350 300 c 2
 250 300 l 1
 250 200 l 1
 500 200 l 1
 500 100 l 1
 250 100 l 1
 250 0 l 1
 100 0 l 1
 100 100 l 1
 0 100 l 1
 0 200 l 1
 100 200 l 1
 100 300 l 1
 0 300 l 1
 0 400 l 1
 100 400 l 1
 100 800 l 1xbe
250 700 m 1
 250 400 l 1
 300 400 l 2
 350 400 450 450 450 550 c 0
 450 650 350 700 300 700 c 2
 250 700 l 1
EndSplineSet
EndChar

StartChar: uni20BE
Encoding: 8382 8382 375
Width: 800
Flags: W
HStem: 0 100<0 81.5684 276.891 500> 575 125<300 400> 780 20G<200 300 400 500>
VStem: 0 125<242.857 499.806> 200 100<400 548.562 698.482 800> 400 100<400 548.562 698.482 800> 575 125<350 497.379>
LayerCount: 2
Fore
SplineSet
200 800 m 1
 300 800 l 1
 300 698.482421875 l 1
 315.88671875 699.484375 332.53125 700 350 700 c 0
 367.46875 700 384.11328125 699.484375 400 698.482421875 c 1
 400 800 l 1
 500 800 l 1
 500 683.083984375 l 1
 653.549804688 641.985351562 700 526.9375 700 350 c 1
 575 350 l 1
 575 448.588867188 564.188476562 514.772460938 500 548.5625 c 1
 500 400 l 1
 400 400 l 1
 400 573.142578125 l 1
 384.673828125 574.3671875 368.07421875 575 350 575 c 0
 331.92578125 575 315.326171875 574.3671875 300 573.142578125 c 1
 300 400 l 1
 200 400 l 1
 200 548.5625 l 1
 135.811523438 514.772460938 125 448.588867188 125 350 c 0
 125 225 225 100 400 100 c 2
 500 100 l 1
 500 0 l 1
 311.111328125 0 l 1
 0 0 l 1
 0 100 l 1
 81.568359375 100 l 1
 30.6767578125 159.060546875 0 243.251953125 0 350 c 0
 0 526.9375 46.4501953125 641.985351562 200 683.083984375 c 1
 200 800 l 1
EndSplineSet
EndChar

StartChar: uni20BC
Encoding: 8380 8380 376
Width: 800
Flags: W
HStem: 0 21G<0 175 275 425 525 700> 0 21G<0 175 275 425 525 700> 780 20G<275 425>
VStem: 0 175<0 364.918> 275 150<0 473.404 585.159 800> 525 175<0 364.918>
CounterMasks: 1 1c
LayerCount: 2
Fore
SplineSet
275 800 m 1xbc
 425 800 l 1
 425 591.21875 l 1
 584.413085938 553.548828125 700 398.744140625 700 225 c 2
 700 0 l 1
 525 0 l 1
 525 225 l 2
 525 318.00390625 488.6484375 424.80078125 425 473.404296875 c 1
 425 0 l 1
 275 0 l 1
 275 473.404296875 l 1
 211.3515625 424.80078125 175 318.00390625 175 225 c 2
 175 0 l 1
 0 0 l 1
 0 225 l 2
 0 398.744140625 115.586914062 553.548828125 275 591.21875 c 1
 275 800 l 1xbc
EndSplineSet
EndChar

StartChar: uni20BB
Encoding: 8379 8379 377
Width: 800
Flags: W
HStem: 0 100<319.476 499.957> 200 100<100 200> 400 100<115.13 200 300 500> 700 100<114.517 185.483>
VStem: 0 100<509.093 690.87> 200 100<117.85 200 300 400 500 690.698> 550 100<306.235 393.765>
LayerCount: 2
Fore
SplineSet
150 800 m 0
 225 800 300 700 300 600 c 2
 300 500 l 1
 298.825195312 500.25390625 450 500 500 500 c 0
 600 500 650 450 650 350 c 0
 650 250 600 200 500 200 c 0
 475 200 450 225 450 225 c 1
 450 225 425 200 400 200 c 0
 376.4296875 200 350 225 350 225 c 1
 350 225 325 200 300 200 c 1
 300 125 325.036132812 101.907226562 375 100 c 0
 441.663085938 97.4560546875 500 125 500 125 c 1
 500 25 l 1
 500 25 449.556640625 0 350 0 c 0
 175.000976562 0 200 100.000976562 200 200 c 1
 100 200 l 1
 100 300 l 1
 200 300 l 1
 200 400 l 1
 150 400 l 2
 75 400 0 500 0 600 c 0
 0 700 75 800 150 800 c 0
150 700 m 0
 125 700 100 675 100 600 c 0
 100 525 126.092773438 497.760742188 150 500 c 2
 200 500 l 1
 200 600 l 2
 200 674.806640625 175 700 150 700 c 0
300 400 m 1
 300 300 l 1
 300 300 321.401367188 298.388671875 350 325 c 1
 375 300 400 300 400 300 c 1
 400 300 425 300 450 325 c 1
 475 300 500 300 500 300 c 1
 500 300 550 300 550 350 c 0
 550 400 500 400 500 400 c 1
 300 400 l 1
EndSplineSet
EndChar

StartChar: uni2116
Encoding: 8470 8470 378
Width: 800
Flags: W
HStem: 0 21G<0 100 300 375> 0 21G<0 100 300 375> 200 100<400 700> 700 100<514.374 585.626>
VStem: 0 100<0 550 750 800> 300 75<0 150 350 800> 400 100<509.093 690.87> 600 100<512.228 690.849>
LayerCount: 2
Fore
SplineSet
0 800 m 1xbf
 100 800 l 1
 100 750 l 1
 300 350 l 1
 300 800 l 1
 375 800 l 1
 375 0 l 1
 300 0 l 1
 300 150 l 1
 100 550 l 1
 100 0 l 1
 0 0 l 1
 0 800 l 1xbf
550 800 m 0
 650 800 700 700 700 600 c 0
 700 500 650 400 550 400 c 0
 450 400 400 500 400 600 c 0
 400 700 450 800 550 800 c 0
550 700 m 0
 525 700 500 675 500 600 c 0
 500 525 526.092773438 497.760742188 550 500 c 0
 573.530273438 502.203125 600 525.193359375 600 600 c 0
 600 674.806640625 575 700 550 700 c 0
400 300 m 1
 700 300 l 1
 700 200 l 1
 400 200 l 1
 400 300 l 1
EndSplineSet
EndChar

StartChar: uni2117
Encoding: 8471 8471 379
Width: 800
Flags: W
HStem: 0 100<234.826 465.174> 300 100.011<300.012 397.743> 500 100<300 396.526> 700 100<252.95 463.012>
VStem: 0 100<252.551 539.17> 200 100<200.011 300.011 400.011 500> 401.194 98.8057<403.083 497.131> 600 100<252.551 539.17>
LayerCount: 2
Fore
SplineSet
500 450 m 2
 500 325 453.038085938 301.833007812 325 300 c 0
 316.66796875 299.880859375 300 300.010742188 300 300.010742188 c 1
 300 200.010742188 l 1
 200 200.010742188 l 1
 200 600.010742188 l 1
 325 600 l 2
 450 599.989257812 500 550 500 450 c 2
300 400.010742188 m 1
 350 400.010742188 l 2
 375 400 402.361328125 399.999023438 401.194335938 449.40625 c 0
 400 500 375 500 350 500 c 2
 300 500 l 1
 300 400.010742188 l 1
375 100 m 2
 475 100 600 200 600 325 c 2
 600 475 l 2
 600 600 475 700 375 700 c 2
 350 700 l 2
 250 700 100 600 100 475 c 2
 100 325 l 2
 100 200 225 100 325 100 c 2
 375 100 l 2
0 400 m 0
 0 625 175 800 350 800 c 0
 525 800 700 625 700 400 c 0
 700 175 530.397460938 -1.798828125 350 0 c 0
 169.602539062 1.798828125 0 175 0 400 c 0
EndSplineSet
EndChar

StartChar: trademark
Encoding: 8482 8482 380
Width: 800
Flags: W
HStem: 700 100<0 100 200 275>
VStem: 100 100<400 700> 300 100<400 650> 600 100<400 650>
LayerCount: 2
Fore
SplineSet
0 800 m 1
 275 800 l 1
 275 700 l 1
 200 700 l 1
 200 400 l 1
 100 400 l 1
 100 700 l 1
 0 700 l 1
 0 800 l 1
300 800 m 1
 375 800 l 1
 500 675 l 1
 625 800 l 1
 700 800 l 1
 700 400 l 1
 600 400 l 1
 600 650 l 1
 500 550 l 1
 400 650 l 1
 400 400 l 1
 300 400 l 1
 300 800 l 1
EndSplineSet
EndChar

StartChar: quoteleft
Encoding: 8216 8216 388
Width: 800
Flags: W
HStem: 780 20G<312.5 355>
VStem: 200 150<573.624 665.009>
LayerCount: 2
Fore
SplineSet
325 800 m 1
 400 750 l 1
 375 725 349.100585938 697.841796875 350 625 c 0
 350.6171875 575.00390625 401.272460938 579.66015625 400 500 c 0
 399.201171875 450.006835938 350 400 300 400 c 0
 250 400 198.693359375 450.016601562 200 500 c 0
 206.296875 740.817382812 300 775 325 800 c 1
EndSplineSet
EndChar

StartChar: quotereversed
Encoding: 8219 8219 390
Width: 800
Flags: W
HStem: 780 20G<275 325>
VStem: 200 150<534.991 626.376>
LayerCount: 2
Fore
SplineSet
325 400 m 5
 300 425 206.296875 459.182617188 200 700 c 4
 198.693359375 749.982421875 250 800 300 800 c 4
 350 800 399.201171875 749.993164062 400 700 c 4
 401.272460938 620.33984375 350.6171875 624.99609375 350 575 c 4
 349.100585938 502.158203125 375 475 400 450 c 5
 325 400 l 5
EndSplineSet
EndChar

StartChar: guilsinglleft
Encoding: 8249 8249 396
Width: 800
Flags: W
HStem: 580 20G<380 500>
VStem: 150 350
LayerCount: 2
Fore
SplineSet
500 550 m 1
 300 350 l 1
 500 150 l 1
 500 100 l 1
 400 100 l 1
 150 350 l 1
 400 600 l 1
 500 600 l 1
 500 550 l 1
EndSplineSet
EndChar

StartChar: guilsinglright
Encoding: 8250 8250 397
Width: 800
Flags: W
HStem: 580 20G<200 320>
VStem: 200 350
LayerCount: 2
Fore
SplineSet
200 550 m 5
 200 600 l 5
 300 600 l 5
 550 350 l 5
 300 100 l 5
 200 100 l 5
 200 150 l 5
 400 350 l 5
 200 550 l 5
EndSplineSet
EndChar

StartChar: uni27E8
Encoding: 10216 10216 399
Width: 800
Flags: W
HStem: 780 20G<390 500>
VStem: 200 300
LayerCount: 2
Fore
SplineSet
500 750 m 5
 300 350 l 5
 500 -50 l 5
 500 -100 l 5
 400 -100 l 5
 200 300 l 5
 200 400 l 5
 400 800 l 5
 500 800 l 5
 500 750 l 5
EndSplineSet
EndChar

StartChar: uni27E9
Encoding: 10217 10217 400
Width: 800
Flags: W
HStem: 780 20G<200 310>
VStem: 200 300
LayerCount: 2
Fore
SplineSet
200 750 m 1
 200 800 l 1
 300 800 l 1
 500 400 l 1
 500 300 l 1
 300 -100 l 1
 200 -100 l 1
 200 -50 l 1
 400 350 l 1
 200 750 l 1
EndSplineSet
EndChar

StartChar: uni0E3F
Encoding: 3647 3647 401
Width: 800
Flags: W
HStem: 0 100<200 300 400 466.114> 300 100<200 300> 600 100<200 300> 780 20G<300 400>
VStem: 0 200<100 300 400 600> 300 100<-100 0 100 300 402.318 597.578 700 800> 475 200<427.033 570.519> 500 200<128.122 272.06>
LayerCount: 2
Fore
SplineSet
300 800 m 1xfd
 400 800 l 1
 400 700 l 1
 450 700 l 2
 625 700 675 600 675 500 c 0xfe
 675 443.763671875 659.186523438 387.52734375 614.22265625 349.076171875 c 1
 673.16796875 303.47265625 700 259.780273438 700 179.890625 c 0
 700 100.000976562 625 0 450 0 c 2
 400 0 l 1
 400 -100 l 1
 300 -100 l 1
 300 0 l 1
 200 0 l 1
 0 0 l 1
 0 700 l 1
 200 700 l 1
 300 700 l 1
 300 800 l 1xfd
200 600 m 1
 200 400 l 1
 300 400 l 1
 300 600 l 1
 200 600 l 1
400 597.578125 m 1
 400 402.318359375 l 1
 440.401367188 409.91015625 475 437.629882812 475 500 c 0
 475 562.061523438 439.576171875 589.825195312 400 597.578125 c 1
200 300 m 1
 200 100 l 1
 300 100 l 1
 300 300 l 1
 200 300 l 1
400 300 m 1
 400 100 l 1
 450 100 500 125 500 200 c 0xfd
 500 275 448.28515625 300 400 300 c 1
EndSplineSet
EndChar

StartChar: uni058F
Encoding: 1423 1423 402
Width: 800
Flags: W
HStem: 0 21G<300 500> 0 21G<300 500> 100 100<100 300 500 600> 300 100<100 300 500 600> 700 100<211.947 288.053>
VStem: 0 200<500 689.885> 300 200<0 100 200 300 400 689.885>
LayerCount: 2
Fore
SplineSet
250 800 m 0xbe
 450 800 500 675 500 575 c 2
 500 400 l 1
 600 400 l 1
 600 300 l 1
 500 300 l 1
 500 200 l 1
 600 200 l 1
 600 100 l 1
 500 100 l 1
 500 0 l 1
 300 0 l 1
 300 100 l 1
 100 100 l 1
 100 200 l 1
 300 200 l 1
 300 300 l 1
 100 300 l 1
 100 400 l 1
 300 400 l 1
 300 575 l 2
 300 650 300 700 250 700 c 0
 200 700 200 650 200 575 c 2
 200 500 l 1
 0 500 l 1
 0 575 l 2
 0 675 50 800 250 800 c 0xbe
EndSplineSet
EndChar

StartChar: circumflex
Encoding: 710 710 403
Width: 800
Flags: W
HStem: 625 175
VStem: 125 350
LayerCount: 2
Fore
SplineSet
200 625 m 1
 125 625 l 1
 125 700 l 1
 225 800 l 1
 375 800 l 1
 475 700 l 1
 475 625 l 1
 400 625 l 1
 300 725 l 1
 200 625 l 1
EndSplineSet
EndChar

StartChar: caron
Encoding: 711 711 404
Width: 800
Flags: W
HStem: 625 175
VStem: 125 350
LayerCount: 2
Fore
SplineSet
200 800 m 1
 300 700 l 1
 400 800 l 1
 475 800 l 1
 475 725 l 1
 375 625 l 1
 225 625 l 1
 125 725 l 1
 125 800 l 1
 200 800 l 1
EndSplineSet
EndChar

StartChar: dotaccent
Encoding: 729 729 407
Width: 800
Flags: W
HStem: 675 125<224.385 375.616>
VStem: 200 200<699.572 797.02>
LayerCount: 2
Fore
SplineSet
250 800 m 2
 350 800 l 2
 375 800 399.99609375 795.439453125 400 750 c 0
 400.00390625 708.579101562 355.228515625 675 300 675 c 0
 244.771484375 675 200 708.579101562 200 750 c 0
 200 800 225 800 250 800 c 2
EndSplineSet
EndChar

StartChar: ring
Encoding: 730 730 408
Width: 800
Flags: W
HStem: 525 75<233.763 366.237> 700 100<233.763 366.237>
VStem: 125 100<612.699 687.32> 375 100<612.699 687.32>
LayerCount: 2
Fore
SplineSet
300 525 m 0
 200 525 125 575 125 662.5 c 0
 125 750 200 800 300 800 c 0
 400 800 475 750 475 662.5 c 0
 475 575 400 525 300 525 c 0
225 650 m 0
 225 625 250 600 300 600 c 0
 350 600 375 625 375 650 c 0
 375 675 350 700 300 700 c 0
 250 700 225 675 225 650 c 0
EndSplineSet
EndChar

StartChar: breve
Encoding: 728 728 409
Width: 800
Flags: W
HStem: 625 75<210.4 389.6> 780 20G<100 150 450 500>
VStem: 100 50<755.532 800> 450 50<755.147 800>
LayerCount: 2
Fore
SplineSet
150 800 m 1
 150 775 203.077148438 700.95703125 300 700 c 0
 396.922851562 699.04296875 450 775 450 800 c 1
 500 800 l 1
 500 700 417.091796875 625 300 625 c 0
 182.908203125 625 100 700 100 800 c 1
 150 800 l 1
EndSplineSet
EndChar

StartChar: uni02BB
Encoding: 699 699 411
Width: 800
Flags: W
HStem: 750 50<152.044 175>
VStem: 0 200<643.342 717.399>
LayerCount: 2
Fore
SplineSet
175 800 m 1
 200 750 l 1
 150 750 150 725 150 725 c 1
 150 725 200 725 200 675 c 0
 200 650 150 625 100 625 c 0
 50 625 0 650 0 675 c 0
 0 750 75 800 175 800 c 1
EndSplineSet
EndChar

StartChar: uni0259
Encoding: 601 601 412
Width: 800
Flags: W
HStem: 0 100<228.748 371.422> 200 100<200 400> 500 100<228.748 357.528>
VStem: 0 200<128.747 200 400 471.253> 400 200<142.832 200 300 457.168>
LayerCount: 2
Fore
SplineSet
300 0 m 0
 100 0 0 125 0 200 c 2
 0 300 l 1
 400 300 l 1
 400 375 l 2
 400 450 350 500 300 500 c 0
 250 500 200 474.614257812 200 400 c 1
 0 400 l 1
 0 475 100 600 300 600 c 0
 475 600 600 475 600 375 c 2
 600 225 l 2
 600 125 475 0 300 0 c 0
300 100 m 0
 350 100 400 125 400 200 c 1
 200 200 l 1
 200 125 250 100 300 100 c 0
EndSplineSet
EndChar

StartChar: uni018F
Encoding: 399 399 417
Width: 800
Flags: W
HStem: 0 100<241.918 358.082> 300 100<200 400> 700 100<244.476 355.63>
VStem: 0 200<161.792 300 500 637.813> 400 200<161.792 300 400 638.603>
LayerCount: 2
Fore
SplineSet
300 800 m 0
 475.385742188 802.543945312 600 700 600 500 c 2
 600 300 l 2
 600 100 475 0 300 0 c 0
 125 0 0 100 0 300 c 2
 0 400 l 1
 400 400 l 1
 400 500 l 2
 400 625 375 700 300 700 c 0
 225 700 200 625 200 500 c 1
 0 500 l 1
 0 700 125.018554688 797.461914062 300 800 c 0
200 300 m 1
 200 175 225 100 300 100 c 0
 375 100 400 175 400 300 c 1
 200 300 l 1
EndSplineSet
EndChar

StartChar: uni01B5
Encoding: 437 437 418
Width: 800
Flags: W
HStem: 0 125<150 600> 400 100<25 200 525 575> 675 125<0 475>
LayerCount: 2
Fore
SplineSet
0 800 m 1
 600 800 l 1
 600 575 l 1
 525 500 l 1
 575 500 l 1
 575 400 l 1
 425 400 l 1
 150 125 l 1
 600 125 l 1
 600 0 l 1
 0 0 l 1
 0 200 l 1
 200 400 l 1
 25 400 l 1
 25 500 l 1
 300 500 l 1
 475 675 l 1
 0 675 l 1
 0 800 l 1
EndSplineSet
EndChar

StartChar: uni01B6
Encoding: 438 438 419
Width: 800
Flags: W
HStem: 0 125<225 600> 300 100<75 225 500 575> 475 125<0 400>
LayerCount: 2
Fore
SplineSet
0 600 m 1
 600 600 l 1
 600 500 l 1
 500 400 l 1
 575 400 l 1
 575 300 l 1
 400 300 l 1
 225 125 l 1
 600 125 l 1
 600 0 l 1
 0 0 l 1
 0 75 l 1
 225 300 l 1
 75 300 l 1
 75 400 l 1
 325 400 l 1
 400 475 l 1
 0 475 l 1
 0 600 l 1
EndSplineSet
EndChar

StartChar: uni0191
Encoding: 401 401 420
Width: 800
Flags: W
HStem: -200 100<0.0425365 181.647> 400 100<400 525> 700 100<400 600>
VStem: 200 200<-82.1503 400 500 700>
LayerCount: 2
Fore
SplineSet
400 700 m 1
 400 500 l 1
 525 500 l 1
 525 400 l 1
 400 400 l 1
 400 0 l 2
 400 -100 325 -200 150 -200 c 0
 50.443359375 -200 0 -175 0 -175 c 1
 0 -75 l 1
 0 -75 58.3369140625 -102.543945312 125 -100 c 0
 174.963867188 -98.0927734375 200 -75 200 0 c 2
 200 800 l 1
 600 800 l 1
 600 700 l 1
 400 700 l 1
EndSplineSet
EndChar

StartChar: florin
Encoding: 402 402 421
Width: 800
Flags: W
HStem: -200 100<0.0425365 181.647> 500 100<100 200 400 500> 700 100<418.353 599.957>
VStem: 200 200<-82.1503 500 600 682.15>
LayerCount: 2
Fore
SplineSet
450 800 m 0
 549.556640625 800 600 775 600 775 c 1
 600 675 l 1
 600 675 541.663085938 702.543945312 475 700 c 0
 425.036132812 698.092773438 400 675 400 600 c 1
 500 600 l 1
 500 500 l 1
 400 500 l 1
 400 0 l 2
 400 -100 325 -200 150 -200 c 0
 50.443359375 -200 0 -175 0 -175 c 1
 0 -75 l 1
 0 -75 58.3369140625 -102.543945312 125 -100 c 0
 174.963867188 -98.0927734375 200 -75 200 0 c 2
 200 500 l 1
 100 500 l 1
 100 600 l 1
 200 600 l 1
 200 700 275 800 450 800 c 0
EndSplineSet
EndChar

StartChar: Alpha
Encoding: 913 913 423
Width: 800
Flags: W
HStem: 0 21G<0 155 445 600> 0 21G<0 155 445 600> 200 100<225 375> 780 20G<195 405>
LayerCount: 2
Fore
SplineSet
200 800 m 1xb0
 400 800 l 1
 600 0 l 1
 450 0 l 1
 400 200 l 1
 200 200 l 1
 150 0 l 1
 0 0 l 1
 200 800 l 1xb0
225 300 m 1
 375 300 l 1
 300 600 l 1
 225 300 l 1
EndSplineSet
EndChar

StartChar: Beta
Encoding: 914 914 424
Width: 800
Flags: W
HStem: 0 100<200 358.13> 400 100<200 346.69> 700 100<200 346.59>
VStem: 0 200<100 400 500 700> 375 200<527.099 670.423> 400 200<142.832 356.989>
LayerCount: 2
Fore
SplineSet
0 800 m 1xf4
 200 800 l 1
 350 800 l 2
 525 800 575 700 575 600 c 0xf8
 575 543.763671875 559.186523438 487.52734375 514.22265625 449.076171875 c 1
 573.16796875 403.47265625 600 334.780273438 600 275 c 2
 600 225 l 2
 600 125 525 0 350 0 c 2
 200 0 l 1
 0 0 l 1
 0 800 l 1xf4
200 700 m 1
 200 500 l 1
 275 500 l 2
 325 500 375 525 375 600 c 0
 375 675 323.28515625 700 275 700 c 2
 200 700 l 1
200 400 m 1
 200 100 l 1
 300 100 l 2
 350 100 400 150 400 225 c 2
 400 275 l 2xf4
 400 350 348.28515625 400 300 400 c 2
 200 400 l 1
EndSplineSet
EndChar

StartChar: Epsilon
Encoding: 917 917 425
Width: 800
Flags: W
HStem: 0 100<200 600> 400 100<200 500> 700 100<200 600>
VStem: 0 200<100 400 500 700>
LayerCount: 2
Fore
SplineSet
0 800 m 1
 600 800 l 1
 600 700 l 1
 200 700 l 1
 200 500 l 1
 500 500 l 1
 500 400 l 1
 200 400 l 1
 200 100 l 1
 600 100 l 1
 600 0 l 1
 0 0 l 1
 0 800 l 1
EndSplineSet
EndChar

StartChar: Zeta
Encoding: 918 918 426
Width: 800
Flags: W
HStem: 0 125<150 600> 675 125<0 475>
LayerCount: 2
Fore
SplineSet
0 800 m 1
 600 800 l 1
 600 575 l 1
 150 125 l 1
 600 125 l 1
 600 0 l 1
 0 0 l 1
 0 200 l 1
 475 675 l 1
 0 675 l 1
 0 800 l 1
EndSplineSet
EndChar

StartChar: Eta
Encoding: 919 919 427
Width: 800
Flags: W
HStem: 0 21G<0 200 400 600> 0 21G<0 200 400 600> 400 100<200 400> 780 20G<0 200 400 600>
VStem: 0 200<0 400 500 800> 400 200<0 400 500 800>
LayerCount: 2
Fore
SplineSet
0 800 m 1xbc
 200 800 l 1
 200 500 l 1
 400 500 l 1
 400 800 l 1
 600 800 l 1
 600 0 l 1
 400 0 l 1
 400 400 l 1
 200 400 l 1
 200 0 l 1
 0 0 l 1
 0 800 l 1xbc
EndSplineSet
EndChar

StartChar: Iota
Encoding: 921 921 428
Width: 800
Flags: W
HStem: 0 100<0 200 400 600> 700 100<0 200 400 600>
VStem: 200 200<100 700>
LayerCount: 2
Fore
SplineSet
0 800 m 1
 600 800 l 1
 600 700 l 1
 400 700 l 1
 400 100 l 1
 600 100 l 1
 600 0 l 1
 0 0 l 1
 0 100 l 1
 200 100 l 1
 200 700 l 1
 0 700 l 1
 0 800 l 1
EndSplineSet
EndChar

StartChar: Kappa
Encoding: 922 922 429
Width: 800
Flags: W
HStem: 0 21G<0 200 505 600> 0 21G<0 200 505 600> 780 20G<0 200 431.818 600>
VStem: 0 200<0 325 525 800>
LayerCount: 2
Fore
SplineSet
200 325 m 1xb0
 200 0 l 1
 0 0 l 1
 0 800 l 1
 200 800 l 1
 200 525 l 1
 450 800 l 1
 600 800 l 1
 600 725 l 1
 300 425 l 1
 600 125 l 1
 600 0 l 1
 525 0 l 1
 200 325 l 1xb0
EndSplineSet
EndChar

StartChar: Mu
Encoding: 924 924 430
Width: 800
Flags: W
HStem: 0 21G<0 200 400 600> 0 21G<0 200 400 600> 780 20G<0 113.333 486.667 600>
VStem: 0 200<0 400> 400 200<0 400>
LayerCount: 2
Fore
SplineSet
100 800 m 1xb8
 300 500 l 1
 500 800 l 1
 600 800 l 1
 600 0 l 1
 400 0 l 1
 400 400 l 1
 300 250 l 1
 200 400 l 1
 200 0 l 1
 0 0 l 1
 0 800 l 1
 100 800 l 1xb8
EndSplineSet
EndChar

StartChar: Nu
Encoding: 925 925 431
Width: 800
Flags: W
HStem: 0 21G<0 200 400 600> 0 21G<0 200 400 600> 780 20G<0 117.143 400 600>
VStem: 0 200<0 450> 400 200<0 200 450 800>
LayerCount: 2
Fore
SplineSet
100 800 m 1xb8
 400 450 l 1
 400 800 l 1
 600 800 l 1
 600 0 l 1
 400 0 l 1
 400 200 l 1
 200 450 l 1
 200 0 l 1
 0 0 l 1
 0 800 l 1
 100 800 l 1xb8
EndSplineSet
EndChar

StartChar: Omicron
Encoding: 927 927 432
Width: 800
Flags: W
HStem: 0 100<246.082 353.918> 700 100<246.082 353.918>
VStem: 0 200<199.402 600.598> 400 200<199.402 600.598>
LayerCount: 2
Fore
SplineSet
400 375 m 2
 400 425 l 2
 400 550 400 700 300 700 c 0
 200 700 200 550 200 425 c 2
 200 375 l 2
 200 250 200 100 300 100 c 0
 400 100 400 250 400 375 c 2
0 375 m 2
 0 425 l 2
 0 625 75 800 300 800 c 0
 525 800 600 625 600 425 c 2
 600 375 l 2
 600 175 525 0 300 0 c 0
 75 0 0 175 0 375 c 2
EndSplineSet
EndChar

StartChar: Rho
Encoding: 929 929 433
Width: 800
Flags: W
HStem: 0 21G<0 200> 0 21G<0 200> 200 100<200 308.166> 700 100<200 308.166>
VStem: 0 200<0 200 300 700> 400 200<390.1 609.9>
LayerCount: 2
Fore
SplineSet
0 800 m 1xbc
 200 800 l 1
 300 800 l 2
 475 800 600 650 600 550 c 2
 600 475 l 2
 600 375 475 200 300 200 c 2
 200 200 l 1
 200 0 l 1
 0 0 l 1
 0 800 l 1xbc
250 700 m 2
 200 700 l 1
 200 300 l 1
 250 300 l 2
 300 300 400 375 400 475 c 2
 400 525 l 2
 400 625 300 700 250 700 c 2
EndSplineSet
EndChar

StartChar: Tau
Encoding: 932 932 434
Width: 800
Flags: W
HStem: 0 21G<200 400> 0 21G<200 400> 700 100<0 200 400 600>
VStem: 200 200<0 700>
LayerCount: 2
Fore
SplineSet
0 800 m 1xb0
 600 800 l 1
 600 700 l 1
 400 700 l 1
 400 0 l 1
 200 0 l 1
 200 700 l 1
 0 700 l 1
 0 800 l 1xb0
EndSplineSet
EndChar

StartChar: Upsilon
Encoding: 933 933 435
Width: 800
Flags: W
HStem: 0 21G<200 400> 0 21G<200 400> 780 20G<0 135 465 600>
VStem: 200 200<0 300>
LayerCount: 2
Fore
SplineSet
200 300 m 1xb0
 0 700 l 1
 0 800 l 1
 125 800 l 1
 300 450 l 1
 475 800 l 1
 600 800 l 1
 600 700 l 1
 400 300 l 1
 400 0 l 1
 200 0 l 1
 200 300 l 1xb0
EndSplineSet
EndChar

StartChar: Chi
Encoding: 935 935 436
Width: 800
Flags: W
HStem: 0 21G<0 185 415 600> 0 21G<0 185 415 600> 780 20G<0 185 415 600>
LayerCount: 2
Fore
SplineSet
0 800 m 1xa0
 175 800 l 1
 300 550 l 1
 425 800 l 1
 600 800 l 1
 400 400 l 1
 600 0 l 1
 425 0 l 1
 300 250 l 1
 175 0 l 1
 0 0 l 1
 200 400 l 1
 0 800 l 1xa0
EndSplineSet
EndChar

StartChar: Theta
Encoding: 920 920 437
Width: 800
Flags: W
HStem: 0 100<246.082 353.918> 325 150<225 375> 700 100<246.082 353.918>
VStem: 0 200<199.402 600.598> 225 150<325 475> 400 200<199.402 600.598>
CounterMasks: 1 fc
LayerCount: 2
Fore
SplineSet
400 375 m 2
 400 425 l 2
 400 550 400 700 300 700 c 0
 200 700 200 550 200 425 c 2
 200 375 l 2
 200 250 200 100 300 100 c 0
 400 100 400 250 400 375 c 2
0 375 m 2
 0 425 l 2
 0 625 75 800 300 800 c 0
 525 800 600 625 600 425 c 2
 600 375 l 2
 600 175 525 0 300 0 c 0
 75 0 0 175 0 375 c 2
225 325 m 1
 225 475 l 1
 375 475 l 1
 375 325 l 1
 225 325 l 1
EndSplineSet
EndChar

StartChar: Lambda
Encoding: 923 923 438
Width: 800
Flags: W
HStem: 0 21G<0 155 445 600> 0 21G<0 155 445 600> 780 20G<195 405>
LayerCount: 2
Fore
SplineSet
200 800 m 1xa0
 400 800 l 1
 600 0 l 1
 450 0 l 1
 300 600 l 1
 150 0 l 1
 0 0 l 1
 200 800 l 1xa0
EndSplineSet
EndChar

StartChar: Xi
Encoding: 926 926 439
Width: 800
Flags: W
HStem: 0 125<0 600> 325 150<100 500> 675 125<0 600>
CounterMasks: 1 e0
LayerCount: 2
Fore
SplineSet
600 675 m 1
 0 675 l 1
 0 800 l 1
 600 800 l 1
 600 675 l 1
100 325 m 1
 100 475 l 1
 500 475 l 1
 500 325 l 1
 100 325 l 1
0 0 m 1
 0 125 l 1
 600 125 l 1
 600 0 l 1
 0 0 l 1
EndSplineSet
EndChar

StartChar: Pi
Encoding: 928 928 440
Width: 800
Flags: W
HStem: 0 21G<0 200 400 600> 0 21G<0 200 400 600> 700 100<200 400>
VStem: 0 200<0 700> 400 200<0 700>
LayerCount: 2
Fore
SplineSet
0 800 m 1xb8
 600 800 l 1
 600 750 l 1
 600 700 l 1
 600 0 l 1
 400 0 l 1
 400 700 l 1
 200 700 l 1
 200 0 l 1
 0 0 l 1
 0 700 l 1
 0 775 l 1
 0 800 l 1xb8
EndSplineSet
EndChar

StartChar: Sigma
Encoding: 931 931 441
Width: 800
Flags: W
HStem: 0 100<225 600> 700 100<275 600>
LayerCount: 2
Fore
SplineSet
0 750 m 1
 0 800 l 1
 600 800 l 1
 600 700 l 1
 275 700 l 1
 550 425 l 1
 225 100 l 1
 600 100 l 1
 600 0 l 1
 0 0 l 1
 0 100 l 1
 325 425 l 1
 0 750 l 1
EndSplineSet
EndChar

StartChar: Phi
Encoding: 934 934 442
Width: 800
Flags: W
HStem: 0 21G<275 425> 0 21G<275 425> 100 100<206.659 275 425 499.956> 600 100<200.044 275 425 493.341> 780 20G<275 425>
VStem: 0 150<258.442 543.405> 275 150<0 100 200 600 700 800> 550 150<256.595 541.654>
CounterMasks: 1 07
LayerCount: 2
Fore
SplineSet
275 800 m 1xbf
 425 800 l 1
 425 700 l 1
 621.875 700 700 575 700 425 c 2
 700 375 l 2
 700 225 621.875 100 425 100 c 1
 425 0 l 1
 275 0 l 1
 275 100 l 1
 78.125 100 0 225 0 375 c 2
 0 425 l 2
 0 575 78.125 700 275 700 c 1
 275 800 l 1xbf
275 600 m 1
 200 600 150 550 150 425 c 2
 150 375 l 2
 150 250 207.612304688 201.1171875 275 200 c 1
 275 600 l 1
425 600 m 1
 425 200 l 1
 500 200 550 250 550 375 c 2
 550 425 l 2
 550 542.0078125 500 600 425 600 c 1
EndSplineSet
EndChar

StartChar: iota
Encoding: 953 953 443
Width: 800
Flags: W
HStem: 0 100<418.353 549.994> 500 100<0 200>
VStem: 200 200<117.85 500>
LayerCount: 2
Fore
SplineSet
0 600 m 1
 400 600 l 1
 400 200 l 2
 400 125 425.036132812 101.907226562 475 100 c 0
 541.663085938 97.4560546875 550 125 550 125 c 1
 550 25 l 1
 550 25 549.556640625 0 450 0 c 0
 275 0 200 100 200 200 c 2
 200 500 l 1
 0 500 l 1
 0 600 l 1
EndSplineSet
EndChar

StartChar: kappa
Encoding: 954 954 444
Width: 800
Flags: W
HStem: 0 21G<0 200 431.818 600> 0 21G<0 200 431.818 600> 500 100<488.776 600>
VStem: 0 200<0 275 375 600>
LayerCount: 2
Fore
SplineSet
600 600 m 1xb0
 600 500 l 1
 525 500 477.705078125 477.705078125 425 425 c 2
 325 325 l 1
 600 50 l 1
 600 0 l 1
 450 0 l 1
 200 275 l 1
 200 0 l 1
 0 0 l 1
 0 600 l 1
 200 600 l 1
 200 375 l 1
 325 500 l 2
 387.250976562 562.250976562 454.645507812 600 550 600 c 2
 600 600 l 1xb0
EndSplineSet
EndChar

StartChar: uni03BC
Encoding: 956 956 445
Width: 800
Flags: W
HStem: 0 100<206.917 285.767> 580 20G<0 175 325 500>
VStem: 0 175<-200 8.63867 132.699 600> 325 175<138.506 600>
LayerCount: 2
Fore
SplineSet
0 600 m 1
 175 600 l 1
 175 400 l 1
 175 225 l 2
 175 150 216.192382812 100.899414062 250 100 c 0
 274.991210938 99.3349609375 325 150.385742188 325 225 c 2
 325 600 l 1
 500 600 l 1
 500 225 l 2
 500 125 450 0 250 0 c 0
 222.575195312 0 197.609375 3.076171875 175 8.638671875 c 1
 175 -200 l 1
 0 -200 l 1
 0 225 l 1
 0 400 l 1
 0 600 l 1
EndSplineSet
EndChar

StartChar: omicron
Encoding: 959 959 446
Width: 800
Flags: W
HStem: 0 100<242.472 357.528> 500 100<244.471 355.529>
VStem: 0 200<142.832 457.154> 400 200<142.832 457.182>
LayerCount: 2
Fore
SplineSet
600 375 m 2
 600 225 l 2
 600 125 475 0 300 0 c 0
 125 0 0 125 0 225 c 2
 0 375 l 2
 0 475 125 599.907226562 300 600 c 0
 475 600.091796875 600 475 600 375 c 2
200 375 m 2
 200 225 l 2
 200 150 250 100 300 100 c 0
 350 100 400 150.385742188 400 225 c 2
 400 375 l 2
 400 450 350 500 300 500 c 0
 250 500 200 450 200 375 c 2
EndSplineSet
EndChar

StartChar: lambda
Encoding: 955 955 447
Width: 800
Flags: W
HStem: 0 21G<50 235 465 650> 0 21G<50 235 465 650> 700 100<25 157.338>
LayerCount: 2
Fore
SplineSet
325 650 m 2xa0
 650 0 l 1
 475 0 l 1
 350 250 l 1
 225 0 l 1
 50 0 l 1
 275 450 l 1
 175 650 l 2
 150 700 125 700 100 700 c 2
 25 700 l 1
 25 800 l 1
 100 800 l 1
 150 800 l 2
 229.310546875 800 275 750 325 650 c 2xa0
EndSplineSet
EndChar

StartChar: nu
Encoding: 957 957 448
Width: 800
Flags: W
HStem: 0 21G<315 400> 0 21G<315 400> 580 20G<50 235 450 600>
VStem: 450 150<414.625 600>
LayerCount: 2
Fore
SplineSet
450 600 m 1xb0
 600 600 l 1
 600 450 l 2
 597.301757812 266.004882812 400 0 400 0 c 1
 325 0 l 1
 50 550 l 1
 50 600 l 1
 225 600 l 1
 375 300 l 1
 375 300 450 400 450 600 c 1xb0
EndSplineSet
EndChar

StartChar: xi
Encoding: 958 958 449
Width: 800
Flags: W
HStem: 0 100<235.629 491.396> 400 100<337.109 550> 700 100<0 126.117 336.683 600>
VStem: 0 200<147.632 321.381> 100 200<534.648 662.93> 500 100<-93.7654 -11.4706>
LayerCount: 2
Fore
SplineSet
0 800 m 1xf4
 600 800 l 1
 600 700 l 1
 400 700 l 2
 350 700 300 650 300 600 c 0xec
 300 550 343.890625 500 400 500 c 2
 550 500 l 1
 550 475 l 1
 550 400 l 1
 400 400 l 2
 325 400 200 350 200 250 c 0xf4
 200 125 250 100 300 100 c 2xec
 400 100 l 2
 473.387695312 100 600 75 600 -50 c 0
 600 -150 550 -200 450 -200 c 1
 450 -100 l 1
 450 -100 500 -100 500 -50 c 0
 500 0 450 0 350 0 c 2
 250 0 l 2
 150 0 0 100 0 250 c 0xf4
 0 352.416015625 71.203125 419.840820312 163.251953125 452.330078125 c 1
 122.477539062 490.662109375 100 545.310546875 100 600 c 0xec
 100 634.733398438 109.068359375 669.45703125 126.1171875 700 c 1
 0 700 l 1
 0 800 l 1xf4
EndSplineSet
EndChar

StartChar: uni0394
Encoding: 916 916 450
Width: 800
Flags: W
HStem: 0 100<175 425> 780 20G<195 405>
LayerCount: 2
Fore
SplineSet
0 0 m 1
 200 800 l 1
 400 800 l 1
 600 0 l 1
 0 0 l 1
175 100 m 1
 425 100 l 1
 300 600 l 1
 175 100 l 1
EndSplineSet
EndChar

StartChar: Gamma
Encoding: 915 915 451
Width: 800
Flags: W
HStem: 0 21G<0 200> 0 21G<0 200> 700 100<200 600>
VStem: 0 200<0 700>
LayerCount: 2
Fore
SplineSet
0 800 m 1xb0
 600 800 l 1
 600 700 l 1
 200 700 l 1
 200 0 l 1
 0 0 l 1
 0 800 l 1xb0
EndSplineSet
EndChar

StartChar: Psi
Encoding: 936 936 452
Width: 800
Flags: W
HStem: 0 21G<275 425> 0 21G<275 425> 200 100<187.11 275 425 516.685> 780 20G<0 150 275 425 550 700>
VStem: 0 150<337.467 800> 275 150<0 200 300 800> 550 150<337.467 800>
CounterMasks: 1 0e
LayerCount: 2
Fore
SplineSet
0 800 m 1xbe
 150 800 l 1
 150 450 l 2
 150 350 165.630859375 301.1171875 275 300 c 1
 275 800 l 1
 425 800 l 1
 425 300 l 1
 534.369140625 301.1171875 550 350 550 450 c 2
 550 800 l 1
 700 800 l 1
 700 450 l 2
 700 275 569.715820312 202.543945312 425 200 c 1
 425 0 l 1
 275 0 l 1
 275 200 l 1
 123.922851562 202.543945312 0 275 0 450 c 2
 0 800 l 1xbe
EndSplineSet
EndChar

StartChar: uni03A9
Encoding: 937 937 453
Width: 800
Flags: W
HStem: 0 100<0 150 450 600> 700 100<232.438 367.562>
VStem: 0 150<277.565 589.048> 450 150<276.116 589.047>
LayerCount: 2
Fore
SplineSet
300 800 m 0
 468.749023438 800 600 649.993164062 600 450 c 0
 600 250 525 175 450 100 c 1
 600 100 l 1
 600 0 l 1
 375 0 l 1
 375 100 l 1
 375 200 l 1
 425.498046875 236.4296875 450 300 450 450 c 0
 450 575 393.75 700 300 700 c 0
 206.25 700 150 575 150 450 c 0
 150 300 175 225 225 200 c 1
 225 100 l 1
 225 0 l 1
 0 0 l 1
 0 100 l 1
 150 100 l 1
 75 175 0 250 0 450 c 0
 0 649.999023438 131.250976562 800 300 800 c 0
EndSplineSet
EndChar

StartChar: eta
Encoding: 951 951 454
Width: 800
Flags: W
HStem: 0 21G<0 200> 0 21G<0 200> 500 100.053<200 358.13>
VStem: 0 200<0 500> 400 200<-200 456.989>
LayerCount: 2
Fore
SplineSet
200 0 m 1xb8
 0 0 l 1
 0 600 l 1
 300 600.052734375 l 1
 350 600 l 2
 525 599.815429688 600 475 600 375 c 2
 600 -200 l 1
 400 -200 l 1
 400 375 l 2
 400 450 348.28515625 500 300 500 c 2
 200 500 l 1
 200 0 l 1xb8
EndSplineSet
EndChar

StartChar: theta
Encoding: 952 952 455
Width: 800
Flags: W
HStem: 0 100<246.56 353.44> 325 150<200.26 399.74> 700 100<246.56 353.44>
VStem: 0 200.26<199.402 325 475 600.598> 399.74 200.26<199.402 325 475 600.598>
CounterMasks: 1 e0
LayerCount: 2
Fore
SplineSet
300 800 m 0
 525 800 600 625 600 425 c 2
 600 375 l 2
 600 175 525 0 300 0 c 0
 75 0 -0 175 0 375 c 2
 0 425 l 2
 0 625 75 800 300 800 c 0
300 700 m 0
 213.09765625 700 201.750976562 586.709960938 200.259765625 475 c 1
 399.740234375 475 l 1
 398.249023438 586.709960938 386.90234375 700 300 700 c 0
200.259765625 325 m 1
 201.750976562 213.290039062 213.09765625 100 300 100 c 0
 386.90234375 100 398.249023438 213.290039062 399.740234375 325 c 1
 200.259765625 325 l 1
EndSplineSet
EndChar

StartChar: gamma
Encoding: 947 947 456
Width: 800
Flags: W
HStem: 580 20G<50 235 450 600>
VStem: 225 175<-200 0> 450 150<414.625 600>
LayerCount: 2
Fore
SplineSet
50 600 m 1
 225 600 l 1
 375 300 l 1
 375 300 450 400 450 600 c 1
 600 600 l 1
 600 450 l 2
 597.301757812 266.004882812 400 0 400 0 c 1
 400 -200 l 1
 225 -200 l 1
 225 200 l 1
 50 550 l 1
 50 600 l 1
EndSplineSet
EndChar

StartChar: rho
Encoding: 961 961 457
Width: 800
Flags: W
HStem: 0 100<239.678 357.528> 500 100<244.471 355.529>
VStem: 0 200<-200 14.3516 140.772 457.154> 400 200<142.832 457.182>
LayerCount: 2
Fore
SplineSet
300 600 m 0
 475 600.091796875 600 475 600 375 c 2
 600 225 l 2
 600 125 475 0 300 0 c 0
 264.3671875 0 230.854492188 5.2529296875 200 14.3515625 c 1
 200 -200 l 1
 0 -200 l 1
 0 225 l 1
 0 300 l 1
 0 375 l 2
 0 475 125 599.907226562 300 600 c 0
300 500 m 0
 250 500 200 450 200 375 c 2
 200 300 l 1
 200 225 l 2
 200 150 250 100 300 100 c 0
 350 100 400 150.385742188 400 225 c 2
 400 375 l 2
 400 450 350 500 300 500 c 0
EndSplineSet
EndChar

StartChar: sigma
Encoding: 963 963 458
Width: 800
Flags: W
HStem: 0 100<242.472 357.528> 500 100<244.471 359.527 542.381 700>
VStem: 0 200<142.832 457.154> 400 200<142.832 458.031>
LayerCount: 2
Fore
SplineSet
300 600 m 2
 700 600 l 1
 700 500 l 1
 542.380859375 500 l 1
 579.068359375 460.987304688 600 415.899414062 600 375 c 2
 600 225 l 2
 600 125 475 0 300 0 c 0
 125 0 0 125 0 225 c 2
 0 375 l 2
 0 475 125 599.907226562 300 600 c 2
300 500 m 0
 250 500 200 450 200 375 c 2
 200 225 l 2
 200 150 250 100 300 100 c 0
 350 100 400 150.385742188 400 225 c 2
 400 375 l 2
 400 450 350 500 300 500 c 0
EndSplineSet
EndChar

StartChar: pi
Encoding: 960 960 459
Width: 800
Flags: W
HStem: 0 100<468.915 599.994> 500 100<0 50 200 300 450 550>
VStem: 50 150<0 500> 300 150<117.85 500>
LayerCount: 2
Fore
SplineSet
0 600 m 1
 550 600 l 1
 550 500 l 1
 450 500 l 1
 450 200 l 2
 450 125 475.036132812 101.907226562 525 100 c 0
 591.663085938 97.4560546875 600 125 600 125 c 1
 600 25 l 1
 600 25 599.556640625 0 500 0 c 0
 325 0 300 100 300 200 c 2
 300 500 l 1
 200 500 l 1
 200 0 l 1
 50 0 l 1
 50 500 l 1
 0 500 l 1
 0 600 l 1
EndSplineSet
EndChar

StartChar: tau
Encoding: 964 964 460
Width: 800
Flags: W
HStem: 0 100<418.353 549.994> 500 100<0 200 400 600>
VStem: 200 200<117.85 500>
LayerCount: 2
Fore
SplineSet
0 600 m 1
 200 600 l 1
 400 600 l 1
 600 600 l 1
 600 500 l 1
 400 500 l 1
 400 200 l 2
 400 125 425.036132812 101.907226562 475 100 c 0
 541.663085938 97.4560546875 550 125 550 125 c 1
 550 25 l 1
 550 25 549.556640625 0 450 0 c 0
 275 0 200 100 200 200 c 2
 200 500 l 1
 0 500 l 1
 0 600 l 1
EndSplineSet
EndChar

StartChar: psi
Encoding: 968 968 461
Width: 800
Flags: W
HStem: 0 100<218.752 275 425 481.248> 580 20G<0 175 525 700> 780 20G<275 425>
VStem: 0 175<147.682 600> 275 150<-200 -0.0527344 100 800> 525 175<147.676 600>
CounterMasks: 1 1c
LayerCount: 2
Fore
SplineSet
275 800 m 1
 425 800 l 1
 425 100 l 1
 467.249023438 100 525 150 525 225 c 2
 525 600 l 1
 700 600 l 1
 700 225 l 2
 700 125 634.375 0.1435546875 481.25 0 c 2
 425 -0.052734375 l 1
 425 -200 l 1
 275 -200 l 1
 275 -0.052734375 l 1
 218.75 0 l 2
 65.625 0.1845703125 0 125 0 225 c 2
 0 600 l 1
 175 600 l 1
 175 225 l 2
 175 150 232.750976562 100 275 100 c 1
 275 800 l 1
EndSplineSet
EndChar

StartChar: upsilon
Encoding: 965 965 462
Width: 800
Flags: W
HStem: 0 100<230.677 369.323> 580 20G<0 200 375 550>
VStem: 0 200<133.252 600> 400 200<133.252 540.979>
LayerCount: 2
Fore
SplineSet
600 225 m 2
 600 125 525 0 300 0 c 0
 75 0 0 125 0 225 c 2
 0 600 l 1
 200 600 l 1
 200 225 l 2
 200 150 225 100 300 100 c 0
 375 100 400 150 400 225 c 2
 400 400 l 2
 400 500 375 600 375 600 c 1
 550 600 l 1
 550 600 600 500 600 400 c 2
 600 225 l 2
EndSplineSet
EndChar

StartChar: omega
Encoding: 969 969 463
Width: 800
Flags: W
HStem: 0 100<184.453 249.334 451.415 515.546> 580 20G<43.75 175 275 425 525 656.25>
VStem: 0 153.125<128.838 550.952> 275 150<142.957 600> 546.875 153.125<128.838 550.952>
CounterMasks: 1 38
LayerCount: 2
Fore
SplineSet
306.25 600 m 1
 425 600 l 1
 425 225 l 2
 425 150.385742188 459.3828125 99.3349609375 481.25 100 c 0
 510.83203125 100.899414062 546.875 150 546.875 225 c 2
 546.875 400 l 2
 546.875 500 525 600 525 600 c 1
 656.25 600 l 1
 656.25 600 700 500 700 400 c 2
 700 225 l 2
 700 125 634.372070312 1.0400390625 481.25 0 c 1024
43.75 600 m 1
 175 600 l 1
 175 600 153.125 500 153.125 400 c 2
 153.125 225 l 2
 153.125 150 189.16796875 100.899414062 218.75 100 c 0
 240.6171875 99.3349609375 275 150.385742188 275 225 c 2
 275 600 l 1
 306.25 600 l 1
 393.75 600 l 1
 425 600 l 1
 425 225 l 2
 425 150.385742188 459.3828125 99.3349609375 481.25 100 c 0
 510.83203125 100.899414062 546.875 150 546.875 225 c 2
 546.875 400 l 2
 546.875 500 525 600 525 600 c 1
 656.25 600 l 1
 656.25 600 700 500 700 400 c 2
 700 225 l 2
 700 125 634.372070312 1.0400390625 481.25 0 c 0
 420.138671875 -0.4150390625 378.208984375 63.4130859375 350.7265625 142.080078125 c 1
 323.615234375 63.666015625 281.580078125 0 218.75 0 c 0
 65.625 0 0 125 0 225 c 2
 0 400 l 2
 0 500 43.75 600 43.75 600 c 1
EndSplineSet
EndChar

StartChar: tonos
Encoding: 900 900 464
Width: 800
Flags: W
HStem: 625 175
VStem: 200 200
LayerCount: 2
Fore
SplineSet
300 800 m 1
 400 800 l 1
 300 625 l 1
 200 625 l 1
 300 800 l 1
EndSplineSet
EndChar

StartChar: dieresistonos
Encoding: 901 901 465
Width: 800
Flags: W
HStem: 675 125<-7.87181 107.868 492.128 607.868>
VStem: -25 150<691.844 796.232> 475 150<691.844 796.232>
LayerCount: 2
Fore
SplineSet
300 800 m 1
 400 800 l 1
 300 625 l 1
 200 625 l 1
 300 800 l 1
25 800 m 2
 75 800 l 2
 93.4501953125 800 125 795.7109375 125 750 c 0
 125 704.2890625 91.4208984375 675 50 675 c 0
 8.5791015625 675 -25 704.2890625 -25 750 c 0
 -25 795.7109375 6.5380859375 800 25 800 c 2
525 800 m 2
 575 800 l 2
 593.450195312 800 625 795.7109375 625 750 c 0
 625 704.2890625 591.420898438 675 550 675 c 0
 508.579101562 675 475 704.2890625 475 750 c 0
 475 795.7109375 506.538085938 800 525 800 c 2
EndSplineSet
EndChar

StartChar: beta
Encoding: 946 946 473
Width: 800
Flags: W
HStem: 0 100<200 358.13> 400 100<200 358.801> 700 100<228.578 370.45>
VStem: 0 200<-200 0 100 400 500 673.438> 400 200<142.832 356.989> 400 175<535.279 670.423>
LayerCount: 2
Fore
SplineSet
300 800 m 0xf8
 474.999023438 800 575 700 575 600 c 0xf4
 575 543.763671875 559.186523438 487.52734375 514.22265625 449.076171875 c 1
 573.16796875 403.47265625 600 334.779296875 600 275 c 2
 600 225 l 2
 600 125 524.999023438 0 350 0 c 2
 300 0 l 1
 200 0 l 1
 200 -200 l 1
 0 -200 l 1
 0 600 l 2
 0 700 125 800 300 800 c 0xf8
300 700 m 0
 250 700 200 675 200 600 c 2
 200 500 l 1
 300 500 l 2
 325 500 400 525 400 600 c 0
 400 675 348.28515625 700 300 700 c 0
200 400 m 1
 200 100 l 1
 300 100 l 2
 350 100 400 150 400 225 c 2
 400 275 l 2xf8
 400 350 348.284179688 400 300 400 c 2
 200 400 l 1
EndSplineSet
EndChar

StartChar: uni03D0
Encoding: 976 976 474
Width: 800
Flags: W
HStem: 0 100<200 358.13> 400 100<200 358.801> 700 100<228.578 370.45>
VStem: 0 200<100 400 500 673.438> 400 200<142.832 356.989> 400 175<535.279 670.423>
LayerCount: 2
Fore
SplineSet
300 800 m 0xf8
 474.999023438 800 575 700 575 600 c 0xf4
 575 543.763671875 559.186523438 487.52734375 514.22265625 449.076171875 c 1
 573.16796875 403.47265625 600 334.779296875 600 275 c 2
 600 225 l 2
 600 125 524.999023438 0 350 0 c 2
 300 0 l 1
 200 0 l 1
 0 0 l 1
 0 600 l 2
 0 700 125 800 300 800 c 0xf8
300 700 m 0
 250 700 200 675 200 600 c 2
 200 500 l 1
 300 500 l 2
 325 500 400 525 400 600 c 0
 400 675 348.28515625 700 300 700 c 0
200 400 m 1
 200 100 l 1
 300 100 l 2
 350 100 400 150 400 225 c 2
 400 275 l 2xf8
 400 350 348.284179688 400 300 400 c 2
 200 400 l 1
EndSplineSet
EndChar

StartChar: Epsilontonos
Encoding: 904 904 477
Width: 800
Flags: W
HStem: 0 100<400 600> 400 100<400 575> 625 175 700 100<400 600>
VStem: 0 200 200 200<100 400 500 700>
LayerCount: 2
Fore
SplineSet
600 0 m 1xd4
 200 0 l 1
 200 800 l 1
 600 800 l 1
 600 700 l 1
 400 700 l 1
 400 500 l 1
 575 500 l 1
 575 400 l 1
 400 400 l 1
 400 100 l 1
 600 100 l 1
 600 0 l 1xd4
EndSplineSet
Refer: 464 900 N 1 0 0 1 -200 0 2
EndChar

StartChar: Etatonos
Encoding: 905 905 478
Width: 800
Flags: W
HStem: 0 21G<200 350 450 600> 0 21G<200 350 450 600> 400 100<350 450> 625 175 780 20G<200 350 450 600>
VStem: 0 200 200 150<0 400 500 800> 450 150<0 400 500 800>
LayerCount: 2
Fore
SplineSet
200 800 m 1xab
 350 800 l 1
 350 500 l 1
 450 500 l 1
 450 800 l 1
 600 800 l 1
 600 0 l 1
 450 0 l 1
 450 400 l 1
 350 400 l 1
 350 0 l 1
 200 0 l 1
 200 800 l 1xab
EndSplineSet
Refer: 464 900 N 1 0 0 1 -200 0 2
EndChar

StartChar: Iotatonos
Encoding: 906 906 479
Width: 800
Flags: W
HStem: 0 100<200 300 500 600> 625 175 700 100<200 300 500 600>
VStem: 0 200 300 200<100 700>
LayerCount: 2
Fore
SplineSet
200 800 m 5xb8
 600 800 l 5
 600 700 l 5
 500 700 l 5
 500 100 l 5
 600 100 l 5
 600 0 l 5
 200 0 l 5
 200 100 l 5
 300 100 l 5
 300 700 l 5
 200 700 l 5
 200 800 l 5xb8
EndSplineSet
Refer: 464 900 N 1 0 0 1 -200 0 2
EndChar

StartChar: Omicrontonos
Encoding: 908 908 480
Width: 800
Flags: W
HStem: 0 100<321.974 378.026> 625 175 700 100<322.854 377.74>
VStem: 0 200 100 200<171.478 628.522> 400 200<171.478 631.878>
LayerCount: 2
Fore
SplineSet
400 375 m 2xac
 400 425 l 2
 400 550 400 700 350 700 c 0
 300 700 300 550 300 425 c 2
 300 375 l 2
 300 250 300 100 350 100 c 0
 400 100 400 250 400 375 c 2xac
100 375 m 2
 100 425 l 2
 100 625 150.00390625 798.756835938 350 800 c 0
 554.645507812 801.272460938 600 625 600 425 c 2
 600 375 l 2
 600 175 550 0 350 0 c 0
 150 0 100 175 100 375 c 2
EndSplineSet
Refer: 464 900 N 1 0 0 1 -200 0 2
EndChar

StartChar: Upsilontonos
Encoding: 910 910 481
Width: 800
Flags: W
HStem: 0 21G<300 500> 0 21G<300 500> 625 175 780 20G<200 305 495 600>
VStem: 0 200 200 100<766.4 800> 300 200<0 333.6> 500 100<766.4 800>
LayerCount: 2
Fore
SplineSet
300 300 m 1x92
 200 700 l 1
 200 800 l 1
 300 800 l 1
 400 400 l 1
 500 800 l 1
 600 800 l 1
 600 700 l 1x95
 500 300 l 1
 500 0 l 1
 300 0 l 1
 300 300 l 1x92
EndSplineSet
Refer: 464 900 N 1 0 0 1 -200 0 2
EndChar

StartChar: alpha
Encoding: 945 945 483
Width: 800
Flags: W
HStem: 0 100<198.222 269.715 537.991 600> 500 100<198.222 269.715 537.991 600>
VStem: 0 175<119.106 480.852> 300 200<138.186 461.814>
LayerCount: 2
Fore
SplineSet
225 600 m 0
 282.737304688 600 345.780273438 557.287109375 396.939453125 496.583984375 c 1
 449.045898438 557.287109375 519.16796875 600 600 600 c 1
 600 500 l 1
 522.841796875 502.543945312 500 425 500 350 c 0
 500 333.81640625 498.159179688 317.033203125 494.88671875 300 c 1
 498.159179688 282.966796875 500 266.18359375 500 250 c 0
 500 175 522.841796875 97.4560546875 600 100 c 1
 600 0 l 1
 519.16796875 0 449.045898438 42.712890625 396.939453125 103.416015625 c 1
 345.780273438 42.712890625 282.737304688 0 225 0 c 0
 50.0009765625 0 0 125 0 225 c 2
 0 375 l 2
 0 475 50.0009765625 599.815429688 225 600 c 0
225 500 m 0
 200 500 175 450 175 375 c 2
 175 225 l 2
 175 150 200 100 225 100 c 0
 250 100 300 125 300 250 c 0
 300 266.18359375 301.540039062 282.966796875 304.35546875 300 c 1
 301.540039062 317.033203125 300 333.81640625 300 350 c 0
 300 475 250 500 225 500 c 0
EndSplineSet
EndChar

StartChar: delta
Encoding: 948 948 484
Width: 800
Flags: W
HStem: 0 100<242.472 357.528> 500 100<241.049 355.529> 700 100<187.159 486.816>
VStem: 0 200<142.832 458.927> 25 150<613.457 684.375> 400 200<142.832 457.182>
LayerCount: 2
Fore
SplineSet
300 800 m 0xec
 475 800 550 750 550 750 c 1
 550 650 l 1
 550 650 454.364257812 700 300 700 c 0
 200 700 175 675 175 650 c 0xec
 175 602.1015625 250 600 300 600 c 0
 475 600.091796875 600 475 600 375 c 2
 600 225 l 2
 600 125 475 0 300 0 c 0
 125 0 0 125 0 225 c 2
 0 375 l 2xf4
 0 429.290039062 36.9013671875 490.883789062 98.5859375 535.8984375 c 1
 57.1611328125 557.828125 25.943359375 593.1171875 25 650 c 0
 23.755859375 724.989257812 125 800 300 800 c 0xec
300 500 m 0
 250 500 200 450 200 375 c 2
 200 225 l 2xf4
 200 150 250 100 300 100 c 0
 350 100 400 150.385742188 400 225 c 2
 400 375 l 2
 400 450 350 500 300 500 c 0
EndSplineSet
EndChar

StartChar: epsilon
Encoding: 949 949 485
Width: 800
Flags: W
HStem: 0 100<246.486 599.927> 225 150<221.575 450> 500 100<246.443 599.927>
VStem: 0 200<136.267 200.793 399.457 464.142>
CounterMasks: 1 e0
LayerCount: 2
Fore
SplineSet
350 600 m 0
 500 600 600 575 600 575 c 1
 600 475 l 1
 600 475 500 500 400 500 c 0
 300 500 200 475 200 425 c 0
 200 400 275 375 350 375 c 2
 450 375 l 1
 450 225 l 1
 350 225 l 2
 275 225 200 200 200 175 c 0
 200 125 300 100 400 100 c 0
 500 100 600 125 600 125 c 1
 600 25 l 1
 600 25 500 0 350 0 c 0
 200 0 0.7529296875 50.0029296875 0 150 c 0
 -0.419921875 205.840820312 55.572265625 258.619140625 124.87890625 299.01171875 c 1
 55.8291015625 338.829101562 0 391.6875 0 450 c 0
 0 550 200 600 350 600 c 0
EndSplineSet
EndChar

StartChar: zeta
Encoding: 950 950 486
Width: 800
Flags: W
HStem: 0 100<235.629 491.396> 700 100<0 350>
VStem: 0 200<147.656 347.391> 500 100<-93.7654 -11.4706>
LayerCount: 2
Fore
SplineSet
0 800 m 1
 600 800 l 1
 600 750 l 1
 350 500 l 2
 300 450 197.301757812 355.397460938 200 250 c 0
 203.19921875 125.041015625 250 100 300 100 c 2
 400 100 l 2
 473.387695312 100 600 75 600 -50 c 0
 600 -150 550 -200 450 -200 c 1
 450 -100 l 1
 450 -100 500 -100 500 -50 c 0
 500 0 450 0 350 0 c 2
 250 0 l 2
 150 0 0 100 0 250 c 0
 0 400 200 550 250 600 c 2
 350 700 l 1
 0 700 l 1
 0 800 l 1
EndSplineSet
EndChar

StartChar: sigma1
Encoding: 962 962 487
Width: 800
Flags: W
HStem: 0 100<267.792 441.396> 500 100<267.792 600>
VStem: 0 200<171.984 428.01> 450 100<-93.7654 -11.4707>
LayerCount: 2
Fore
SplineSet
300 600 m 2
 600 600 l 1
 600 500 l 1
 325 500 l 2
 275 500 200 450 200 300 c 0
 200 150 275 100 325 100 c 2
 350 100 l 2
 423.387695312 100 550 74.9990234375 550 -50 c 0
 550 -150 500 -200 400 -200 c 1
 400 -100 l 1
 400 -100 450 -100 450 -50 c 0
 450 0 400 0 300 0 c 0
 125.000976562 0 0 125 0 225 c 2
 0 375 l 2
 0 475 125.000976562 599.907226562 300 600 c 2
EndSplineSet
EndChar

StartChar: phi
Encoding: 966 966 488
Width: 800
Flags: W
HStem: 0 100<252.204 300 500 540.095> 500 100<259.905 300 526.195 569.276>
VStem: 0 200<168.753 424.671> 300 200<-200 0 100 376.132> 600 200<175.329 464.572>
CounterMasks: 1 38
LayerCount: 2
Fore
SplineSet
300 600 m 1
 300 500 l 1
 250 500 200 400 200 300 c 0
 200 175 250 100 300 100 c 1
 300 225 l 2
 300 425 428.411132812 599.100585938 550 600 c 0
 725 600 798.211914062 499.9921875 800 300 c 0
 801.798828125 98.7255859375 675 0 500 0 c 1
 500 -200 l 1
 300 -200 l 1
 300 0 l 1
 125 0 1.7880859375 100.0078125 0 300 c 0
 -1.798828125 501.274414062 125 600 300 600 c 1
550 500 m 0
 525 500 500 425 500 300 c 2
 500 100 l 1
 550 100 600 200 600 300 c 0
 600 425 572.114257812 496.401367188 550 500 c 0
EndSplineSet
EndChar

StartChar: chi
Encoding: 967 967 489
Width: 800
Flags: W
HStem: 580 20G<0 185 415 600>
LayerCount: 2
Fore
SplineSet
0 600 m 1
 175 600 l 1
 300 350 l 1
 425 600 l 1
 600 600 l 1
 400 200 l 1
 600 -200 l 1
 425 -200 l 1
 300 50 l 1
 175 -200 l 1
 0 -200 l 1
 200 200 l 1
 0 600 l 1
EndSplineSet
EndChar

StartChar: phi1
Encoding: 981 981 496
Width: 800
Flags: W
HStem: 0 100<232.87 275 425 467.205> 500 100<232.795 275 425 467.13> 780 20G<275 425>
VStem: -0.00195312 175<170.371 417.405> 275 150<-200 0 100 500 600 800> 525 175<182.595 429.629>
LayerCount: 2
Fore
SplineSet
275 800 m 1
 425 800 l 1
 425 600 l 1
 578.125 600 698.435546875 499.9921875 700 300 c 0
 701.57421875 98.7255859375 578.125 0 425 0 c 1
 425 -200 l 1
 275 -200 l 1
 275 0 l 1
 121.875 0 1.5625 100.0078125 -0.001953125 300 c 0
 -1.576171875 501.274414062 121.875 600 275 600 c 1
 275 800 l 1
275 500 m 1
 231.25 500 174.998046875 400 174.998046875 300 c 0
 174.998046875 175 231.25 100 275 100 c 1
 275 500 l 1
425 500 m 1
 425 100 l 1
 468.75 100 525 200 525 300 c 0
 525 425 468.75 500 425 500 c 1
EndSplineSet
EndChar

StartChar: uni03CF
Encoding: 975 975 497
Width: 800
Flags: W
HStem: 0 21G<0 200> 0 21G<0 200> 780 20G<0 200 455 600>
VStem: 0 200<0 325 525 800>
LayerCount: 2
Fore
SplineSet
0 800 m 1xb0
 200 800 l 1
 200 525 l 1
 475 800 l 1
 600 800 l 1
 600 725 l 1
 300 425 l 1
 600 125 l 1
 600 0 l 1x70
 400 -200 l 1
 300 -200 l 1
 300 -100 l 1
 462.5 62.5 l 1
 200 325 l 1
 200 0 l 1
 0 0 l 1
 0 800 l 1xb0
EndSplineSet
EndChar

StartChar: theta1
Encoding: 977 977 498
Width: 800
Flags: W
HStem: 0.0175781 100<200.844 298.929> 325 150<207.412 325 500 600> 700.018 100<203.397 298.929>
VStem: 0 175<137.987 300 505.011 669.64> 325 175<143.23 325 475 656.794>
LayerCount: 2
Fore
SplineSet
250 800.017578125 m 0
 475 800.0390625 500 625 500 475 c 1
 600 475 l 1
 600 325 l 1
 500 325 l 1
 500 175 475 0.0341796875 250 0.017578125 c 0
 25 0.0009765625 0 175 0 300 c 1
 175 300 l 1
 175 200 175 100.000976562 250 100.017578125 c 0
 325 100.034179688 325 200 325 325 c 1
 300 325 l 2
 100 325 0.8994140625 428.411132812 0 550 c 0
 0 675 75 800.000976562 250 800.017578125 c 0
250 700.017578125 m 0
 175 700.000976562 175 600 175 550 c 0
 175 525 200 475 325 475 c 1
 325 600 325 700.034179688 250 700.017578125 c 0
EndSplineSet
EndChar

StartChar: Upsilon1
Encoding: 978 978 499
Width: 800
Flags: W
HStem: 0 21G<200 400> 0 21G<200 400> 600 21G<625 700> 780 20G<0 135>
VStem: 200 200<0 300>
LayerCount: 2
Fore
SplineSet
0 800 m 1xb8
 125 800 l 1
 300 450 l 1
 300 450 386.7890625 625 425 700 c 0
 463.2109375 775 487.721679688 801.272460938 575 800 c 0
 675 800 700 700 700 600 c 1
 625 600 l 1
 625 600 625 650 575 650 c 1
 400 300 l 1
 400 0 l 1
 200 0 l 1
 200 300 l 1
 0 700 l 1
 0 800 l 1xb8
EndSplineSet
EndChar

StartChar: omega1
Encoding: 982 982 500
Width: 800
Flags: W
HStem: 0 100<184.453 249.334 451.415 515.546> 500 100<0 12.2266 156.736 275 425 543.264 687.773 700>
VStem: 0 153.125<128.838 498.563> 275 150<142.957 500> 546.875 153.125<128.838 498.563>
CounterMasks: 1 38
LayerCount: 2
Fore
SplineSet
0 600 m 1
 43.75 600 l 1
 175 600 l 1
 275 600 l 1
 306.25 600 l 1
 393.75 600 l 1
 700 600 l 1
 700 500 l 1
 687.7734375 500 l 1
 694.672851562 469.435546875 700 434.767578125 700 400 c 2
 700 225 l 2
 700 125 634.372070312 1.0400390625 481.25 0 c 0
 420.138671875 -0.4150390625 378.208984375 63.4130859375 350.7265625 142.080078125 c 1
 323.615234375 63.666015625 281.580078125 0 218.75 0 c 0
 65.625 0 0 125 0 225 c 2
 0 400 l 2
 0 434.767578125 5.3271484375 469.435546875 12.2265625 500 c 1
 0 500 l 1
 0 600 l 1
159.296875 500 m 1
 155.838867188 469.397460938 153.125 434.826171875 153.125 400 c 2
 153.125 225 l 2
 153.125 150 189.16796875 100.899414062 218.75 100 c 0
 240.6171875 99.3349609375 275 150.385742188 275 225 c 2
 275 500 l 1
 159.296875 500 l 1
425 500 m 1
 425 225 l 2
 425 150.385742188 459.3828125 99.3349609375 481.25 100 c 0
 510.83203125 100.899414062 546.875 150 546.875 225 c 2
 546.875 400 l 2
 546.875 434.826171875 544.161132812 469.397460938 540.703125 500 c 1
 425 500 l 1
EndSplineSet
EndChar

StartChar: uni03D7
Encoding: 983 983 501
Width: 800
Flags: W
HStem: 0 100<0 48.6733> 500 100<0 44.7773 555.351 600>
VStem: 100 149.488<324.488 425.464> 350.467 149.533<165.655 283.391> 500 100<-93.2129 36.9417>
LayerCount: 2
Fore
SplineSet
0 600 m 1xf0
 119.806640625 600 241.1875 509.240234375 249.48828125 324.48828125 c 1
 380.58203125 455.58203125 l 1
 425.41796875 552.251953125 513.119140625 600 600 600 c 1
 600 500 l 1
 550 500 500 400 500 300 c 0
 500 175 550 100 600 100 c 1
 600 0 l 1
 600 -50 l 2
 600 -150 550 -200 450 -200 c 1
 450 -100 l 1
 450 -100 500 -100 500 -50 c 2
 500 22.63671875 l 1xe8
 419.779296875 60.9140625 356.411132812 147.818359375 350.466796875 283.390625 c 1
 218.287109375 145.986328125 l 1
 173.432617188 48.70703125 87.177734375 0 0 0 c 1
 0 100 l 1
 50 100 100 175 100 300 c 0
 100 400 50 500 0 500 c 1
 0 600 l 1xf0
EndSplineSet
EndChar

StartChar: uni03D3
Encoding: 979 979 502
Width: 800
Flags: W
HStem: 0 21G<300 500> 0 21G<300 500> 600 21G<625 700> 625 175 780 20G<200 305 495 650>
VStem: 0 200 200 100<766.4 800> 300 200<0 333.6>
LayerCount: 2
Fore
SplineSet
200 800 m 1xaa
 300 800 l 1xaa
 400 400 l 1
 500 800 l 1
 600 800 l 2
 700 800 700 700 700 600 c 1
 625 600 l 1
 625 600 622.6484375 648.727539062 600 650 c 0
 587.5 650 575 600 575 600 c 1
 500 300 l 1
 500 0 l 1
 300 0 l 1
 300 300 l 1xa9
 200 700 l 1
 200 800 l 1xaa
EndSplineSet
Refer: 464 900 N 1 0 0 1 -200 0 2
EndChar

StartChar: ogonek
Encoding: 731 731 504
Width: 800
Flags: W
HStem: -200 200<200 300> -200 75<400 500>
VStem: 100 200<-109.46 -33.5107>
LayerCount: 2
Fore
SplineSet
350 -25 m 5xa0
 350 -25 300 -25 300 -75 c 4
 300 -125 400 -125 400 -125 c 5
 500 -125 l 5
 500 -200 l 5x60
 200 -200 l 5
 200 -200 100 -200 100 -100 c 4
 100 -7.908203125 200 0 200 0 c 5
 350 0 l 5
 350 -25 l 5xa0
EndSplineSet
EndChar

StartChar: tilde
Encoding: 732 732 505
Width: 800
Flags: W
HStem: 625 75<376.816 450> 700 100<150 227.939>
LayerCount: 2
Fore
SplineSet
250 800 m 2x40
 400 800 325.624023438 700 450 700 c 1x80
 500 775 l 1
 600 775 l 1
 550 700 l 2x40
 522.264648438 658.397460938 500 625 400 625 c 2
 350 625 l 2x80
 200 625 265.978515625 702.758789062 150 700 c 1x40
 100 625 l 1
 0 625 l 1x80
 50 700 l 2
 77.7353515625 741.602539062 97.826171875 799.100585938 200 800 c 2
 250 800 l 2x40
EndSplineSet
EndChar

StartChar: uni02BC
Encoding: 700 700 506
Width: 800
Flags: W
HStem: 500 300
VStem: 50 150<587.5 725>
LayerCount: 2
Fore
SplineSet
50 500 m 5
 0 550 l 5
 33.9052734375 571.18359375 50 575 50 600 c 4
 50 625 -1.2724609375 620.33984375 0 700 c 4
 0.798828125 749.993164062 50 800 100 800 c 4
 150 800 200 750 200 700 c 4
 200 575 94.08203125 525 50 500 c 5
EndSplineSet
EndChar

StartChar: uni0410
Encoding: 1040 1040 507
Width: 800
Flags: W
HStem: 0 21G<0 155 445 600> 0 21G<0 155 445 600> 200 100<225 375> 780 20G<195 405>
LayerCount: 2
Fore
SplineSet
200 800 m 1xb0
 400 800 l 1
 600 0 l 1
 450 0 l 1
 400 200 l 1
 200 200 l 1
 150 0 l 1
 0 0 l 1
 200 800 l 1xb0
225 300 m 1
 375 300 l 1
 300 600 l 1
 225 300 l 1
EndSplineSet
EndChar

StartChar: uni0411
Encoding: 1041 1041 508
Width: 800
Flags: W
HStem: 0 100<200 358.13> 400 100<200 358.13> 700 100<200 575>
VStem: 0 200<100 400 500 700> 400 200<142.832 356.989>
LayerCount: 2
Fore
SplineSet
0 800 m 1
 575 800 l 1
 575 700 l 1
 200 700 l 1
 200 500 l 1
 350 500 l 2
 525 500 600 334.779296875 600 275 c 2
 600 225 l 2
 600 125 525 0 350 0 c 2
 200 0 l 1
 0 0 l 1
 0 800 l 1
200 400 m 1
 200 100 l 1
 300 100 l 2
 350 100 400 150 400 225 c 2
 400 275 l 2
 400 350 348.28515625 400 300 400 c 2
 200 400 l 1
EndSplineSet
EndChar

StartChar: uni0412
Encoding: 1042 1042 509
Width: 800
Flags: W
HStem: 0 100<200 358.13> 400 100<200 346.69> 700 100<200 346.59>
VStem: 0 200<100 400 500 700> 375 200<527.099 670.423> 400 200<142.832 356.989>
LayerCount: 2
Fore
SplineSet
0 800 m 1xf4
 200 800 l 1
 350 800 l 2
 525 800 575 700 575 600 c 0xf8
 575 543.763671875 559.186523438 487.52734375 514.22265625 449.076171875 c 1
 573.16796875 403.47265625 600 334.780273438 600 275 c 2
 600 225 l 2
 600 125 525 0 350 0 c 2
 200 0 l 1
 0 0 l 1
 0 800 l 1xf4
200 700 m 1
 200 500 l 1
 275 500 l 2
 325 500 375 525 375 600 c 0
 375 675 323.28515625 700 275 700 c 2
 200 700 l 1
200 400 m 1
 200 100 l 1
 300 100 l 2
 350 100 400 150 400 225 c 2
 400 275 l 2xf4
 400 350 348.28515625 400 300 400 c 2
 200 400 l 1
EndSplineSet
EndChar

StartChar: uni0413
Encoding: 1043 1043 510
Width: 800
Flags: W
HStem: 0 21G<0 200> 0 21G<0 200> 700 100<200 600>
VStem: 0 200<0 700>
LayerCount: 2
Fore
SplineSet
0 800 m 1xb0
 600 800 l 1
 600 700 l 1
 200 700 l 1
 200 0 l 1
 0 0 l 1
 0 800 l 1xb0
EndSplineSet
EndChar

StartChar: uni0415
Encoding: 1045 1045 511
Width: 800
Flags: W
HStem: 0 100<200 600> 400 100<200 500> 700 100<200 600>
VStem: 0 200<100 400 500 700>
LayerCount: 2
Fore
SplineSet
0 800 m 1
 600 800 l 1
 600 700 l 1
 200 700 l 1
 200 500 l 1
 500 500 l 1
 500 400 l 1
 200 400 l 1
 200 100 l 1
 600 100 l 1
 600 0 l 1
 0 0 l 1
 0 800 l 1
EndSplineSet
EndChar

StartChar: uni041A
Encoding: 1050 1050 512
Width: 800
Flags: W
HStem: 0 21G<0 200 505 600> 0 21G<0 200 505 600> 780 20G<0 200 431.818 600>
VStem: 0 200<0 325 525 800>
LayerCount: 2
Fore
SplineSet
200 325 m 1xb0
 200 0 l 1
 0 0 l 1
 0 800 l 1
 200 800 l 1
 200 525 l 1
 450 800 l 1
 600 800 l 1
 600 725 l 1
 300 425 l 1
 600 125 l 1
 600 0 l 1
 525 0 l 1
 200 325 l 1xb0
EndSplineSet
EndChar

StartChar: uni0416
Encoding: 1046 1046 513
Width: 800
Flags: W
HStem: 0 21G<0 110 275 425 590 700> 0 21G<0 110 275 425 590 700> 780 20G<0 110 275 425 581.25 700>
VStem: 275 150<0 350 500 800>
LayerCount: 2
Fore
SplineSet
275 0 m 1xb0
 275 350 l 1
 100 0 l 1
 0 0 l 1
 0 125 l 1
 150 425 l 1
 0 725 l 1
 0 800 l 1
 100 800 l 1
 250 500 l 1
 275 500 l 1
 275 800 l 1
 425 800 l 1
 425 500 l 1
 450 500 l 1
 590.625 800 l 1
 700 800 l 1
 700 725 l 1
 550 425 l 1
 700 125 l 1
 700 0 l 1
 600 0 l 1
 425 350 l 1
 425 0 l 1
 275 0 l 1xb0
EndSplineSet
EndChar

StartChar: uni0437
Encoding: 1079 1079 514
Width: 800
Flags: W
HStem: 0 100<0.0729561 353.514> 225 150<150 378.425> 500 100<0.0729561 353.557>
VStem: 400 200<136.267 200.793 399.457 464.142>
CounterMasks: 1 e0
LayerCount: 2
Fore
SplineSet
250 600 m 0
 400 600 600 550 600 450 c 0
 600 391.6875 544.170898438 338.829101562 475.12109375 299.01171875 c 1
 544.427734375 258.619140625 600.419921875 205.840820312 600 150 c 0
 599.247070312 50.0029296875 400 0 250 0 c 0
 100 0 0 25 0 25 c 1
 0 125 l 1
 0 125 100 100 200 100 c 0
 300 100 400 125 400 175 c 0
 400 200 325 225 250 225 c 2
 150 225 l 1
 150 375 l 1
 250 375 l 2
 325 375 400 400 400 425 c 0
 400 475 300 500 200 500 c 0
 100 500 0 475 0 475 c 1
 0 575 l 1
 0 575 100 600 250 600 c 0
EndSplineSet
EndChar

StartChar: uni0417
Encoding: 1047 1047 515
Width: 800
Flags: W
HStem: 0 100<19.4512 329.652> 325 150<100 364.641> 700 100<19.4512 329.652>
VStem: 400 200<159.435 290.194 509.806 640.565>
CounterMasks: 1 e0
LayerCount: 2
Fore
SplineSet
266.666015625 800 m 0
 466.666015625 800 600 708.333007812 600 575 c 0
 600 511.081054688 545.404296875 447.205078125 475.4140625 400 c 1
 545.404296875 352.794921875 600 288.918945312 600 225 c 0
 600 91.6669921875 466.666015625 0 266.666015625 0 c 0
 66.666015625 0 0 33.333984375 0 33.333984375 c 1
 0 133.333984375 l 1
 0 133.333984375 66.6669921875 100 200 100 c 0
 333.333007812 100 400 158.333007812 400 225 c 0
 400 275 366.666015625 325 266.666015625 325 c 2
 100 325 l 1
 100 475 l 1
 266.666015625 475 l 2
 366.666015625 475 400 525 400 575 c 0
 400 641.666992188 333.333007812 700 200 700 c 0
 66.6669921875 700 0 666.666015625 0 666.666015625 c 1
 0 766.666015625 l 1
 0 766.666015625 66.666015625 800 266.666015625 800 c 0
EndSplineSet
EndChar

StartChar: uni041F
Encoding: 1055 1055 516
Width: 800
Flags: W
HStem: 0 21G<0 200 400 600> 0 21G<0 200 400 600> 700 100<200 400>
VStem: 0 200<0 700> 400 200<0 700>
LayerCount: 2
Fore
SplineSet
0 0 m 1xb8
 0 800 l 1
 600 800 l 1
 600 0 l 1
 400 0 l 1
 400 700 l 1
 200 700 l 1
 200 0 l 1
 0 0 l 1xb8
EndSplineSet
EndChar

StartChar: uni0420
Encoding: 1056 1056 517
Width: 800
Flags: W
HStem: 0 21G<0 200> 0 21G<0 200> 200 100<200 324.272> 700 100<200 324.272>
VStem: 0 200<0 200 300 700> 400 200<370.898 629.102>
LayerCount: 2
Fore
SplineSet
0 800 m 1xbc
 200 800 l 1
 300 800 l 2
 475 800 600 650 600 550 c 2
 600 450 l 2
 600 350 475 200 300 200 c 2
 200 200 l 1
 200 0 l 1
 0 0 l 1
 0 800 l 1xbc
250 700 m 2
 200 700 l 1
 200 300 l 1
 250 300 l 2
 300 300 400 350 400 450 c 2
 400 550 l 2
 400 650 300 700 250 700 c 2
EndSplineSet
EndChar

StartChar: uni0418
Encoding: 1048 1048 518
Width: 800
Flags: W
HStem: 0 21G<0 200 400 600> 0 21G<0 200 400 600> 780 20G<0 200 400 600>
VStem: 0 200<0 325 475 800> 400 200<0 525 675 800>
LayerCount: 2
Fore
SplineSet
400 800 m 1xb8
 600 800 l 1
 600 0 l 1
 400 0 l 1
 400 525 l 1
 200 325 l 1
 200 0 l 1
 0 0 l 1
 0 800 l 1
 200 800 l 1
 200 475 l 1
 400 675 l 1
 400 800 l 1xb8
EndSplineSet
EndChar

StartChar: uni041C
Encoding: 1052 1052 519
Width: 800
Flags: W
HStem: 0 21G<0 200 400 600> 0 21G<0 200 400 600> 780 20G<0 113.333 486.667 600>
VStem: 0 200<0 400> 400 200<0 400>
LayerCount: 2
Fore
SplineSet
100 800 m 1xb8
 300 500 l 1
 500 800 l 1
 600 800 l 1
 600 0 l 1
 400 0 l 1
 400 400 l 1
 300 250 l 1
 200 400 l 1
 200 0 l 1
 0 0 l 1
 0 800 l 1
 100 800 l 1xb8
EndSplineSet
EndChar

StartChar: uni041E
Encoding: 1054 1054 520
Width: 800
Flags: W
HStem: 0 100<246.082 353.918> 700 100<246.082 353.918>
VStem: -0 200<199.402 600.598> 400 200<199.402 600.598>
LayerCount: 2
Fore
SplineSet
400 375 m 2
 400 425 l 2
 400 550 400 700 300 700 c 0
 200 700 200 550 200 425 c 2
 200 375 l 2
 200 250 200 100 300 100 c 0
 400 100 400 250 400 375 c 2
-0 375 m 2
 -0 425 l 2
 -0 625 75 800 300 800 c 0
 525 800 600 625 600 425 c 2
 600 375 l 2
 600 175 525 0 300 0 c 0
 75 0 -0 175 -0 375 c 2
EndSplineSet
EndChar

StartChar: uni041D
Encoding: 1053 1053 521
Width: 800
Flags: W
HStem: 0 21G<0 200 400 600> 0 21G<0 200 400 600> 400 100<200 400> 780 20G<0 200 400 600>
VStem: 0 200<0 400 500 800> 400 200<0 400 500 800>
LayerCount: 2
Fore
SplineSet
0 800 m 1xbc
 200 800 l 1
 200 500 l 1
 400 500 l 1
 400 800 l 1
 600 800 l 1
 600 0 l 1
 400 0 l 1
 400 400 l 1
 200 400 l 1
 200 0 l 1
 0 0 l 1
 0 800 l 1xbc
EndSplineSet
EndChar

StartChar: uni0419
Encoding: 1049 1049 522
Width: 800
Flags: W
HStem: 0 21G<0 200 400 600> 0 21G<0 200 400 600> 580 20G<0 200 400 600> 625 75<210.4 389.6> 780 20G<100 150 450 500>
VStem: 0 200<0 75 325 600> 100 50<755.532 800> 400 200<0 275 525 600> 450 50<755.147 800>
LayerCount: 2
Fore
SplineSet
400 600 m 1xbd
 600 600 l 1
 600 0 l 1
 400 0 l 1
 400 275 l 1
 200 75 l 1
 200 0 l 1
 0 0 l 1
 0 600 l 1
 200 600 l 1
 200 325 l 1
 400 525 l 1
 400 600 l 1xbd
EndSplineSet
Refer: 409 728 N 1 0 0 1 0 0 2
EndChar

StartChar: uni041B
Encoding: 1051 1051 523
Width: 800
Flags: W
HStem: 0 21G<0 99.9995 400 600> 0 21G<0 99.9995 400 600> 700 100<225 400>
VStem: 400 200<0 700>
LayerCount: 2
Fore
SplineSet
100 800 m 1xb0
 600 800 l 1
 600 700 l 1
 600 0 l 1
 400 0 l 1
 400 700 l 1
 225 700 l 1
 175 200 l 2
 164.743164062 97.4345703125 174.999023438 0 25 0 c 2
 0 0 l 1
 0 100 l 1
 31.5537109375 101.272460938 38.1240234375 181.243164062 50 300 c 2
 100 800 l 1xb0
EndSplineSet
EndChar

StartChar: uni0414
Encoding: 1044 1044 524
Width: 800
Flags: W
HStem: -125 225<0 99.0611 600 650> 0 100<100 106.554 239.248 400> 700 100<300 400>
VStem: 0 100<-125 0> 400 200<100 700> 550 100<-125 0>
LayerCount: 2
Fore
SplineSet
175 800 m 1xb8
 600 800 l 1
 600 700 l 1
 600 100 l 1xb8
 650 100 l 1
 650 -125 l 1
 550 -125 l 1xb4
 550 0 l 1x74
 400 0 l 1
 100 0 l 1x78
 100 -125 l 1
 0 -125 l 1
 0 100 l 1
 75 100 l 2
 106.553710938 101.272460938 113.124023438 181.243164062 125 300 c 2
 175 800 l 1xb8
300 700 m 1
 250 200 l 2
 246.477539062 164.780273438 245.251953125 130.272460938 239.248046875 100 c 1
 400 100 l 1x78
 400 700 l 1
 300 700 l 1
EndSplineSet
EndChar

StartChar: uni0434
Encoding: 1076 1076 525
Width: 800
Flags: W
HStem: 0 100<220.332 400> 500 100<325 400>
VStem: 0 100<-100 0> 400 200<100 500> 550 100<-100 0>
LayerCount: 2
Fore
SplineSet
175 600 m 1xf0
 600 600 l 1
 600 525 l 1
 600 100 l 1xf0
 650 100 l 1
 650 -100 l 1
 550 -100 l 1
 550 0 l 1xe8
 400 0 l 1
 100 0 l 1
 100 -100 l 1
 0 -100 l 1
 0 0 l 1
 0 100 l 1
 37.5 100 56.404296875 125.615234375 75 200 c 2
 175 600 l 1xf0
325 500 m 1
 250 200 l 2
 240.4296875 161.716796875 231.423828125 128.184570312 220.33203125 100 c 1
 400 100 l 1
 400 500 l 1
 325 500 l 1
EndSplineSet
EndChar

StartChar: uni0421
Encoding: 1057 1057 526
Width: 800
Flags: W
HStem: 0 100<246.082 364.827> 700 100<246.082 364.827>
VStem: 0 200<199.402 600.598> 400 200<131.836 225 575 668.164>
LayerCount: 2
Fore
SplineSet
400 225 m 1
 600 225 l 1
 600 175 575 0 300 0 c 0
 75 0 0 175 0 375 c 2
 0 425 l 2
 0 625 75 800 300 800 c 0
 575 800 600 625 600 575 c 1
 400 575 l 1
 400 600 400 700 300 700 c 0
 200 700 200 550 200 425 c 2
 200 375 l 2
 200 250 200 100 300 100 c 0
 400 100 400 200 400 225 c 1
EndSplineSet
EndChar

StartChar: uni0422
Encoding: 1058 1058 527
Width: 800
Flags: W
HStem: 0 21G<200 400> 0 21G<200 400> 700 100<0 200 400 600>
VStem: 200 200<0 700>
LayerCount: 2
Fore
SplineSet
0 800 m 1xb0
 600 800 l 1
 600 700 l 1
 400 700 l 1
 400 0 l 1
 200 0 l 1
 200 700 l 1
 0 700 l 1
 0 800 l 1xb0
EndSplineSet
EndChar

StartChar: uni0423
Encoding: 1059 1059 528
Width: 800
Flags: W
HStem: 0 100<0 104.565> 780 20G<0 160 440 600>
LayerCount: 2
Fore
SplineSet
0 0 m 1
 0 100 l 1
 50 100 100 100 125 150 c 0
 150 200 200 300 200 300 c 1
 0 700 l 1
 0 800 l 1
 150 800 l 1
 300 500 l 1
 450 800 l 1
 600 800 l 1
 600 700 l 1
 600 700 325 150 300 100 c 0
 250 0 200 0 0 0 c 1
EndSplineSet
EndChar

StartChar: uni0424
Encoding: 1060 1060 529
Width: 800
Flags: W
HStem: 0 21G<275 425> 0 21G<275 425> 100 100<222.727 275 425 477.273> 600 100<222.727 275 425 477.273> 780 20G<275 425>
VStem: 0 175<256.595 543.405> 275 150<0 100 200 600 700 800> 525 175<256.595 543.405>
CounterMasks: 1 07
LayerCount: 2
Fore
SplineSet
275 800 m 1xbf
 425 800 l 1
 425 700 l 1
 621.875 700 700 575 700 425 c 2
 700 375 l 2
 700 225 621.875 100 425 100 c 1
 425 0 l 1
 275 0 l 1
 275 100 l 1
 78.125 100 0 225 0 375 c 2
 0 425 l 2
 0 575 78.125 700 275 700 c 1
 275 800 l 1xbf
275 600 m 1
 231.25 600 175 550 175 425 c 2
 175 375 l 2
 175 250 231.25 200 275 200 c 1
 275 600 l 1
425 600 m 1
 425 200 l 1
 468.75 200 525 250 525 375 c 2
 525 425 l 2
 525 542.0078125 474.5546875 603.598632812 425 600 c 1
EndSplineSet
EndChar

StartChar: uni0425
Encoding: 1061 1061 530
Width: 800
Flags: W
HStem: 0 21G<0 185 415 600> 0 21G<0 185 415 600> 780 20G<0 185 415 600>
LayerCount: 2
Fore
SplineSet
0 800 m 1xa0
 175 800 l 1
 300 550 l 1
 425 800 l 1
 600 800 l 1
 400 400 l 1
 600 0 l 1
 425 0 l 1
 300 250 l 1
 175 0 l 1
 0 0 l 1
 200 400 l 1
 0 800 l 1xa0
EndSplineSet
EndChar

StartChar: uni0426
Encoding: 1062 1062 531
Width: 800
Flags: W
HStem: 0 100<200 400> 780 20G<0 200 400 600>
VStem: 0 200<100 800> 400 200<100 800> 550 100<-125 0>
LayerCount: 2
Fore
SplineSet
0 800 m 1xe8
 200 800 l 1
 200 100 l 1
 400 100 l 1
 400 800 l 1
 600 800 l 1
 600 100 l 1xf0
 650 100 l 1
 650 -125 l 1
 550 -125 l 1
 550 0 l 1
 0 0 l 1
 0 800 l 1xe8
EndSplineSet
EndChar

StartChar: uni0428
Encoding: 1064 1064 532
Width: 800
Flags: W
HStem: 0 100<175 275 425 525> 780 20G<0 175 275 425 525 700>
VStem: 0 175<100 800> 275 150<100 800> 525 175<100 800>
CounterMasks: 1 38
LayerCount: 2
Fore
SplineSet
700 800 m 1
 700 0 l 1
 0 0 l 1
 0 800 l 1
 175 800 l 1
 175 100 l 1
 275 100 l 1
 275 800 l 1
 425 800 l 1
 425 100 l 1
 525 100 l 1
 525 800 l 1
 700 800 l 1
EndSplineSet
EndChar

StartChar: uni0429
Encoding: 1065 1065 533
Width: 800
Flags: W
HStem: 0 100<175 275 425 525> 780 20G<0 175 275 425 525 700>
VStem: 0 175<100 800> 275 150<100 800> 525 175<100 800> 650 100<-100 0>
LayerCount: 2
Fore
SplineSet
0 800 m 1xf4
 175 800 l 1
 175 100 l 1
 275 100 l 1
 275 800 l 1
 425 800 l 1
 425 100 l 1
 525 100 l 1
 525 800 l 1
 700 800 l 1
 700 100 l 1xf8
 750 100 l 1
 750 -100 l 1
 650 -100 l 1
 650 0 l 1
 0 0 l 1
 0 800 l 1xf4
EndSplineSet
EndChar

StartChar: uni042A
Encoding: 1066 1066 534
Width: 800
Flags: W
HStem: 0 100<300 358.13> 400 100<300 358.13> 700 100<0 100>
VStem: 100 200<100 400 500 700> 400 200<142.832 356.989>
LayerCount: 2
Fore
SplineSet
100 700 m 1
 0 700 l 1
 0 800 l 1
 300 800 l 1
 300 500 l 1
 350 500 l 2
 525 500 600 334.779296875 600 275 c 2
 600 225 l 2
 600 125 525 0 350 0 c 2
 300 0 l 1
 100 0 l 1
 100 700 l 1
300 400 m 1
 300 100 l 1
 350 100 400 150 400 225 c 2
 400 275 l 2
 400 350 348.28515625 400 300 400 c 1
EndSplineSet
EndChar

StartChar: uni042C
Encoding: 1068 1068 535
Width: 800
Flags: W
HStem: 0 100<200 358.13> 400 100<200 358.13> 780 20G<0 200>
VStem: 0 200<100 400 500 800> 400 200<142.832 356.989>
LayerCount: 2
Fore
SplineSet
0 800 m 1
 200 800 l 1
 200 500 l 1
 350 500 l 2
 525 500 600 334.779296875 600 275 c 2
 600 225 l 2
 600 125 525 0 350 0 c 2
 200 0 l 1
 0 0 l 1
 0 800 l 1
200 400 m 1
 200 100 l 1
 300 100 l 2
 350 100 400 150 400 225 c 2
 400 275 l 2
 400 350 348.28515625 400 300 400 c 2
 200 400 l 1
EndSplineSet
EndChar

StartChar: uni0406
Encoding: 1030 1030 536
Width: 800
Flags: W
HStem: 0 100<0 200 400 600> 700 100<0 200 400 600>
VStem: 200 200<100 700>
LayerCount: 2
Fore
SplineSet
0 800 m 1
 600 800 l 1
 600 700 l 1
 400 700 l 1
 400 100 l 1
 600 100 l 1
 600 0 l 1
 0 0 l 1
 0 100 l 1
 200 100 l 1
 200 700 l 1
 0 700 l 1
 0 800 l 1
EndSplineSet
EndChar

StartChar: uni042B
Encoding: 1067 1067 537
Width: 800
Flags: W
HStem: 0 100<175 237.103> 400 100<175 237.103> 780 20G<0 175 525 700>
VStem: 0 175<100 400 500 800> 275 150<139.581 358.341> 525 175<0 800>
CounterMasks: 1 1c
LayerCount: 2
Fore
SplineSet
0 800 m 1
 175 800 l 1
 175 500 l 1
 200 500 l 2
 366.666992188 500 425 334.779296875 425 275 c 2
 425 225 l 2
 425 150 366.666992188 0 200 0 c 2
 175 0 l 1
 0 0 l 1
 0 800 l 1
175 400 m 1
 175 100 l 1
 233.333007812 100 275 150 275 225 c 2
 275 275 l 2
 275 350 231.33203125 400 175 400 c 1
525 0 m 1
 525 800 l 1
 700 800 l 1
 700 0 l 1
 525 0 l 1
EndSplineSet
EndChar

StartChar: uni042E
Encoding: 1070 1070 539
Width: 800
Flags: W
HStem: 0 100<449.479 498.434> 325 150<175 276.248> 700 100<449.479 498.434>
VStem: 0 175<0 325 475 800> 276.248 148.752<158.234 325 475 641.766> 525 175<191.499 608.501>
CounterMasks: 1 e0
LayerCount: 2
Fore
SplineSet
0 800 m 1
 175 800 l 1
 175 475 l 1
 276.248046875 475 l 1
 284.315429688 653.23828125 337.682617188 800 475 800 c 0
 625 800 700 625 700 425 c 2
 700 375 l 2
 700 175 625 0 475 0 c 0
 337.682617188 0 284.315429688 146.76171875 276.248046875 325 c 1
 175 325 l 1
 175 0 l 1
 0 0 l 1
 0 800 l 1
475 700 m 0
 431.25 700 425 550 425 425 c 2
 425 375 l 2
 425 250 431.25 100 475 100 c 0
 518.75 100 525 250 525 375 c 2
 525 425 l 2
 525 550 518.75 700 475 700 c 0
EndSplineSet
EndChar

StartChar: uni042F
Encoding: 1071 1071 540
Width: 800
Flags: W
HStem: 0 21G<0 145 400 600> 0 21G<0 145 400 600> 200 100<325 400> 700 100<275.728 400>
VStem: 0 200<371.548 629.102> 400 200<0 200 300 700>
LayerCount: 2
Fore
SplineSet
600 800 m 1xbc
 600 0 l 1
 400 0 l 1
 400 200 l 1
 325 200 l 1
 125 0 l 1
 0 0 l 1
 0 75 l 1
 159.453125 234.453125 l 1
 61.8828125 284.670898438 0 379.668945312 0 450 c 2
 0 550 l 2
 0 650 125 800 300 800 c 2
 400 800 l 1
 600 800 l 1xbc
400 700 m 1
 350 700 l 2
 300 700 200 650 200 550 c 2
 200 450 l 2
 200 350 300 300 350 300 c 2
 400 300 l 1
 400 700 l 1
EndSplineSet
EndChar

StartChar: uni042D
Encoding: 1069 1069 543
Width: 800
Flags: W
HStem: 0 100<235.173 353.918> 400 100<100 399.027> 700 100<235.173 353.996>
VStem: 0 200<131.836 225 575 668.164> 400 200<199.402 400 500 600.598>
LayerCount: 2
Fore
SplineSet
300 800 m 0
 525 800 600 625 600 425 c 2
 600 375 l 2
 600 175 525 0 300 0 c 0
 25.0009765625 0 0 175 0 225 c 1
 200 225 l 1
 200 200 200 100 300 100 c 0
 400 100 400 250 400 375 c 2
 400 400 l 1
 100 400 l 1
 100 500 l 1
 399.02734375 500 l 1
 395.936523438 602.961914062 380.391601562 700 300 700 c 0
 200 700 200 600 200 575 c 1
 0 575 l 1
 0 625 25.0009765625 800 300 800 c 0
EndSplineSet
EndChar

StartChar: uni0404
Encoding: 1028 1028 544
Width: 800
Flags: W
HStem: 0 100<246.082 364.827> 400 100<200.973 500> 700 100<246.004 364.827>
VStem: 0 200<199.402 400 500 600.598> 400 200<131.836 225 575 668.164>
LayerCount: 2
Fore
SplineSet
300 800 m 0
 574.999023438 800 600 625 600 575 c 1
 400 575 l 1
 400 600 400 700 300 700 c 0
 219.608398438 700 204.063476562 602.961914062 200.97265625 500 c 1
 500 500 l 1
 500 400 l 1
 200 400 l 1
 200 375 l 2
 200 250 200 100 300 100 c 0
 400 100 400 200 400 225 c 1
 600 225 l 1
 600 175 574.999023438 0 300 0 c 0
 75 0 0 175 0 375 c 2
 0 425 l 2
 0 625 75 800 300 800 c 0
EndSplineSet
EndChar

StartChar: uni0427
Encoding: 1063 1063 545
Width: 800
Flags: W
HStem: 0 21G<400 600> 0 21G<400 600> 200 100.053<241.87 400> 780 20.0527G<0 200 400 600>
VStem: 0 200<343.064 800.053> 400 200<0 200 300 800>
LayerCount: 2
Fore
SplineSet
600 800 m 1xbc
 600 0 l 1
 400 0 l 1
 400 200 l 1
 300 200 l 1
 250 200.052734375 l 2
 75 200.237304688 0 325.052734375 0 425.052734375 c 2
 0 800.052734375 l 1
 200 800.052734375 l 1
 200 425.052734375 l 2
 200 350.052734375 251.71484375 300.052734375 300 300.052734375 c 2
 400 300 l 1
 400 800 l 1
 600 800 l 1xbc
EndSplineSet
EndChar

StartChar: uni0405
Encoding: 1029 1029 546
Width: 800
Flags: W
HStem: 0 100<200.544 367.742> 700 100<229.302 394.69>
VStem: 0 200<525.574 671.363> 0 75<205.113 275> 400 200<129.223 274.426> 525 75<525 594.531>
LayerCount: 2
Fore
SplineSet
300 800 m 0xe8
 405.255859375 800 517.275390625 743.352539062 600 675 c 1
 600 525 l 1
 525 525 l 1
 525 625 375 700 300 700 c 0
 224.571289062 700 200 650 200 600 c 0xe4
 200 400 600 500 600 200 c 0
 600 50 425 0 300 0 c 0
 194.655273438 0 82.68359375 55.6943359375 0 125 c 1
 0 275 l 1
 75 275 l 1xd8
 75 175 225.04296875 97.4697265625 300 100 c 0
 375.385742188 102.543945312 400 150 400 200 c 0
 400 400 0 300 0 600 c 0
 0 750.385742188 175 800 300 800 c 0xe8
EndSplineSet
EndChar

StartChar: uni0408
Encoding: 1032 1032 547
Width: 800
Flags: W
HStem: 0 100<231.323 368.677> 700 100<200 400>
VStem: 400 200<126.562 700>
LayerCount: 2
Fore
SplineSet
200 800 m 1
 600 800 l 1
 600 200 l 2
 600 100 550 0 300 0 c 0
 50 0 0 100 0 200 c 1
 200 200 l 1
 200 125 250 100 300 100 c 0
 350 100 400 125 400 200 c 2
 400 700 l 1
 200 700 l 1
 200 800 l 1
EndSplineSet
EndChar

StartChar: uni0403
Encoding: 1027 1027 548
Width: 800
Flags: W
HStem: 0 21G<0 200> 0 21G<0 200> 500 100<200 600> 625 175
VStem: 0 200<0 500> 200 200
LayerCount: 2
Fore
SplineSet
0 600 m 1xb8
 600 600 l 1
 600 500 l 1
 200 500 l 1
 200 0 l 1
 0 0 l 1
 0 600 l 1xb8
EndSplineSet
Refer: 405 714 N 1 0 0 1 0 0 2
EndChar

StartChar: uni0402
Encoding: 1026 1026 549
Width: 800
Flags: W
HStem: 0 100<375.018 511.213> 500 100.033<300 403.125> 700 100<0 150 300 500>
VStem: 150 150<0 500 600.033 700> 450 150<100.937 452.318>
LayerCount: 2
Fore
SplineSet
300 600.033203125 m 1
 350 600 l 2
 525 599.815429688 600 475 600 375 c 2
 600 200 l 2
 600 100.000976562 575 0 475 0 c 0
 400 0 375 25 375 25 c 1
 375 125 l 1
 375 125 400 100 425 100 c 0
 450 100 450 125 450 200 c 2
 450 375 l 2
 450 475 375 500 300 500 c 1
 300 0 l 1
 150 0 l 1
 150 700 l 1
 0 700 l 1
 0 800 l 1
 500 800 l 1
 500 700 l 1
 300 700 l 1
 300 600.033203125 l 1
EndSplineSet
EndChar

StartChar: uni040D
Encoding: 1037 1037 550
Width: 800
Flags: W
HStem: 0 21G<0 200 400 600> 0 21G<0 200 400 600> 580 20G<0 200 400 600> 625 175
VStem: 0 200<0 125 275 600> 200 200 400 200<0 325 475 600>
LayerCount: 2
Fore
SplineSet
0 600 m 1xba
 200 600 l 1
 200 275 l 1
 400 475 l 1
 400 600 l 1
 600 600 l 1
 600 0 l 1
 400 0 l 1
 400 325 l 1
 200 125 l 1
 200 0 l 1
 0 0 l 1
 0 600 l 1xba
EndSplineSet
Refer: 406 715 N 1 0 0 1 0 0 2
EndChar

StartChar: uni040F
Encoding: 1039 1039 551
Width: 800
Flags: W
HStem: -125 225<225 375> 0 100<200 225 375 400> 780 20G<0 200 400 600>
VStem: 0 200<100 800> 225 150<-125 0> 400 200<100 800>
CounterMasks: 1 1c
LayerCount: 2
Fore
SplineSet
0 800 m 1x7c
 200 800 l 1
 200 100 l 1
 400 100 l 1
 400 800 l 1
 600 800 l 1
 600 0 l 1
 375 0 l 1x7c
 375 -125 l 1
 225 -125 l 1xbc
 225 0 l 1
 0 0 l 1
 0 800 l 1x7c
EndSplineSet
EndChar

StartChar: uni040B
Encoding: 1035 1035 552
Width: 800
Flags: W
HStem: 0 20.9473G<150 300 450 600> 0 20.9473G<150 300 450 600> 500 100.017<300 403.195> 700 100<0 150 300 500>
VStem: 150 150<0 500 600.017 700> 450 150<0 452.257>
LayerCount: 2
Fore
SplineSet
600 -0.052734375 m 1xbc
 450 0 l 1
 450 375 l 2
 450 471.588867188 375.1875 503.598632812 300 500 c 1
 300 0 l 1
 150 0 l 1
 150 700 l 1
 0 700 l 1
 0 800 l 1
 500 800 l 1
 500 700 l 1
 300 700 l 1
 300 600.016601562 l 1
 350 599.947265625 l 2
 524.999023438 599.705078125 600 474.947265625 600 374.947265625 c 2
 600 -0.052734375 l 1xbc
EndSplineSet
EndChar

StartChar: uni0409
Encoding: 1033 1033 553
Width: 800
Flags: W
HStem: 0 100<425 481.883> 400 100<425 481.248> 700 100<175 275>
VStem: 275 150<100 400 500 700> 525 175<147.656 353.674>
LayerCount: 2
Fore
SplineSet
65.625 800 m 1
 425 800 l 1
 425 500 l 1
 481.25 500 l 2
 634.375 500 700 334.779296875 700 275 c 2
 700 225 l 2
 700 125 634.374023438 0 481.25 0 c 2
 425 0 l 1
 275 0 l 1
 275 700 l 1
 175 700 l 1
 131.25 200 l 2
 122.275390625 97.4345703125 131.25 0 0 0 c 1
 0 100 l 1
 65.625 800 l 1
425 400 m 1
 425 100 l 1
 468.75 100 525 150 525 225 c 2
 525 275 l 2
 525 350 467.249023438 400 425 400 c 1
EndSplineSet
EndChar

StartChar: uni040A
Encoding: 1034 1034 554
Width: 800
Flags: W
HStem: 0 100<425 481.883> 400 100<175 275 425 481.248> 780 20G<0 175 275 425>
VStem: 0 175<0 400 500 800> 275 150<100 400 500 800> 525 175<147.656 353.674>
CounterMasks: 1 1c
LayerCount: 2
Fore
SplineSet
0 800 m 1
 175 800 l 1
 175 500 l 1
 275 500 l 1
 275 800 l 1
 425 800 l 1
 425 500 l 1
 481.25 500 l 2
 634.375 500 700 334.779296875 700 275 c 2
 700 225 l 2
 700 125 634.375 0 481.25 0 c 2
 425 0 l 1
 275 0 l 1
 275 400 l 1
 175 400 l 1
 175 0 l 1
 0 0 l 1
 0 800 l 1
425 400 m 1
 425 100 l 1
 468.75 100 525 150 525 225 c 2
 525 275 l 2
 525 350 467.249023438 400 425 400 c 1
EndSplineSet
EndChar

StartChar: uni040C
Encoding: 1036 1036 555
Width: 800
Flags: W
HStem: 0 21G<0 200 505 600> 0 21G<0 200 505 600> 580 20G<0 200 432.222 600> 625 175
VStem: 0 200<0 225 375 600> 200 200
LayerCount: 2
Fore
SplineSet
200 225 m 1xb8
 200 0 l 1
 0 0 l 1
 0 600 l 1
 200 600 l 1
 200 375 l 1xb8
 250 375 l 1
 450 600 l 1
 600 600 l 1
 600 525 l 1
 400 325 l 1xb4
 600 125 l 1
 600 0 l 1
 525 0 l 1
 300 225 l 1
 200 225 l 1xb8
EndSplineSet
Refer: 405 714 N 1 0 0 1 0 0 2
EndChar

StartChar: uni040E
Encoding: 1038 1038 556
Width: 800
Flags: W
HStem: 0 100<0 170.878> 580 20G<0 160 440 600> 625 75<210.4 389.6> 780 20G<100 150 450 500>
VStem: 100 50<755.532 800> 450 50<755.147 800>
LayerCount: 2
Fore
SplineSet
0 0 m 1
 0 100 l 1
 50 100 200 100 175 150 c 0
 150 200 125 250 125 250 c 1
 0 500 l 1
 0 600 l 1
 150 600 l 1
 300 300 l 1
 450 600 l 1
 600 600 l 1
 600 500 l 1
 375 100 l 2
 320.1875 2.5546875 200 0 0 0 c 1
EndSplineSet
Refer: 409 728 S 1 0 0 1 0 0 2
EndChar

StartChar: uni0430
Encoding: 1072 1072 557
Width: 800
VWidth: 1000
Flags: W
HStem: 0 100<222.43 384.668> 300 100<229.347 400> 500 100<50.0729 361.072>
VStem: 0 200<125.907 274.093> 400 200<119.281 300> 500 100<0 100>
LayerCount: 2
Fore
SplineSet
600 350 m 2xf4
 600 0 l 1
 500 0 l 1
 500 100 l 1
 500 50 404.645507812 0 300 0 c 0
 125 0 0 75 0 175 c 2
 0 225 l 2
 0 325 125 400 300 400 c 2
 425 400 l 1
 425 450 345.715820312 500.899414062 250 500 c 0
 150.004882812 499.060546875 50 475 50 475 c 1
 50 575 l 1
 50 575 150 600 250 600 c 0
 350 600 600 600 600 350 c 2xf4
400 150 m 2xf8
 400 300 l 1
 300 300 200 300 200 225 c 2
 200 175 l 2
 200 125 250 100 300 100 c 0
 347.8984375 100 400 125 400 150 c 2xf8
EndSplineSet
EndChar

